<?xml version="1.0" standalone="no"?>
<!DOCTYPE svg PUBLIC "-//W3C//DTD SVG 1.1//EN" "http://www.w3.org/Graphics/SVG/1.1/DTD/svg11.dtd" >
<svg xmlns="http://www.w3.org/2000/svg" xmlns:xlink="http://www.w3.org/1999/xlink" version="1.1">
<metadata>
Created by FontForge 20170731 at Fri Dec 22 23:03:45 2006
 By Aleksey,,,
Copyright Copr. 1999, Luc[as] de Groot &#60;www.FontFabrik.com&#62;. All rights reserved. Published by FontShop International &#60;www.fontfont.de&#62;
</metadata>
<defs>
<font id="TheSans-B7Bold" horiz-adv-x="550" >
  <font-face 
    font-family="TheSans B7"
    font-weight="500"
    font-stretch="normal"
    units-per-em="1000"
    panose-1="0 0 0 0 0 0 0 0 0 0"
    ascent="800"
    descent="-200"
    x-height="497"
    cap-height="675"
    bbox="-66 -251 1030.29 864"
    underline-thickness="102"
    underline-position="-399"
    unicode-range="U+0020-FB02"
  />
<missing-glyph 
 />
    <glyph glyph-name=".notdef" 
 />
    <glyph glyph-name=".null" horiz-adv-x="0" 
 />
    <glyph glyph-name="nonmarkingreturn" horiz-adv-x="333" 
 />
    <glyph glyph-name="space" unicode=" " horiz-adv-x="218" 
 />
    <glyph glyph-name="exclam" unicode="!" horiz-adv-x="321" 
d="M244 708l-19 -520h-110l-21 520h150zM247 65q0 -32 -22.5 -54t-56.5 -22q-33 0 -55.5 22t-22.5 54t22.5 54t55.5 22q34 0 56.5 -22t22.5 -54z" />
    <glyph glyph-name="quotedbl" unicode="&#x22;" horiz-adv-x="405" 
d="M361 702l-17 -254h-95l-16 254h128zM172 702l-16 -254h-96l-16 254h128z" />
    <glyph glyph-name="numbersign" unicode="#" 
d="M523 396h-85l-13 -137h75v-88h-84l-19 -171h-93l19 171h-127l-18 -171h-93l18 171h-76v88h85l14 137h-76v87h85l18 167h93l-18 -167h127l17 167h93l-17 -167h75v-87zM345 396h-126l-14 -137h127z" />
    <glyph glyph-name="dollar" unicode="$" 
d="M473 209q0 -68 -44.5 -119t-120.5 -69v-106h-92v100q-64 1 -121 12l10 115q58 -21 126 -21q49 0 78 19t29 56q0 29 -27.5 48t-66.5 33t-78 32t-66.5 56t-27.5 94q0 65 43 113.5t114 62.5v95h91v-89q62 -2 104 -12l-11 -108q-55 17 -110 17q-51 0 -75.5 -19t-24.5 -48
q0 -27 28 -46t67.5 -33.5t79 -33t67.5 -56.5t28 -93z" />
    <glyph glyph-name="percent" unicode="%" horiz-adv-x="760" 
d="M722 154q0 -73 -45 -119t-112 -46q-72 0 -110 41t-38 115q0 71 44.5 117t111.5 46q70 0 109.5 -39t39.5 -115zM669 613l-501 -635l-80 57l501 635zM343 508q0 -73 -44.5 -119.5t-112.5 -46.5q-72 0 -110 41.5t-38 115.5q0 71 45 116.5t112 45.5q70 0 109 -38.5t39 -114.5
zM625 148q0 43 -13.5 61t-41.5 18q-25 0 -40.5 -20.5t-15.5 -56.5q0 -81 57 -81q23 0 38.5 21.5t15.5 57.5zM247 502q0 42 -13.5 60.5t-42.5 18.5q-24 0 -39.5 -21t-15.5 -57q0 -80 56 -80q24 0 39.5 21t15.5 58z" />
    <glyph glyph-name="ampersand" unicode="&#x26;" horiz-adv-x="797" 
d="M755 74l-84 -97q-86 60 -137 100q-113 -88 -260 -88q-111 0 -169 56t-58 142q0 61 32.5 110.5t94.5 97.5q-46 55 -65.5 95t-19.5 83q0 70 53 117.5t146 47.5q85 0 131.5 -40t46.5 -107q0 -99 -119 -193q85 -85 181 -160v-1q65 99 60 221h127q3 -165 -91 -290
q80 -60 131 -94zM340 582q0 26 -15.5 43t-46.5 17q-28 0 -45.5 -17t-17.5 -45q0 -44 57 -110q68 58 68 112zM440 147q-109 88 -191 172q-69 -59 -69 -116q0 -43 31.5 -74t84.5 -31q79 0 144 49z" />
    <glyph glyph-name="quotesingle" unicode="'" horiz-adv-x="216" 
d="M172 702l-16 -254h-96l-16 254h128z" />
    <glyph glyph-name="parenleft" unicode="(" horiz-adv-x="306" 
d="M297 -170l-97 -45q-148 233 -148 500q0 269 149 502l93 -43q-116 -207 -116 -454q0 -254 119 -460z" />
    <glyph glyph-name="parenright" unicode=")" horiz-adv-x="306" 
d="M256 288q0 -270 -149 -503l-93 43q117 206 117 455q0 253 -118 460l97 44q146 -234 146 -499z" />
    <glyph glyph-name="asterisk" unicode="*" horiz-adv-x="384" 
d="M350 532l-45 -79l-85 68l16 -108h-91l16 108l-86 -68l-44 78l101 40l-101 40l45 79l85 -68l-16 108h91l-16 -108l85 68l45 -78l-101 -40z" />
    <glyph glyph-name="plus" unicode="+" 
d="M511 244h-176v-186h-121v186h-175v107h175v185h121v-185h176v-107z" />
    <glyph glyph-name="comma" unicode="," horiz-adv-x="258" 
d="M128 149q51 0 72 -50q29 -69 -26 -162q-33 -57 -94 -110l-53 47q50 53 58.5 90t-17.5 63q-29 34 -10 78t70 44z" />
    <glyph glyph-name="hyphen" unicode="-" horiz-adv-x="334" 
d="M290 226h-246v103h246v-103z" />
    <glyph glyph-name="period" unicode="." horiz-adv-x="258" 
d="M210 71q0 -34 -23.5 -58t-57.5 -24t-58 24t-24 58q0 33 24 57t58 24t57.5 -24t23.5 -57z" />
    <glyph glyph-name="slash" unicode="/" horiz-adv-x="463" 
d="M468 757l-353 -918h-126l350 918h129z" />
    <glyph glyph-name="zero" unicode="0" 
d="M514 330q0 -171 -69.5 -256t-175.5 -85q-57 0 -98.5 16.5t-73 55t-47 105t-15.5 162.5q0 165 66.5 249t178.5 84q116 0 175 -77t59 -254zM376 326q0 132 -23.5 179.5t-78.5 47.5q-48 0 -74.5 -50t-26.5 -171q0 -133 22.5 -183t79.5 -50q50 0 75.5 52.5t25.5 174.5z" />
    <glyph glyph-name="one" unicode="1" 
d="M504 0h-438v115h163v403l-145 -57l-21 121l200 68h99v-535h142v-115z" />
    <glyph glyph-name="two" unicode="2" 
d="M493 0h-442v104l98 96q111 109 145 157t34 90q0 43 -28.5 70t-80.5 27q-73 0 -138 -46l-25 114q88 49 191 49q109 0 165.5 -55.5t56.5 -136.5q0 -66 -34 -125t-128 -148l-79 -74v-1q94 2 185 2h80v-123z" />
    <glyph glyph-name="three" unicode="3" 
d="M484 207q0 -102 -79 -160t-210 -58q-74 0 -129 16l12 110q56 -19 125 -19q71 0 107 26.5t36 70.5q0 43 -35.5 67.5t-106.5 24.5q-49 0 -102 -6v99h29q203 0 203 99q0 37 -28 57.5t-80 20.5q-75 0 -139 -33l-12 108q82 31 177 31q106 0 161 -43.5t55 -116.5
q0 -55 -29.5 -92.5t-83.5 -53.5l-1 -3q57 -7 93.5 -48t36.5 -97z" />
    <glyph glyph-name="four" unicode="4" 
d="M529 141h-90v-141h-126v141h-283l-12 106l247 403h174v-394h90v-115zM315 256v266h-1l-167 -268q44 2 168 2z" />
    <glyph glyph-name="five" unicode="5" 
d="M489 217q0 -104 -78.5 -166t-207.5 -62q-65 0 -124 14v115q62 -19 133 -19q65 0 100.5 28t35.5 77q0 47 -39.5 72.5t-108.5 25.5q-67 0 -112 -8v356h373v-120h-252v-128q12 1 39 1q114 0 177.5 -51.5t63.5 -134.5z" />
    <glyph glyph-name="six" unicode="6" 
d="M515 223q0 -108 -64.5 -171t-172.5 -63q-112 0 -175 72t-63 212q0 190 91 288.5t250 98.5q47 0 75 -4v-111q-38 7 -82 7q-156 0 -197 -161q-5 -14 -9 -40h1q49 63 143 63q95 0 149 -54.5t54 -136.5zM386 203q0 50 -27 78t-78 28q-48 0 -77 -30t-29 -69q0 -52 28.5 -84.5
t81.5 -32.5q47 0 74 30.5t27 79.5z" />
    <glyph glyph-name="seven" unicode="7" 
d="M499 540q-131 -250 -222 -540h-147q96 294 221 527q-58 -2 -215 -2h-86v125h449v-110z" />
    <glyph glyph-name="eight" unicode="8" 
d="M509 179q0 -89 -69 -139.5t-172 -50.5q-105 0 -166.5 46t-61.5 124q0 53 32 92t88 74q-104 58 -104 153q0 82 63 132.5t163 50.5q98 0 155 -45t57 -117q0 -87 -106 -155q57 -31 89 -69t32 -96zM365 488q0 33 -24 53.5t-68 20.5q-42 0 -65 -21t-23 -52t22.5 -52.5
t73.5 -45.5q41 23 62.5 45.5t21.5 51.5zM377 167q0 37 -28 60.5t-84 48.5q-45 -26 -68.5 -50t-23.5 -57q0 -35 27.5 -56.5t78.5 -21.5q43 0 70.5 20.5t27.5 55.5z" />
    <glyph glyph-name="nine" unicode="9" 
d="M508 377q0 -192 -91 -289.5t-249 -97.5q-50 0 -92 7v113q50 -12 100 -12q155 0 192 154q1 6 4 18.5t5 20.5h-1q-50 -56 -139 -56q-95 0 -149 54.5t-54 139.5q0 106 66 169t171 63q112 0 174.5 -71t62.5 -213zM370 440q0 53 -28 85t-80 32q-46 0 -73 -31t-27 -78
q0 -51 27 -79.5t76 -28.5t77 29t28 71z" />
    <glyph glyph-name="colon" unicode=":" horiz-adv-x="298" 
d="M242 354q0 -34 -23.5 -58t-57.5 -24t-58 24t-24 58q0 33 24 57t58 24t57.5 -24t23.5 -57zM242 71q0 -34 -23.5 -58t-57.5 -24t-58 24t-24 58q0 33 24 57t58 24t57.5 -24t23.5 -57z" />
    <glyph glyph-name="semicolon" unicode=";" horiz-adv-x="298" 
d="M242 354q0 -34 -23.5 -58t-57.5 -24t-58 24t-24 58q0 33 24 57t58 24t57.5 -24t23.5 -57zM160 149q49 0 72.5 -45t-4.5 -123t-115 -154l-53 47q49 53 57.5 90t-16.5 63q-29 34 -10 78t69 44z" />
    <glyph glyph-name="less" unicode="&#x3c;" 
d="M466 93l-84 -87l-319 295l318 294l84 -84l-237 -209z" />
    <glyph glyph-name="equal" unicode="=" 
d="M497 341h-444v103h444v-103zM497 150h-444v103h444v-103z" />
    <glyph glyph-name="greater" unicode="&#x3e;" 
d="M487 300l-318 -294l-84 84l237 209l-238 209l84 87z" />
    <glyph glyph-name="question" unicode="?" horiz-adv-x="451" 
d="M404 513q0 -39 -14.5 -71.5t-35 -52t-43.5 -42t-40 -41.5t-23.5 -50t5.5 -68h-124q-16 45 -12 81.5t19 60.5t36.5 46.5t42 39t35 38.5t14.5 45q0 45 -52.5 72t-144.5 30l16 116q156 -4 238.5 -62.5t82.5 -141.5zM271 65q0 -32 -22.5 -54t-55.5 -22t-55.5 22t-22.5 54
t22.5 54t55.5 22t55.5 -22t22.5 -54z" />
    <glyph glyph-name="at" unicode="@" horiz-adv-x="970" 
d="M881 413q0 -135 -67 -209t-174 -74q-53 0 -80 27t-25 69h-3q-18 -37 -56.5 -66.5t-84.5 -29.5q-48 0 -74.5 36.5t-26.5 106.5q0 118 59.5 192.5t174.5 74.5q69 0 122 -20l-35 -198q-9 -49 2 -70.5t42 -21.5q50 0 80.5 44t30.5 133q0 97 -61 162t-189 65q-136 0 -228 -95
t-92 -246q0 -129 71 -199.5t213 -70.5q88 0 175 29l19 -100q-102 -34 -210 -34q-185 0 -284.5 97t-99.5 265q0 197 128 326.5t315 129.5q171 0 264.5 -91.5t93.5 -231.5zM538 449q-20 6 -44 6q-48 0 -76.5 -52t-28.5 -109q0 -65 32 -65q30 0 60.5 45t47.5 131z" />
    <glyph glyph-name="A" unicode="A" horiz-adv-x="626" 
d="M625 0h-144l-47 138h-255l-47 -138h-131l236 675h147zM401 241l-67 192q-17 45 -28 93h-1q-19 -70 -27 -93l-67 -192h190z" />
    <glyph glyph-name="B" unicode="B" horiz-adv-x="580" 
d="M539 208q0 -39 -14 -74.5t-44 -67t-85 -50t-128 -18.5q-14 0 -82 1t-116 1v674q95 5 224 5q109 0 167.5 -43t58.5 -124q0 -51 -27 -91.5t-75 -59.5v-2q58 -12 89.5 -54.5t31.5 -96.5zM382 491q0 83 -109 83q-27 0 -73 -2v-176q16 -1 53 -1q129 0 129 96zM400 205
q0 93 -143 93q-43 0 -57 -1v-189q32 -4 72 -4q62 0 95 27t33 74z" />
    <glyph glyph-name="C" unicode="C" horiz-adv-x="566" 
d="M526 23q-82 -31 -176 -31q-85 0 -147.5 26.5t-97.5 73t-51 102.5t-16 122q0 166 86.5 265.5t251.5 99.5q76 0 144 -20l-18 -119q-63 23 -133 23q-92 0 -140 -62t-48 -165q0 -228 197 -228q70 0 128 28z" />
    <glyph glyph-name="D" unicode="D" horiz-adv-x="667" 
d="M630 349q0 -170 -101 -261.5t-271 -91.5q-46 0 -188 5v673q132 5 218 5q342 0 342 -330zM490 339q0 113 -49.5 172t-161.5 59q-47 0 -79 -3v-455q30 -5 71 -5q100 0 159.5 58t59.5 174z" />
    <glyph glyph-name="E" unicode="E" horiz-adv-x="493" 
d="M437 0h-367v675h367v-109h-237v-166h225v-106h-225v-183h237v-111z" />
    <glyph glyph-name="F" unicode="F" horiz-adv-x="465" 
d="M431 565h-231v-174h218v-107h-218v-284h-130v675h361v-110z" />
    <glyph glyph-name="G" unicode="G" horiz-adv-x="675" 
d="M608 32q-104 -42 -231 -42q-160 0 -250.5 88.5t-90.5 243.5q0 161 102 262t273 101q99 0 191 -29l-26 -118q-79 31 -173 31q-101 0 -163.5 -62t-62.5 -173q0 -108 56.5 -167.5t158.5 -59.5q47 0 86 12v235h130v-322z" />
    <glyph glyph-name="H" unicode="H" horiz-adv-x="687" 
d="M616 0h-130v293h-286v-293h-130v675h130v-270h286v270h130v-675z" />
    <glyph glyph-name="I" unicode="I" horiz-adv-x="270" 
d="M200 0h-130v675h130v-675z" />
    <glyph glyph-name="J" unicode="J" horiz-adv-x="335" 
d="M266 189q0 -198 -182 -198q-38 0 -84 8v112q27 -10 62 -10q38 0 56 20.5t18 72.5v481h130v-486z" />
    <glyph glyph-name="K" unicode="K" horiz-adv-x="597" 
d="M588 0h-171l-217 324v-324h-130v675h130v-306l219 306h158l-247 -326z" />
    <glyph glyph-name="L" unicode="L" horiz-adv-x="429" 
d="M419 0h-349v675h130v-561h219v-114z" />
    <glyph glyph-name="M" unicode="M" horiz-adv-x="881" 
d="M850 0h-137l-48 322q-11 67 -21 161h-2q-19 -89 -37 -144l-107 -339h-129l-103 315q-27 82 -43 168h-2q-4 -63 -19 -172l-38 -311h-132l104 675h152l113 -347q19 -59 38 -142h1q15 71 38 140l116 349h151z" />
    <glyph glyph-name="N" unicode="N" horiz-adv-x="699" 
d="M629 0h-168l-198 341q-35 62 -73 145q6 -87 6 -245v-241h-126v675h169l188 -322q28 -48 83 -159q-7 95 -7 271v210h126v-675z" />
    <glyph glyph-name="O" unicode="O" horiz-adv-x="703" 
d="M670 347q0 -163 -94.5 -260.5t-235.5 -97.5q-151 0 -229 90t-78 250q0 163 95 260t235 97q141 0 224 -85.5t83 -253.5zM531 337q0 112 -46.5 172t-133.5 60q-75 0 -127 -59t-52 -167q0 -111 44.5 -173.5t132.5 -62.5q74 0 128 58.5t54 171.5z" />
    <glyph glyph-name="P" unicode="P" horiz-adv-x="531" 
d="M508 470q0 -101 -72 -167.5t-192 -66.5q-28 0 -44 2v-238h-130v675q73 4 181 4q124 0 190.5 -54.5t66.5 -154.5zM373 462q0 111 -127 111q-31 0 -46 -1v-225q20 -3 38 -3q61 1 98 32.5t37 85.5z" />
    <glyph glyph-name="Q" unicode="Q" horiz-adv-x="703" 
d="M670 347q0 -163 -94.5 -260.5t-235.5 -97.5q-151 0 -229 90t-78 250q0 163 95 260t235 97q141 0 224 -85.5t83 -253.5zM701 -203q-102 -13 -151.5 -2t-117.5 23.5t-130 4.5v115q73 9 138 -3t128 -23t133 -1v-114zM531 337q0 112 -46.5 172t-133.5 60q-75 0 -127 -59
t-52 -167q0 -111 44.5 -173.5t132.5 -62.5q74 0 128 58.5t54 171.5z" />
    <glyph glyph-name="R" unicode="R" horiz-adv-x="567" 
d="M554 0h-161l-182 279h-11v-279h-130v675q71 4 194 4q245 0 245 -190q0 -73 -47 -124.5t-119 -63.5q5 -7 25 -33.5t29 -40.5zM373 476q0 97 -122 97q-31 0 -51 -3v-195q18 -2 47 -2q58 0 92 28t34 75z" />
    <glyph glyph-name="S" unicode="S" horiz-adv-x="503" 
d="M467 207q0 -95 -72.5 -156.5t-188.5 -61.5q-88 0 -156 18l14 125q71 -29 147 -29q50 0 81.5 21.5t31.5 66.5q0 35 -29.5 57.5t-71 37.5t-83 34.5t-71 60t-29.5 102.5q0 92 67.5 147.5t187.5 55.5q60 0 122 -13l-12 -114q-59 19 -116 19q-55 0 -83 -22t-28 -59
q0 -33 30 -55.5t72 -38t84.5 -36t72.5 -61t30 -99.5z" />
    <glyph glyph-name="T" unicode="T" horiz-adv-x="510" 
d="M495 564h-175v-564h-130v564h-175v111h480v-111z" />
    <glyph glyph-name="U" unicode="U" horiz-adv-x="681" 
d="M611 262q0 -136 -72 -204.5t-208 -68.5q-77 0 -130 19.5t-80.5 55.5t-39 76.5t-11.5 93.5v441h130v-433q0 -70 30.5 -107.5t109.5 -37.5q76 0 109 36t33 121v421h129v-413z" />
    <glyph glyph-name="V" unicode="V" horiz-adv-x="628" 
d="M624 675l-236 -675h-150l-235 675h142l131 -395q26 -77 39 -130h2q15 60 41 138l133 387h133z" />
    <glyph glyph-name="W" unicode="W" horiz-adv-x="951" 
d="M927 675l-172 -675h-160l-98 372q-12 43 -26 139h-1q-7 -70 -25 -136l-98 -375h-151l-172 675h139l92 -373q15 -61 25 -137h1q14 90 26 133l103 377h138l104 -375q19 -72 27 -131h1q11 72 25 129l92 377h130z" />
    <glyph glyph-name="X" unicode="X" horiz-adv-x="628" 
d="M618 0h-164l-145 248l-145 -248h-154l215 345l-202 330h151l137 -234l136 234h148l-199 -329z" />
    <glyph glyph-name="Y" unicode="Y" horiz-adv-x="561" 
d="M559 675l-215 -436v-239h-130v238l-211 437h142l89 -194q25 -56 46 -112h2q14 39 54 125l85 181h138z" />
    <glyph glyph-name="Z" unicode="Z" horiz-adv-x="537" 
d="M493 0h-448v100l243 396q19 31 44 64q-48 -2 -123 -2h-156v117h436v-104l-257 -406q-21 -34 -31 -47q17 2 146 2h146v-120z" />
    <glyph glyph-name="bracketleft" unicode="[" horiz-adv-x="328" 
d="M292 -205h-221v982h221v-101h-101v-778h101v-103z" />
    <glyph glyph-name="backslash" unicode="\" horiz-adv-x="479" 
d="M483 -161h-126l-350 918h126z" />
    <glyph glyph-name="bracketright" unicode="]" horiz-adv-x="328" 
d="M256 -205h-220v103h100v778h-100v101h220v-982z" />
    <glyph glyph-name="asciicircum" unicode="^" 
d="M488 383l-91 -46l-132 247l-125 -247l-85 45l164 293h98z" />
    <glyph glyph-name="underscore" unicode="_" 
d="M550 -246h-550v102h550v-102z" />
    <glyph glyph-name="grave" unicode="`" horiz-adv-x="374" 
d="M312 629l-48 -69l-181 108l59 86z" />
    <glyph glyph-name="a" unicode="a" horiz-adv-x="524" 
d="M456 0h-121q0 52 5 84l-1 1q-18 -43 -61 -69t-98 -26q-66 0 -104 40t-38 102q0 86 76.5 130t210.5 44v25q0 40 -22.5 59.5t-74.5 19.5q-70 0 -140 -35l-23 101q84 32 185 32q112 0 157.5 -42.5t45.5 -125.5v-212q0 -66 3 -128zM325 208v15q-165 0 -165 -77
q0 -25 16 -41.5t43 -16.5q46 0 76 36.5t30 83.5z" />
    <glyph glyph-name="b" unicode="b" horiz-adv-x="559" 
d="M523 274q0 -128 -71.5 -206t-197.5 -78q-100 0 -185 24v716h128v-214q0 -55 -8 -97h1q19 41 59 64.5t91 23.5q89 0 136 -61t47 -172zM389 261q0 140 -85 140q-48 0 -77.5 -47.5t-29.5 -112.5v-140q27 -9 67 -9q125 0 125 169z" />
    <glyph glyph-name="c" unicode="c" horiz-adv-x="425" 
d="M398 14q-60 -23 -140 -23q-107 0 -165.5 59t-58.5 182q0 122 64.5 198t188.5 76q60 0 109 -17l-20 -110q-47 19 -93 19q-56 0 -85.5 -41t-29.5 -112q0 -144 116 -144q52 0 97 20z" />
    <glyph glyph-name="d" unicode="d" horiz-adv-x="558" 
d="M488 0h-119q0 42 6 83h-2q-20 -43 -61 -68.5t-96 -25.5q-89 0 -135 62t-46 171q0 128 70.5 206t192.5 78q34 0 63 -4v228h127v-730zM361 258v139q-37 8 -67 8q-125 0 -125 -169q0 -141 85 -141q48 0 77.5 48t29.5 115z" />
    <glyph glyph-name="e" unicode="e" horiz-adv-x="514" 
d="M476 286q0 -30 -4 -59h-308q-1 -137 137 -137q73 0 144 30l14 -97q-81 -33 -180 -33q-245 0 -245 254q0 117 62 190.5t171 73.5q104 0 156.5 -62t52.5 -160zM349 313q1 47 -22 74t-64 27q-40 0 -66 -27t-31 -74h183z" />
    <glyph glyph-name="f" unicode="f" horiz-adv-x="354" 
d="M374 730l-9 -105q-26 9 -62 9q-42 0 -61.5 -23t-19.5 -72v-42h116v-99h-116v-398h-127v398h-87v99h87v40q0 102 48.5 151.5t149.5 49.5q46 0 81 -8z" />
    <glyph glyph-name="g" unicode="g" horiz-adv-x="545" 
d="M520 -53q0 -83 -76 -140.5t-197 -57.5q-100 0 -156.5 38t-56.5 110q0 37 22.5 71t54.5 51q-49 23 -49 77q0 28 16.5 52.5t42.5 35.5q-74 40 -74 136q0 80 57.5 134t161.5 54q39 0 81 -11h169v-100h-68q25 -23 25 -63q0 -82 -54.5 -130.5t-158.5 -48.5q-20 0 -39 4
q-24 -11 -24 -32q0 -17 16.5 -23t60.5 -8l77 -3q169 -6 169 -146zM351 327q0 41 -23.5 64.5t-66.5 23.5t-67.5 -24.5t-24.5 -62.5q0 -40 24 -63t68 -23q42 0 66 22.5t24 62.5zM393 -70q0 61 -78 64l-86 3h-23q-46 -33 -46 -76q0 -34 29 -54t77 -20q60 0 93.5 23t33.5 60z
" />
    <glyph glyph-name="h" unicode="h" horiz-adv-x="571" 
d="M501 0h-127v318q0 41 -13.5 61.5t-47.5 20.5q-48 0 -82 -47.5t-34 -113.5v-239h-128v730h128v-214q0 -62 -9 -101h2q49 92 163 92q148 0 148 -158v-349z" />
    <glyph glyph-name="i" unicode="i" horiz-adv-x="266" 
d="M213 648q0 -32 -23.5 -54.5t-56.5 -22.5t-56 22.5t-23 54.5t23 55t56 23t56.5 -22.5t23.5 -55.5zM197 0h-128v497h128v-497z" />
    <glyph glyph-name="j" unicode="j" horiz-adv-x="271" 
d="M217 648q0 -32 -23.5 -54.5t-56.5 -22.5t-56.5 22.5t-23.5 54.5t23.5 55t56.5 23t56.5 -22.5t23.5 -55.5zM201 -37q0 -105 -44 -158t-149 -53q-37 0 -70 10l8 109q31 -12 59 -12q39 0 54 20t15 71v547h127v-534z" />
    <glyph glyph-name="k" unicode="k" horiz-adv-x="523" 
d="M511 0h-160l-154 246v-246h-128v730h128v-440l145 207h156l-174 -227z" />
    <glyph glyph-name="l" unicode="l" horiz-adv-x="266" 
d="M197 0h-128v730h128v-730z" />
    <glyph glyph-name="m" unicode="m" horiz-adv-x="866" 
d="M797 0h-128v314q0 43 -13 64.5t-46 21.5q-44 0 -79 -46t-35 -116v-238h-126v315q0 41 -12.5 63t-46.5 22q-45 0 -79.5 -47t-34.5 -115v-238h-128v497h121q0 -50 -7 -89l2 -1q23 46 66 73t98 27q112 0 137 -99q20 41 62 70t100 29q149 0 149 -165v-342z" />
    <glyph glyph-name="n" unicode="n" horiz-adv-x="571" 
d="M501 0h-127v318q0 41 -13.5 61.5t-47.5 20.5q-48 0 -82 -47t-34 -113v-240h-128v497h121q0 -53 -7 -89h1q23 45 66.5 72t102.5 27q148 0 148 -158v-349z" />
    <glyph glyph-name="o" unicode="o" horiz-adv-x="553" 
d="M519 258q0 -117 -71 -192.5t-183 -75.5q-110 0 -171 61t-61 189q0 117 70.5 192t183.5 75q109 0 170.5 -62t61.5 -187zM387 251q0 148 -109 148q-47 0 -80 -37t-33 -109q0 -154 111 -154q49 0 80 39.5t31 112.5z" />
    <glyph glyph-name="p" unicode="p" horiz-adv-x="559" 
d="M523 275q0 -132 -67.5 -207t-194.5 -75q-36 0 -64 4v-238h-128v738h119q0 -51 -5 -83h2q45 93 156 93q88 0 135 -60.5t47 -171.5zM389 261q0 141 -85 141q-48 0 -77.5 -48t-29.5 -115v-138q30 -9 67 -9q125 0 125 169z" />
    <glyph glyph-name="q" unicode="q" horiz-adv-x="559" 
d="M489 -241h-127v225q0 59 7 96l-2 1q-20 -43 -59 -67.5t-88 -24.5q-90 0 -137 59.5t-47 173.5q0 129 71 206.5t200 77.5q92 0 182 -15v-732zM362 260v138q-37 7 -67 7q-125 0 -125 -169q0 -141 84 -141q49 0 78.5 48.5t29.5 116.5z" />
    <glyph glyph-name="r" unicode="r" horiz-adv-x="355" 
d="M341 507l-6 -125q-69 14 -103.5 -31t-34.5 -148v-203h-128v497h121q0 -47 -9 -100h2q46 120 158 110z" />
    <glyph glyph-name="s" unicode="s" horiz-adv-x="417" 
d="M378 155q0 -74 -60 -119.5t-159 -45.5q-65 0 -111 13l9 107q46 -20 106 -20q36 0 58 14.5t22 38.5t-21 38.5t-50.5 24t-59 23t-50.5 43.5t-21 77q0 70 53.5 114.5t156.5 44.5q44 0 91 -10l-6 -100q-44 13 -90 13q-73 0 -73 -51q0 -23 21 -37.5t51.5 -24.5t60.5 -24
t51 -44t21 -75z" />
    <glyph glyph-name="t" unicode="t" horiz-adv-x="375" 
d="M344 4q-56 -14 -108 -14q-82 0 -113 34t-31 122v252h-86v99h86v153l127 34v-187h121v-99h-121v-218q0 -47 13 -64.5t46 -17.5t57 7z" />
    <glyph glyph-name="u" unicode="u" horiz-adv-x="570" 
d="M501 0h-120q0 58 6 89h-1q-51 -99 -169 -99q-148 0 -148 158v349h127v-318q0 -41 14 -61.5t48 -20.5q48 0 81.5 47t33.5 113v240h128v-497z" />
    <glyph glyph-name="v" unicode="v" horiz-adv-x="506" 
d="M503 497l-186 -497h-130l-184 497h140l79 -224q19 -55 33 -110h2q15 63 30 106l80 228h136z" />
    <glyph glyph-name="w" unicode="w" horiz-adv-x="796" 
d="M786 497l-156 -497h-139l-72 221q-12 39 -28 111h-1q-12 -57 -34 -125l-63 -207h-132l-152 497h140l53 -188q33 -123 39 -150h1q13 72 36 144l60 194h123l61 -188q27 -84 40 -150h2q16 83 35 144l56 194h131z" />
    <glyph glyph-name="x" unicode="x" horiz-adv-x="528" 
d="M517 0h-161l-96 167l-96 -167h-153l171 251l-161 246h153l96 -164l97 164h141l-155 -245z" />
    <glyph glyph-name="y" unicode="y" horiz-adv-x="502" 
d="M499 497l-197 -525q-47 -125 -104 -173t-146 -48q-37 0 -70 7l15 110q32 -10 63 -10q79 0 114 98l15 44l-183 497h142l67 -190q18 -53 39 -137h1q16 67 48 158l59 169h137z" />
    <glyph glyph-name="z" unicode="z" horiz-adv-x="450" 
d="M403 0h-358v91l200 294q-38 -2 -106 -2h-88v114h348v-91l-196 -290q21 1 113 1h87v-117z" />
    <glyph glyph-name="braceleft" unicode="{" horiz-adv-x="362" 
d="M330 -205h-21q-97 0 -139.5 53t-42.5 170v135q0 60 -23.5 84.5t-76.5 27.5v96q54 3 77 25.5t23 82.5v87q0 112 42.5 166.5t139.5 54.5h21v-101q-49 0 -66.5 -23.5t-17.5 -94.5v-86q0 -142 -92 -158v-1q92 -15 92 -162v-134q0 -72 17.5 -95.5t66.5 -23.5v-103z" />
    <glyph glyph-name="bar" unicode="|" horiz-adv-x="288" 
d="M193 -241h-102v1000h102v-1000z" />
    <glyph glyph-name="braceright" unicode="}" horiz-adv-x="360" 
d="M338 265q-52 -3 -76 -27.5t-24 -84.5v-135q0 -117 -42.5 -170t-138.5 -53h-22v103q50 0 67.5 23.5t17.5 95.5v134q0 147 92 162v1q-92 13 -92 155v89q0 71 -17.5 94.5t-67.5 23.5v101h22q97 0 139 -54.5t42 -166.5v-84q0 -62 23 -85t77 -26v-96z" />
    <glyph glyph-name="asciitilde" unicode="~" 
d="M508 566q0 -73 -40.5 -116.5t-109.5 -43.5q-32 0 -56 10.5t-38.5 26t-26 31t-25 26t-28.5 10.5q-45 0 -47 -80h-95v18q0 72 41 116t110 44q32 0 56 -11t38.5 -26t26 -30.5t25 -26.5t28.5 -11q45 0 47 81h94v-18z" />
    <glyph glyph-name="nbspace" unicode="&#xa0;" horiz-adv-x="218" 
 />
    <glyph glyph-name="exclamdown" unicode="&#xa1;" horiz-adv-x="321" 
d="M231 432q0 -32 -22.5 -54t-55.5 -22t-55.5 22t-22.5 54t22.5 54t55.5 22t55.5 -22t22.5 -54zM227 -211h-150l19 520h110z" />
    <glyph glyph-name="cent" unicode="&#xa2;" 
d="M474 128q-50 -24 -110 -30v-98h-96v98q-95 10 -145 70t-50 158q0 93 51 155.5t144 81.5v87h96v-83q53 -3 103 -21l-26 -103q-47 22 -102 22q-61 0 -96.5 -34.5t-35.5 -98.5q0 -60 34.5 -94t97.5 -34q58 0 105 26z" />
    <glyph glyph-name="sterling" unicode="&#xa3;" 
d="M490 0h-422v87q80 65 80 136q0 23 -5 51h-95v99h82q-8 58 -8 85q0 203 221 203q59 0 123 -16l-27 -107q-53 19 -103 19q-85 0 -85 -88q0 -24 9 -96h151v-99h-139q4 -21 4 -47q0 -68 -57 -119q42 2 73 2h198v-110z" />
    <glyph glyph-name="currency" unicode="&#xa4;" 
d="M515 118l-98 -71l-77 103q-35 -16 -74 -16q-26 0 -55 9l-69 -95l-99 70l68 85q-34 49 -34 123q0 73 39 123l-72 92l97 69l71 -97q32 13 72 13q36 0 64 -11l70 96l97 -71l-71 -89q29 -44 29 -115q0 -69 -37 -119zM361 334q0 99 -87 99q-36 0 -60.5 -27t-24.5 -75
q0 -47 21 -75.5t65 -28.5q36 0 61 27.5t25 79.5z" />
    <glyph glyph-name="yen" unicode="&#xa5;" 
d="M531 650l-161 -330h124v-82h-155v-59h155v-81h-155v-98h-129v98h-155v81h155v59h-155v82h124l-159 330h141l75 -167q20 -49 39 -101h1q18 49 43 104l74 164h138z" />
    <glyph glyph-name="brokenbar" unicode="&#xa6;" horiz-adv-x="288" 
d="M193 391h-102v368h102v-368zM193 -241h-102v378h102v-378z" />
    <glyph glyph-name="section" unicode="&#xa7;" horiz-adv-x="530" 
d="M458 247q0 -86 -77 -145q37 -47 37 -104q0 -69 -55.5 -117t-169.5 -48q-46 0 -83 10l8 107q40 -12 77 -12q42 0 64 17t22 44q0 25 -23 51t-55.5 52t-64.5 56t-55 73.5t-23 93.5q0 88 76 145q-37 46 -37 104q0 72 51.5 118t158.5 46q49 0 82 -8l-7 -106q-34 10 -71 10
q-77 0 -77 -56q0 -23 23 -50t55.5 -54t65 -58.5t55.5 -75.5t23 -93zM342 230q0 19 -6 36t-21.5 35.5t-27.5 30.5t-38.5 36.5t-40.5 37.5q-32 -25 -32 -64q0 -28 18 -56.5t40.5 -50.5t75.5 -68q32 23 32 63z" />
    <glyph glyph-name="dieresis" unicode="&#xa8;" horiz-adv-x="546" 
d="M434 648q0 -28 -20 -48.5t-49 -20.5t-49 20.5t-20 48.5q0 29 20 49t49 20t49 -20t20 -49zM232 648q0 -28 -20 -48.5t-49 -20.5t-49 20.5t-20 48.5q0 29 20 49t49 20t49 -20t20 -49z" />
    <glyph glyph-name="copyright" unicode="&#xa9;" horiz-adv-x="762" 
d="M722 334q0 -142 -100 -242t-242 -100q-144 0 -243 99.5t-99 241.5t100 242t242 100t242 -99.5t100 -241.5zM625 333q0 102 -71.5 174.5t-173.5 72.5t-174 -72t-72 -174t72 -174.5t174 -72.5t173.5 72t71.5 174zM480 177q-43 -20 -102 -20q-76 0 -118.5 46.5t-42.5 126.5
q0 79 44.5 130.5t131.5 51.5q45 0 82 -15l-14 -85q-26 17 -63 17q-75 0 -75 -97q0 -87 70 -87q41 0 70 14z" />
    <glyph glyph-name="ordfeminine" unicode="&#xaa;" horiz-adv-x="403" 
d="M341 325h-97q0 28 4 49l-1 1q-11 -25 -39.5 -42t-61.5 -17q-53 0 -79.5 26.5t-26.5 70.5q0 64 55 97t144 32v15q0 47 -58 47q-54 0 -110 -27l-9 86q61 22 135 22q77 0 110 -32.5t33 -83.5v-159q0 -61 1 -85zM361 176h-311v99h311v-99zM239 467v10q-103 0 -103 -50
q0 -14 10 -23t27 -9q30 0 48 24t18 48z" />
    <glyph glyph-name="guillemotleft" unicode="&#xab;" horiz-adv-x="534" 
d="M477 150l-100 -47l-118 189l120 192l96 -46l-92 -145zM252 144l-103 -46l-107 194l110 197l98 -45l-85 -151z" />
    <glyph glyph-name="logicalnot" unicode="&#xac;" 
d="M489 95h-113v149h-337v107h450v-256z" />
    <glyph glyph-name="registered" unicode="&#xae;" horiz-adv-x="564" 
d="M516 530q0 -96 -69 -163t-165 -67q-98 0 -166 66.5t-68 163.5q0 96 68.5 163.5t165.5 67.5q98 0 166 -66.5t68 -164.5zM438 530q0 65 -46 111.5t-110 46.5q-65 0 -111 -46t-46 -111t46 -111.5t111 -46.5t110.5 46t45.5 111zM377 420h-72l-38 85h-7v-85h-60v223h93
q79 0 79 -62q0 -50 -45 -63q9 -10 17 -27zM306 573q0 24 -30 24h-16v-51h11q35 0 35 27z" />
    <glyph glyph-name="macron" unicode="&#xaf;" horiz-adv-x="395" 
d="M332 600h-269v92h269v-92z" />
    <glyph glyph-name="degree" unicode="&#xb0;" horiz-adv-x="388" 
d="M340 600q0 -66 -45.5 -104t-108.5 -38q-67 0 -105.5 37.5t-38.5 101.5q0 63 46 102t105 39q74 0 110.5 -39t36.5 -99zM245 600q0 23 -13.5 40.5t-39.5 17.5q-24 0 -39.5 -16.5t-15.5 -43.5t15 -43t39 -16q25 0 39.5 17t14.5 44z" />
    <glyph glyph-name="plusminus" unicode="&#xb1;" 
d="M511 346h-175v-183h-122v183h-175v106h175v182h122v-182h175v-106zM507 0h-464v107h464v-107z" />
    <glyph glyph-name="twosuperior" unicode="&#xb2;" horiz-adv-x="322" 
d="M277 354h-235v70l58 49q56 47 56 74q0 33 -38 33q-28 0 -55 -17l-18 76q55 21 102 21q63 0 92.5 -26.5t29.5 -66.5q0 -50 -66 -106l-33 -28h107v-79z" />
    <glyph glyph-name="threesuperior" unicode="&#xb3;" horiz-adv-x="312" 
d="M268 443q0 -48 -39 -73.5t-114 -25.5q-34 0 -74 8l10 65q23 -7 52 -7q53 0 53 32q0 43 -94 30v59h14q74 0 74 36q0 28 -39 28q-30 0 -54 -13l-13 62q39 16 95 16q61 0 89 -23t28 -57q0 -51 -45 -72q26 -3 41.5 -22t15.5 -43z" />
    <glyph glyph-name="acute" unicode="&#xb4;" horiz-adv-x="393" 
d="M317 668l-181 -108l-47 69l169 125z" />
    <glyph glyph-name="mu" unicode="&#xb5;" horiz-adv-x="634" 
d="M621 62q-44 -72 -132 -72q-50 0 -70.5 27t-19.5 67h-1q-18 -42 -54.5 -66.5t-84.5 -24.5q-42 0 -68 20l19 -254h-134v738h127v-314q0 -43 15 -64.5t51 -21.5q47 0 79 43.5t32 108.5v248h128v-335q0 -45 5.5 -59.5t21.5 -14.5q21 0 40 30z" />
    <glyph glyph-name="paragraph" unicode="&#xb6;" horiz-adv-x="595" 
d="M544 573h-65v-669h-179v102h70v669h174v-102zM292 231q-117 -1 -177 62t-60 161q0 100 65.5 160.5t171.5 60.5v-444z" />
    <glyph glyph-name="periodcentered" unicode="&#xb7;" horiz-adv-x="269" 
d="M218 298q0 -34 -24.5 -58.5t-58.5 -24.5q-35 0 -59 24.5t-24 58.5t24.5 58t58.5 24t58.5 -24t24.5 -58z" />
    <glyph glyph-name="cedilla" unicode="&#xb8;" horiz-adv-x="400" 
d="M256 -40q72 -99 -20 -194h-96q38 45 41 79.5t-31 81.5z" />
    <glyph glyph-name="onesuperior" unicode="&#xb9;" horiz-adv-x="317" 
d="M228 354h-104v215l-65 -28l-19 73l92 36h96v-296z" />
    <glyph glyph-name="ordmasculine" unicode="&#xba;" horiz-adv-x="426" 
d="M385 506q0 -85 -51.5 -137t-131.5 -52q-74 0 -119 44t-45 138q0 84 51.5 135.5t128.5 51.5t122 -43t45 -137zM371 176h-318v99h318v-99zM281 504q0 92 -69 92q-29 0 -49.5 -23t-20.5 -71q0 -96 67 -96q32 0 52 23.5t20 74.5z" />
    <glyph glyph-name="guillemotright" unicode="&#xbb;" horiz-adv-x="534" 
d="M492 295l-110 -197l-99 45l86 151l-87 149l103 46zM275 295l-121 -192l-96 46l93 145l-94 143l100 47z" />
    <glyph glyph-name="onequarter" unicode="&#xbc;" horiz-adv-x="725" 
d="M539 119v117l-67 -117h67zM676 49h-46v-49h-91v49h-141l-6 65l102 182h136v-176h46v-71zM636 613l-501 -635l-81 57l501 635zM228 354h-104v215l-65 -28l-19 73l92 36h96v-296z" />
    <glyph glyph-name="onehalf" unicode="&#xbd;" horiz-adv-x="727" 
d="M672 0h-235v70l58 49q56 47 56 74q0 33 -38 33q-30 0 -55 -17l-18 76q51 21 103 21q62 0 91.5 -26.5t29.5 -66.5q0 -50 -66 -106l-33 -28h107v-79zM635 613l-501 -635l-80 57l501 635zM227 354h-103v215l-66 -28l-19 73l92 36h96v-296z" />
    <glyph glyph-name="threequarters" unicode="&#xbe;" horiz-adv-x="730" 
d="M544 119v117l-67 -117h67zM681 49h-46v-49h-91v49h-141l-6 65l102 182h136v-176h46v-71zM641 613l-502 -635l-80 57l501 635zM272 443q0 -48 -39 -73.5t-113 -25.5q-44 0 -74 8l10 65q26 -8 52 -8q52 0 52 33q0 43 -94 30v59h14q74 0 74 36q0 28 -38 28q-30 0 -54 -13
l-13 62q39 16 95 16q60 0 88.5 -23t28.5 -57q0 -50 -46 -72q26 -3 41.5 -22t15.5 -43z" />
    <glyph glyph-name="questiondown" unicode="&#xbf;" horiz-adv-x="451" 
d="M336 432q0 -32 -22.5 -54t-55.5 -22t-55.5 22t-22.5 54t22.5 54t55.5 22t55.5 -22t22.5 -54zM384 -104l-16 -116q-156 4 -238.5 62.5t-82.5 141.5q0 39 14.5 71.5t35 52t43.5 42t39.5 41.5t23 50t-5.5 68h125q16 -45 12 -81.5t-19 -60.5t-36.5 -46.5t-42 -39t-35 -38.5
t-14.5 -45q0 -45 52.5 -72t144.5 -30z" />
    <glyph glyph-name="Agrave" unicode="&#xc0;" horiz-adv-x="626" 
d="M372 786l-21 -70l-215 53l29 92zM625 0h-144l-47 138h-255l-47 -138h-131l236 675h147zM401 241l-67 192q-17 45 -28 93h-1q-19 -70 -27 -93l-67 -192h190z" />
    <glyph glyph-name="Aacute" unicode="&#xc1;" horiz-adv-x="626" 
d="M462 769l-215 -53l-21 70l207 75zM625 0h-144l-47 138h-255l-47 -138h-131l236 675h147zM401 241l-67 192q-17 45 -28 93h-1q-19 -70 -27 -93l-67 -192h190z" />
    <glyph glyph-name="Acircumflex" unicode="&#xc2;" horiz-adv-x="626" 
d="M474 779l-30 -64l-137 60l-135 -60l-29 62l165 87zM625 0h-144l-47 138h-255l-47 -138h-131l236 675h147zM401 241l-67 192q-17 45 -28 93h-1q-19 -70 -27 -93l-67 -192h190z" />
    <glyph glyph-name="Atilde" unicode="&#xc3;" horiz-adv-x="626" 
d="M491 810q-46 -82 -125 -82q-38 0 -75 23.5t-53 23.5q-34 0 -58 -43l-63 44q46 82 125 82q38 0 75 -23.5t53 -23.5q32 0 58 42zM625 0h-144l-47 138h-255l-47 -138h-131l236 675h147zM401 241l-67 192q-17 45 -28 93h-1q-19 -70 -27 -93l-67 -192h190z" />
    <glyph glyph-name="Adieresis" unicode="&#xc4;" horiz-adv-x="626" 
d="M476 786q0 -25 -18 -43t-44 -18t-43.5 17.5t-17.5 43.5t18 44t43 18q26 0 44 -18t18 -44zM260 786q0 -26 -18 -43.5t-43 -17.5q-26 0 -44 18t-18 43q0 26 18.5 44t43.5 18t43 -18t18 -44zM625 0h-144l-47 138h-255l-47 -138h-131l236 675h147zM401 241l-67 192
q-17 45 -28 93h-1q-19 -70 -27 -93l-67 -192h190z" />
    <glyph glyph-name="Aring" unicode="&#xc5;" horiz-adv-x="626" 
d="M625 0h-144l-47 138h-255l-47 -138h-131l224 639q-41 30 -41 84q0 52 37 86.5t90 34.5q54 0 90.5 -34.5t36.5 -86.5q0 -54 -41 -85zM364 723q0 22 -15.5 37.5t-37.5 15.5t-37 -15.5t-15 -37.5t15 -37.5t37 -15.5t37.5 15.5t15.5 37.5zM400 241l-63 178q-17 45 -31 106h-1
q-13 -56 -32 -111l-61 -173h188z" />
    <glyph glyph-name="AE" unicode="&#xc6;" horiz-adv-x="785" 
d="M729 0h-365v149h-197l-72 -149h-133l334 675h426v-109h-233v-166h225v-106h-225v-183h240v-111zM364 251v315h-2q-31 -78 -62 -141l-89 -174h153z" />
    <glyph glyph-name="Ccedilla" unicode="&#xc7;" horiz-adv-x="566" 
d="M526 23q-82 -31 -176 -31q-85 0 -147.5 26.5t-97.5 73t-51 102.5t-16 122q0 166 86.5 265.5t251.5 99.5q76 0 144 -20l-18 -119q-63 23 -133 23q-92 0 -140 -62t-48 -165q0 -228 197 -228q70 0 128 28zM362 -40q72 -99 -20 -194h-96q38 45 41 79.5t-31 81.5z" />
    <glyph glyph-name="Egrave" unicode="&#xc8;" horiz-adv-x="493" 
d="M330 786l-21 -70l-216 53l29 92zM437 0h-367v675h367v-109h-237v-166h225v-106h-225v-183h237v-111z" />
    <glyph glyph-name="Eacute" unicode="&#xc9;" horiz-adv-x="493" 
d="M419 769l-215 -53l-21 70l207 75zM437 0h-367v675h367v-109h-237v-166h225v-106h-225v-183h237v-111z" />
    <glyph glyph-name="Ecircumflex" unicode="&#xca;" horiz-adv-x="493" 
d="M416 779l-31 -64l-136 60l-135 -60l-29 62l165 87zM437 0h-367v675h367v-109h-237v-166h225v-106h-225v-183h237v-111z" />
    <glyph glyph-name="Edieresis" unicode="&#xcb;" horiz-adv-x="493" 
d="M418 786q0 -26 -18 -43.5t-43 -17.5q-26 0 -44 18t-18 43q0 26 18.5 44t43.5 18t43 -18t18 -44zM203 786q0 -25 -18 -43t-44 -18q-25 0 -43 17.5t-18 43.5t18 44t43 18t43.5 -18t18.5 -44zM437 0h-367v675h367v-109h-237v-166h225v-106h-225v-183h237v-111z" />
    <glyph glyph-name="Igrave" unicode="&#xcc;" horiz-adv-x="270" 
d="M222 786l-21 -70l-216 53l30 92zM200 0h-130v675h130v-675z" />
    <glyph glyph-name="Iacute" unicode="&#xcd;" horiz-adv-x="270" 
d="M281 769l-216 -53l-21 70l207 75zM200 0h-130v675h130v-675z" />
    <glyph glyph-name="Icircumflex" unicode="&#xce;" horiz-adv-x="270" 
d="M301 779l-30 -64l-137 60l-135 -60l-29 62l165 87zM200 0h-130v675h130v-675z" />
    <glyph glyph-name="Idieresis" unicode="&#xcf;" horiz-adv-x="270" 
d="M303 786q0 -25 -18 -43t-44 -18q-25 0 -43 17.5t-18 43.5t18 44t43 18t43.5 -18t18.5 -44zM87 786q0 -26 -17.5 -43.5t-43.5 -17.5t-44 18t-18 43q0 26 18 44t44 18q25 0 43 -18t18 -44zM200 0h-130v675h130v-675z" />
    <glyph glyph-name="Eth" unicode="&#xd0;" horiz-adv-x="675" 
d="M637 348q0 -170 -100.5 -261t-271.5 -91q-43 0 -186 5v293h-77v98h77v282q132 5 218 5q340 0 340 -331zM498 339q0 113 -50 172t-161 59q-47 0 -79 -3v-175h120v-98h-120v-183q32 -4 71 -4q100 0 159.5 58t59.5 174z" />
    <glyph glyph-name="Ntilde" unicode="&#xd1;" horiz-adv-x="699" 
d="M527 810q-46 -82 -125 -82q-38 0 -75 23.5t-53 23.5q-34 0 -58 -43l-63 44q46 82 125 82q38 0 75 -23.5t53 -23.5q33 0 58 42zM629 0h-168l-198 341q-35 62 -73 145q6 -87 6 -245v-241h-126v675h169l188 -322q28 -48 83 -159q-7 95 -7 271v210h126v-675z" />
    <glyph glyph-name="Ograve" unicode="&#xd2;" horiz-adv-x="703" 
d="M437 786l-21 -70l-215 53l29 92zM670 347q0 -163 -94.5 -260.5t-235.5 -97.5q-151 0 -229 90t-78 250q0 163 95 260t235 97q141 0 224 -85.5t83 -253.5zM531 337q0 112 -46.5 172t-133.5 60q-75 0 -127 -59t-52 -167q0 -111 44.5 -173.5t132.5 -62.5q74 0 128 58.5
t54 171.5z" />
    <glyph glyph-name="Oacute" unicode="&#xd3;" horiz-adv-x="703" 
d="M514 769l-216 -53l-21 70l207 75zM670 347q0 -163 -94.5 -260.5t-235.5 -97.5q-151 0 -229 90t-78 250q0 163 95 260t235 97q141 0 224 -85.5t83 -253.5zM531 337q0 112 -46.5 172t-133.5 60q-75 0 -127 -59t-52 -167q0 -111 44.5 -173.5t132.5 -62.5q74 0 128 58.5
t54 171.5z" />
    <glyph glyph-name="Ocircumflex" unicode="&#xd4;" horiz-adv-x="703" 
d="M530 779l-31 -64l-137 60l-135 -60l-29 62l165 87zM670 347q0 -163 -94.5 -260.5t-235.5 -97.5q-151 0 -229 90t-78 250q0 163 95 260t235 97q141 0 224 -85.5t83 -253.5zM531 337q0 112 -46.5 172t-133.5 60q-75 0 -127 -59t-52 -167q0 -111 44.5 -173.5t132.5 -62.5
q74 0 128 58.5t54 171.5z" />
    <glyph glyph-name="Otilde" unicode="&#xd5;" horiz-adv-x="703" 
d="M535 810q-46 -82 -126 -82q-38 0 -74.5 23.5t-52.5 23.5q-34 0 -58 -43l-64 44q46 82 126 82q38 0 75 -23.5t53 -23.5q32 0 58 42zM670 347q0 -163 -94.5 -260.5t-235.5 -97.5q-151 0 -229 90t-78 250q0 163 95 260t235 97q141 0 224 -85.5t83 -253.5zM531 337
q0 112 -46.5 172t-133.5 60q-75 0 -127 -59t-52 -167q0 -111 44.5 -173.5t132.5 -62.5q74 0 128 58.5t54 171.5z" />
    <glyph glyph-name="Odieresis" unicode="&#xd6;" horiz-adv-x="703" 
d="M525 786q0 -25 -18 -43t-44 -18q-25 0 -43 17.5t-18 43.5t18 44t43 18t43.5 -18t18.5 -44zM309 786q0 -26 -17.5 -43.5t-43.5 -17.5t-44 18t-18 43q0 26 18 44t44 18q25 0 43 -18t18 -44zM670 347q0 -163 -94.5 -260.5t-235.5 -97.5q-151 0 -229 90t-78 250q0 163 95 260
t235 97q141 0 224 -85.5t83 -253.5zM531 337q0 112 -46.5 172t-133.5 60q-75 0 -127 -59t-52 -167q0 -111 44.5 -173.5t132.5 -62.5q74 0 128 58.5t54 171.5z" />
    <glyph glyph-name="multiply" unicode="&#xd7;" 
d="M503 147l-78 -78l-154 154l-154 -154l-70 70l154 154l-154 154l78 78l154 -154l154 154l70 -70l-154 -154z" />
    <glyph glyph-name="Oslash" unicode="&#xd8;" horiz-adv-x="703" 
d="M670 345q0 -163 -93.5 -259.5t-237.5 -96.5q-37 0 -60 5l-35 -99l-95 30l34 97q-150 76 -150 308q0 162 94 259t235 97q29 0 52 -4l33 94l95 -30l-32 -90q160 -74 160 -311zM536 336q0 140 -69 193l-151 -421q23 -6 49 -4q74 6 122.5 65.5t48.5 166.5zM377 568
q-24 4 -57 -1q-67 -10 -110 -68.5t-43 -156.5q0 -136 61 -188z" />
    <glyph glyph-name="Ugrave" unicode="&#xd9;" horiz-adv-x="681" 
d="M413 786l-21 -70l-216 53l30 92zM611 262q0 -136 -72 -204.5t-208 -68.5q-77 0 -130 19.5t-80.5 55.5t-39 76.5t-11.5 93.5v441h130v-433q0 -70 30.5 -107.5t109.5 -37.5q76 0 109 36t33 121v421h129v-413z" />
    <glyph glyph-name="Uacute" unicode="&#xda;" horiz-adv-x="681" 
d="M505 769l-215 -53l-21 70l207 75zM611 262q0 -136 -72 -204.5t-208 -68.5q-77 0 -130 19.5t-80.5 55.5t-39 76.5t-11.5 93.5v441h130v-433q0 -70 30.5 -107.5t109.5 -37.5q76 0 109 36t33 121v421h129v-413z" />
    <glyph glyph-name="Ucircumflex" unicode="&#xdb;" horiz-adv-x="681" 
d="M507 779l-31 -64l-136 60l-135 -60l-29 62l165 87zM611 262q0 -136 -72 -204.5t-208 -68.5q-77 0 -130 19.5t-80.5 55.5t-39 76.5t-11.5 93.5v441h130v-433q0 -70 30.5 -107.5t109.5 -37.5q76 0 109 36t33 121v421h129v-413z" />
    <glyph glyph-name="Udieresis" unicode="&#xdc;" horiz-adv-x="681" 
d="M504 786q0 -25 -18 -43t-44 -18t-43.5 17.5t-17.5 43.5t18 44t43 18q26 0 44 -18t18 -44zM288 786q0 -26 -18 -43.5t-43 -17.5q-26 0 -44 18t-18 43q0 26 18.5 44t43.5 18t43 -18t18 -44zM611 262q0 -136 -72 -204.5t-208 -68.5q-77 0 -130 19.5t-80.5 55.5t-39 76.5
t-11.5 93.5v441h130v-433q0 -70 30.5 -107.5t109.5 -37.5q76 0 109 36t33 121v421h129v-413z" />
    <glyph glyph-name="Yacute" unicode="&#xdd;" horiz-adv-x="561" 
d="M444 769l-216 -53l-21 70l207 75zM559 675l-215 -436v-239h-130v238l-211 437h142l89 -194q25 -56 46 -112h2q14 39 54 125l85 181h138z" />
    <glyph glyph-name="Thorn" unicode="&#xde;" horiz-adv-x="544" 
d="M528 365q0 -106 -76 -173.5t-202 -67.5q-34 0 -50 2v-126h-130v675h130v-94q44 2 73 2q121 0 188 -55.5t67 -162.5zM394 357q0 55 -34 87.5t-106 32.5q-16 0 -54 -4v-239q23 -4 58 -4q62 0 99 33t37 94z" />
    <glyph glyph-name="germandbls" unicode="&#xdf;" horiz-adv-x="607" 
d="M576 157q0 -76 -57 -122t-150 -46q-67 0 -106 14l7 105q45 -20 91 -20q42 0 62.5 16t20.5 40t-18.5 42t-44.5 32.5t-52 32t-44.5 49t-18.5 74.5q0 32 11.5 57.5t28 41.5t33.5 31t28.5 34t11.5 42q0 28 -20 43t-55 15q-107 0 -107 -138v-500h-128v494q0 125 66.5 184
t173.5 59q93 0 148 -39.5t55 -108.5q0 -36 -12 -62.5t-29 -42t-34 -28.5t-29 -29.5t-12 -37.5q0 -23 18.5 -41.5t45 -33.5t53 -33.5t45 -50t18.5 -73.5z" />
    <glyph glyph-name="agrave" unicode="&#xe0;" horiz-adv-x="524" 
d="M456 0h-121q0 52 5 84l-1 1q-18 -43 -61 -69t-98 -26q-66 0 -104 40t-38 102q0 86 76.5 130t210.5 44v25q0 40 -22.5 59.5t-74.5 19.5q-70 0 -140 -35l-23 101q84 32 185 32q112 0 157.5 -42.5t45.5 -125.5v-212q0 -66 3 -128zM325 208v15q-165 0 -165 -77
q0 -25 16 -41.5t43 -16.5q46 0 76 36.5t30 83.5zM352 629l-48 -69l-181 108l59 86z" />
    <glyph glyph-name="aacute" unicode="&#xe1;" horiz-adv-x="524" 
d="M456 0h-121q0 52 5 84l-1 1q-18 -43 -61 -69t-98 -26q-66 0 -104 40t-38 102q0 86 76.5 130t210.5 44v25q0 40 -22.5 59.5t-74.5 19.5q-70 0 -140 -35l-23 101q84 32 185 32q112 0 157.5 -42.5t45.5 -125.5v-212q0 -66 3 -128zM325 208v15q-165 0 -165 -77
q0 -25 16 -41.5t43 -16.5q46 0 76 36.5t30 83.5zM404 668l-181 -108l-47 69l169 125z" />
    <glyph glyph-name="acircumflex" unicode="&#xe2;" horiz-adv-x="524" 
d="M456 0h-121q0 52 5 84l-1 1q-18 -43 -61 -69t-98 -26q-66 0 -104 40t-38 102q0 86 76.5 130t210.5 44v25q0 40 -22.5 59.5t-74.5 19.5q-70 0 -140 -35l-23 101q84 32 185 32q112 0 157.5 -42.5t45.5 -125.5v-212q0 -66 3 -128zM325 208v15q-165 0 -165 -77
q0 -25 16 -41.5t43 -16.5q46 0 76 36.5t30 83.5zM414 619l-50 -59l-104 81l-103 -81l-49 58l153 136z" />
    <glyph glyph-name="atilde" unicode="&#xe3;" horiz-adv-x="524" 
d="M456 0h-121q0 52 5 84l-1 1q-18 -43 -61 -69t-98 -26q-66 0 -104 40t-38 102q0 86 76.5 130t210.5 44v25q0 40 -22.5 59.5t-74.5 19.5q-70 0 -140 -35l-23 101q84 32 185 32q112 0 157.5 -42.5t45.5 -125.5v-212q0 -66 3 -128zM325 208v15q-165 0 -165 -77
q0 -25 16 -41.5t43 -16.5q46 0 76 36.5t30 83.5zM431 669q-45 -89 -122 -89q-37 0 -72 25t-51 25q-31 0 -55 -45l-61 47q44 89 122 89q36 0 71 -25t51 -25q32 0 56 45z" />
    <glyph glyph-name="adieresis" unicode="&#xe4;" horiz-adv-x="524" 
d="M456 0h-121q0 52 5 84l-1 1q-18 -43 -61 -69t-98 -26q-66 0 -104 40t-38 102q0 86 76.5 130t210.5 44v25q0 40 -22.5 59.5t-74.5 19.5q-70 0 -140 -35l-23 101q84 32 185 32q112 0 157.5 -42.5t45.5 -125.5v-212q0 -66 3 -128zM325 208v15q-165 0 -165 -77
q0 -25 16 -41.5t43 -16.5q46 0 76 36.5t30 83.5zM430 648q0 -28 -20 -48.5t-49 -20.5t-49 20.5t-20 48.5q0 29 20 49t49 20t49 -20t20 -49zM228 648q0 -28 -20 -48.5t-49 -20.5t-49 20.5t-20 48.5q0 29 20 49t49 20t49 -20t20 -49z" />
    <glyph glyph-name="aring" unicode="&#xe5;" horiz-adv-x="524" 
d="M456 0h-121q0 52 5 84l-1 1q-18 -43 -61 -69t-98 -26q-66 0 -104 40t-38 102q0 86 76.5 130t210.5 44v25q0 40 -22.5 59.5t-74.5 19.5q-70 0 -140 -35l-23 101q84 32 185 32q112 0 157.5 -42.5t45.5 -125.5v-212q0 -66 3 -128zM325 208v15q-165 0 -165 -77
q0 -25 16 -41.5t43 -16.5q46 0 76 36.5t30 83.5zM387 667q0 -51 -37 -86.5t-90 -35.5q-54 0 -90.5 34.5t-36.5 87.5q0 52 37 86.5t90 34.5q54 0 90.5 -34.5t36.5 -86.5zM312 667q0 22 -15 37.5t-37 15.5t-37.5 -15.5t-15.5 -37.5t15.5 -37.5t37.5 -15.5t37 15.5t15 37.5z
" />
    <glyph glyph-name="ae" unicode="&#xe6;" horiz-adv-x="800" 
d="M762 286q0 -30 -4 -59h-308q-1 -137 137 -137q75 0 144 30l14 -97q-81 -33 -180 -33q-78 0 -129 27t-71 74h-1q-24 -45 -71 -73t-111 -28q-67 0 -105.5 39.5t-38.5 102.5q0 86 76.5 130t210.5 44v25q0 40 -22.5 59.5t-74.5 19.5q-70 0 -140 -35l-23 101q84 32 185 32
q111 0 156 -62h1q52 62 146 62q104 0 156.5 -62t52.5 -160zM635 313q1 47 -22 74t-64 27q-40 0 -66 -27t-31 -74h183zM325 208v15q-165 0 -165 -77q0 -25 16 -41.5t43 -16.5q46 0 76 36.5t30 83.5z" />
    <glyph glyph-name="ccedilla" unicode="&#xe7;" horiz-adv-x="425" 
d="M398 14q-60 -23 -140 -23q-107 0 -165.5 59t-58.5 182q0 122 64.5 198t188.5 76q60 0 109 -17l-20 -110q-47 19 -93 19q-56 0 -85.5 -41t-29.5 -112q0 -144 116 -144q52 0 97 20zM273 -40q72 -99 -20 -194h-96q38 45 41 79.5t-31 81.5z" />
    <glyph glyph-name="egrave" unicode="&#xe8;" horiz-adv-x="514" 
d="M476 286q0 -30 -4 -59h-308q-1 -137 137 -137q73 0 144 30l14 -97q-81 -33 -180 -33q-245 0 -245 254q0 117 62 190.5t171 73.5q104 0 156.5 -62t52.5 -160zM349 313q1 47 -22 74t-64 27q-40 0 -66 -27t-31 -74h183zM359 629l-48 -69l-181 108l59 86z" />
    <glyph glyph-name="eacute" unicode="&#xe9;" horiz-adv-x="514" 
d="M476 286q0 -30 -4 -59h-308q-1 -137 137 -137q73 0 144 30l14 -97q-81 -33 -180 -33q-245 0 -245 254q0 117 62 190.5t171 73.5q104 0 156.5 -62t52.5 -160zM349 313q1 47 -22 74t-64 27q-40 0 -66 -27t-31 -74h183zM410 668l-181 -108l-47 69l169 125z" />
    <glyph glyph-name="ecircumflex" unicode="&#xea;" horiz-adv-x="514" 
d="M476 286q0 -30 -4 -59h-308q-1 -137 137 -137q73 0 144 30l14 -97q-81 -33 -180 -33q-245 0 -245 254q0 117 62 190.5t171 73.5q104 0 156.5 -62t52.5 -160zM349 313q1 47 -22 74t-64 27q-40 0 -66 -27t-31 -74h183zM415 619l-50 -59l-104 81l-103 -81l-49 58l153 136z
" />
    <glyph glyph-name="edieresis" unicode="&#xeb;" horiz-adv-x="514" 
d="M476 286q0 -30 -4 -59h-308q-1 -137 137 -137q73 0 144 30l14 -97q-81 -33 -180 -33q-245 0 -245 254q0 117 62 190.5t171 73.5q104 0 156.5 -62t52.5 -160zM349 313q1 47 -22 74t-64 27q-40 0 -66 -27t-31 -74h183zM437 648q0 -28 -20.5 -48.5t-48.5 -20.5t-48.5 20.5
t-20.5 48.5q0 29 20 49t49 20t49 -20t20 -49zM235 648q0 -28 -20.5 -48.5t-48.5 -20.5t-48.5 20.5t-20.5 48.5q0 29 20 49t49 20t49 -20t20 -49z" />
    <glyph glyph-name="igrave" unicode="&#xec;" horiz-adv-x="266" 
d="M197 0h-128v497h128v-497zM246 629l-48 -69l-181 108l59 86z" />
    <glyph glyph-name="iacute" unicode="&#xed;" horiz-adv-x="266" 
d="M197 0h-128v497h128v-497zM248 668l-181 -108l-47 69l169 125z" />
    <glyph glyph-name="icircumflex" unicode="&#xee;" horiz-adv-x="266" 
d="M197 0h-128v497h128v-497zM285 619l-50 -59l-104 81l-103 -81l-49 58l153 136z" />
    <glyph glyph-name="idieresis" unicode="&#xef;" horiz-adv-x="266" 
d="M197 0h-128v497h128v-497zM304 648q0 -28 -20 -48.5t-49 -20.5t-49 20.5t-20 48.5q0 29 20 49t49 20t49 -20t20 -49zM102 648q0 -28 -20 -48.5t-49 -20.5t-49 20.5t-20 48.5q0 29 20 49t49 20t49 -20t20 -49z" />
    <glyph glyph-name="eth" unicode="&#xf0;" horiz-adv-x="555" 
d="M518 278q0 -140 -70 -214t-179 -74q-108 0 -172 63t-64 187q0 118 68 191.5t173 73.5q56 0 79 -31q-5 10 -14.5 25t-10.5 16q-21 36 -53 69l-92 -41l-52 60l84 37q-29 25 -76 57l125 53q36 -27 69 -60l89 39l51 -60l-86 -37q131 -161 131 -354zM385 260q0 66 -27.5 102.5
t-81.5 36.5q-47 0 -78.5 -38t-31.5 -111t30 -112t83 -39q49 0 77.5 40t28.5 121z" />
    <glyph glyph-name="ntilde" unicode="&#xf1;" horiz-adv-x="571" 
d="M501 0h-127v318q0 41 -13.5 61.5t-47.5 20.5q-48 0 -82 -47t-34 -113v-240h-128v497h121q0 -53 -7 -89h1q23 45 66.5 72t102.5 27q148 0 148 -158v-349zM469 669q-45 -89 -122 -89q-28 0 -51 12.5t-40 25t-32 12.5q-31 0 -55 -45l-61 47q44 89 122 89q36 0 71 -25t51 -25
q32 0 56 45z" />
    <glyph glyph-name="ograve" unicode="&#xf2;" horiz-adv-x="553" 
d="M519 258q0 -117 -71 -192.5t-183 -75.5q-110 0 -171 61t-61 189q0 117 70.5 192t183.5 75q109 0 170.5 -62t61.5 -187zM387 251q0 148 -109 148q-47 0 -80 -37t-33 -109q0 -154 111 -154q49 0 80 39.5t31 112.5zM374 629l-48 -69l-181 108l59 86z" />
    <glyph glyph-name="oacute" unicode="&#xf3;" horiz-adv-x="553" 
d="M519 258q0 -117 -71 -192.5t-183 -75.5q-110 0 -171 61t-61 189q0 117 70.5 192t183.5 75q109 0 170.5 -62t61.5 -187zM387 251q0 148 -109 148q-47 0 -80 -37t-33 -109q0 -154 111 -154q49 0 80 39.5t31 112.5zM424 668l-181 -108l-47 69l169 125z" />
    <glyph glyph-name="ocircumflex" unicode="&#xf4;" horiz-adv-x="553" 
d="M519 258q0 -117 -71 -192.5t-183 -75.5q-110 0 -171 61t-61 189q0 117 70.5 192t183.5 75q109 0 170.5 -62t61.5 -187zM387 251q0 148 -109 148q-47 0 -80 -37t-33 -109q0 -154 111 -154q49 0 80 39.5t31 112.5zM433 619l-50 -59l-104 81l-103 -81l-49 58l153 136z" />
    <glyph glyph-name="otilde" unicode="&#xf5;" horiz-adv-x="553" 
d="M519 258q0 -117 -71 -192.5t-183 -75.5q-110 0 -171 61t-61 189q0 117 70.5 192t183.5 75q109 0 170.5 -62t61.5 -187zM387 251q0 148 -109 148q-47 0 -80 -37t-33 -109q0 -154 111 -154q49 0 80 39.5t31 112.5zM456 669q-44 -89 -122 -89q-36 0 -72 25t-51 25
q-31 0 -55 -45l-61 47q45 89 122 89q28 0 50.5 -12.5t39.5 -25t32 -12.5q32 0 56 45z" />
    <glyph glyph-name="odieresis" unicode="&#xf6;" horiz-adv-x="553" 
d="M519 258q0 -117 -71 -192.5t-183 -75.5q-110 0 -171 61t-61 189q0 117 70.5 192t183.5 75q109 0 170.5 -62t61.5 -187zM387 251q0 148 -109 148q-47 0 -80 -37t-33 -109q0 -154 111 -154q49 0 80 39.5t31 112.5zM451 648q0 -28 -20.5 -48.5t-48.5 -20.5t-48.5 20.5
t-20.5 48.5q0 29 20 49t49 20t49 -20t20 -49zM249 648q0 -28 -20.5 -48.5t-48.5 -20.5t-48.5 20.5t-20.5 48.5q0 29 20 49t49 20t49 -20t20 -49z" />
    <glyph glyph-name="divide" unicode="&#xf7;" 
d="M352 498q0 -32 -23 -55t-55 -23t-55 23t-23 55t23 55t55 23t55 -23t23 -55zM511 244h-472v107h472v-107zM352 97q0 -32 -23 -55t-55 -23t-55 23t-23 55t23 55t55 23t55 -23t23 -55z" />
    <glyph glyph-name="oslash" unicode="&#xf8;" horiz-adv-x="553" 
d="M519 258q0 -118 -71.5 -193t-181.5 -75q-29 0 -53 6l-39 -103l-75 23l40 101q-106 58 -106 223q0 119 70.5 193t183.5 74q12 0 40 -2l36 93l75 -23l-36 -91q117 -57 117 -226zM399 250q0 82 -42 122l-105 -274q20 -5 39 -4q46 4 77 43.5t31 112.5zM288 403q-15 1 -30 0
q-45 -6 -74.5 -42t-29.5 -108q0 -81 32 -116z" />
    <glyph glyph-name="ugrave" unicode="&#xf9;" horiz-adv-x="570" 
d="M501 0h-120q0 58 6 89h-1q-51 -99 -169 -99q-148 0 -148 158v349h127v-318q0 -41 14 -61.5t48 -20.5q48 0 81.5 47t33.5 113v240h128v-497zM368 629l-48 -69l-181 108l59 86z" />
    <glyph glyph-name="uacute" unicode="&#xfa;" horiz-adv-x="570" 
d="M501 0h-120q0 58 6 89h-1q-51 -99 -169 -99q-148 0 -148 158v349h127v-318q0 -41 14 -61.5t48 -20.5q48 0 81.5 47t33.5 113v240h128v-497zM441 668l-181 -108l-47 69l169 125z" />
    <glyph glyph-name="ucircumflex" unicode="&#xfb;" horiz-adv-x="570" 
d="M501 0h-120q0 58 6 89h-1q-51 -99 -169 -99q-148 0 -148 158v349h127v-318q0 -41 14 -61.5t48 -20.5q48 0 81.5 47t33.5 113v240h128v-497zM435 619l-50 -59l-104 81l-103 -81l-49 58l153 136z" />
    <glyph glyph-name="udieresis" unicode="&#xfc;" horiz-adv-x="570" 
d="M501 0h-120q0 58 6 89h-1q-51 -99 -169 -99q-148 0 -148 158v349h127v-318q0 -41 14 -61.5t48 -20.5q48 0 81.5 47t33.5 113v240h128v-497zM449 648q0 -28 -20.5 -48.5t-48.5 -20.5t-48.5 20.5t-20.5 48.5q0 29 20 49t49 20t49 -20t20 -49zM247 648q0 -28 -20.5 -48.5
t-48.5 -20.5t-48.5 20.5t-20.5 48.5q0 29 20 49t49 20t49 -20t20 -49z" />
    <glyph glyph-name="yacute" unicode="&#xfd;" horiz-adv-x="502" 
d="M499 497l-197 -525q-47 -125 -104 -173t-146 -48q-37 0 -70 7l15 110q32 -10 63 -10q79 0 114 98l15 44l-183 497h142l67 -190q18 -53 39 -137h1q16 67 48 158l59 169h137zM421 668l-181 -108l-47 69l169 125z" />
    <glyph glyph-name="thorn" unicode="&#xfe;" horiz-adv-x="559" 
d="M523 275q0 -132 -67.5 -207t-194.5 -75q-36 0 -64 4v-238h-128v971h128v-204q0 -64 -5 -102h2q42 83 147 83q88 0 135 -60.5t47 -171.5zM389 261q0 141 -85 141q-48 0 -77.5 -48t-29.5 -115v-138q30 -9 67 -9q125 0 125 169z" />
    <glyph glyph-name="ydieresis" unicode="&#xff;" horiz-adv-x="502" 
d="M499 497l-197 -525q-47 -125 -104 -173t-146 -48q-37 0 -70 7l15 110q32 -10 63 -10q79 0 114 98l15 44l-183 497h142l67 -190q18 -53 39 -137h1q16 67 48 158l59 169h137zM422 648q0 -28 -20 -48.5t-49 -20.5t-49 20.5t-20 48.5q0 29 20 49t49 20t49 -20t20 -49z
M220 648q0 -28 -20 -48.5t-49 -20.5t-49 20.5t-20 48.5q0 29 20 49t49 20t49 -20t20 -49z" />
    <glyph glyph-name="dotlessi" unicode="&#x131;" horiz-adv-x="266" 
d="M197 0h-128v497h128v-497z" />
    <glyph glyph-name="Lslash" unicode="&#x141;" horiz-adv-x="438" 
d="M430 0h-349v262l-72 -23l-18 97l90 28v311h130v-275l102 32l17 -98l-119 -37v-183h219v-114z" />
    <glyph glyph-name="lslash" unicode="&#x142;" horiz-adv-x="301" 
d="M302 330l-89 -28v-302h-127v268l-78 -25l-11 97l89 28v362h127v-327l79 25z" />
    <glyph glyph-name="OE" unicode="&#x152;" horiz-adv-x="860" 
d="M804 0h-355q-53 -11 -109 -11q-151 0 -229 90t-78 250q0 162 94 259.5t231 97.5q55 0 105 -11h341v-109h-236v-166h224v-106h-224v-183h236v-111zM438 123v433q-44 13 -86 13q-76 0 -128 -59t-52 -167q0 -111 44.5 -173.5t132.5 -62.5q44 0 89 16z" />
    <glyph glyph-name="oe" unicode="&#x153;" horiz-adv-x="860" 
d="M821 286q0 -30 -4 -59h-307q-1 -137 136 -137q75 0 144 30l14 -97q-81 -33 -180 -33q-126 0 -185 81q-61 -81 -174 -81q-110 0 -171 61t-61 189q0 118 70.5 192.5t183.5 74.5q112 0 166 -73q59 74 159 74q104 0 156.5 -62t52.5 -160zM694 313q1 48 -21.5 74.5t-64.5 26.5
q-39 0 -65.5 -27.5t-31.5 -73.5h183zM387 251q0 148 -109 148q-47 0 -80 -37t-33 -109q0 -154 111 -154q49 0 80 39.5t31 112.5z" />
    <glyph glyph-name="Scaron" unicode="&#x160;" horiz-adv-x="503" 
d="M422 802l-165 -87l-166 86l30 63l137 -59l135 59zM467 207q0 -95 -72.5 -156.5t-188.5 -61.5q-88 0 -156 18l14 125q71 -29 147 -29q50 0 81.5 21.5t31.5 66.5q0 35 -29.5 57.5t-71 37.5t-83 34.5t-71 60t-29.5 102.5q0 92 67.5 147.5t187.5 55.5q60 0 122 -13l-12 -114
q-59 19 -116 19q-55 0 -83 -22t-28 -59q0 -33 30 -55.5t72 -38t84.5 -36t72.5 -61t30 -99.5z" />
    <glyph glyph-name="scaron" unicode="&#x161;" horiz-adv-x="417" 
d="M378 155q0 -74 -60 -119.5t-159 -45.5q-65 0 -111 13l9 107q46 -20 106 -20q36 0 58 14.5t22 38.5t-21 38.5t-50.5 24t-59 23t-50.5 43.5t-21 77q0 70 53.5 114.5t156.5 44.5q44 0 91 -10l-6 -100q-44 13 -90 13q-73 0 -73 -51q0 -23 21 -37.5t51.5 -24.5t60.5 -24
t51 -44t21 -75zM370 695l-154 -135l-153 134l50 60l104 -82l103 82z" />
    <glyph glyph-name="Ydieresis" unicode="&#x178;" horiz-adv-x="561" 
d="M446 786q0 -25 -18 -43t-44 -18t-43.5 17.5t-17.5 43.5t18 44t43 18q26 0 44 -18t18 -44zM230 786q0 -26 -18 -43.5t-43 -17.5q-26 0 -44 18t-18 43q0 26 18.5 44t43.5 18t43 -18t18 -44zM559 675l-215 -436v-239h-130v238l-211 437h142l89 -194q25 -56 46 -112h2
q14 39 54 125l85 181h138z" />
    <glyph glyph-name="Zcaron" unicode="&#x17d;" horiz-adv-x="537" 
d="M449 802l-165 -87l-166 86l30 63l137 -59l135 59zM493 0h-448v100l243 396q19 31 44 64q-48 -2 -123 -2h-156v117h436v-104l-257 -406q-21 -34 -31 -47q17 2 146 2h146v-120z" />
    <glyph glyph-name="zcaron" unicode="&#x17e;" horiz-adv-x="450" 
d="M403 0h-358v91l200 294q-38 -2 -106 -2h-88v114h348v-91l-196 -290q21 1 113 1h87v-117zM380 695l-154 -135l-153 134l50 60l104 -82l103 82z" />
    <glyph glyph-name="florin" unicode="&#x192;" 
d="M518 692l-15 -109q-42 15 -84 15q-43 0 -63.5 -24t-26.5 -81l-11 -120h141v-99h-151l-20 -216q-20 -219 -227 -219q-45 0 -91 11l15 108q52 -14 87 -14q40 0 61.5 24.5t26.5 79.5l21 226h-114v99h123l11 111q12 113 68 166t159 53q39 0 90 -11z" />
    <glyph glyph-name="circumflex" unicode="&#x2c6;" horiz-adv-x="426" 
d="M365 619l-50 -59l-104 81l-103 -81l-49 58l153 136z" />
    <glyph glyph-name="caron" unicode="&#x2c7;" horiz-adv-x="426" 
d="M364 695l-154 -135l-153 134l50 60l104 -82l103 82z" />
    <glyph glyph-name="breve" unicode="&#x2d8;" horiz-adv-x="373" 
d="M322 724q0 -66 -34.5 -109.5t-103.5 -43.5q-68 0 -101.5 44t-33.5 109h85q0 -26 13 -42.5t38 -16.5q52 0 52 59h85z" />
    <glyph glyph-name="dotaccent" unicode="&#x2d9;" horiz-adv-x="287" 
d="M219 648q0 -32 -23.5 -54.5t-56.5 -22.5t-56.5 22.5t-23.5 54.5t23.5 55t56.5 23t56.5 -22.5t23.5 -55.5z" />
    <glyph glyph-name="ring" unicode="&#x2da;" horiz-adv-x="365" 
d="M310 645q0 -51 -37 -86.5t-90 -35.5q-54 0 -90.5 34.5t-36.5 87.5q0 52 37 86.5t90 34.5q54 0 90.5 -34.5t36.5 -86.5zM235 645q0 22 -15 37.5t-37 15.5t-37.5 -15.5t-15.5 -37.5t15.5 -37.5t37.5 -15.5t37 15.5t15 37.5z" />
    <glyph glyph-name="ogonek" unicode="&#x2db;" horiz-adv-x="317" 
d="M282 -157q-59 -67 -147 -67q-56 0 -83 26t-27 67q0 34 20.5 69.5t57.5 61.5h134q-88 -44 -88 -99q0 -28 30 -28q28 0 54 29z" />
    <glyph glyph-name="tilde" unicode="&#x2dc;" horiz-adv-x="467" 
d="M414 669q-44 -89 -122 -89q-36 0 -71.5 25t-51.5 25q-31 0 -55 -45l-61 47q45 89 122 89q28 0 50.5 -12.5t39.5 -25t32 -12.5q32 0 56 45z" />
    <glyph glyph-name="hungarumlaut" unicode="&#x2dd;" horiz-adv-x="504" 
d="M467 691l-156 -131l-56 51l143 147zM265 704l-143 -144l-60 51l129 155z" />
    <glyph glyph-name="Delta" unicode="&#x394;" horiz-adv-x="752" 
d="M726 0h-700l286 700h127zM537 117l-167 419l-165 -419h332z" />
    <glyph glyph-name="Omega" unicode="&#x3a9;" horiz-adv-x="749" 
d="M686 0h-257v91q125 80 125 259q0 102 -47.5 167.5t-131.5 65.5q-83 0 -134.5 -64t-51.5 -166q0 -93 30.5 -155t97.5 -106v-92h-258v96h128q-123 84 -123 256q0 145 87.5 239.5t230.5 94.5q135 0 218 -85.5t83 -238.5q0 -85 -35 -156t-94 -110h132v-96z" />
    <glyph glyph-name="pi" unicode="&#x3c0;" horiz-adv-x="669" 
d="M625 0q-53 -11 -107 -11q-64 0 -91 32t-27 101v271h-144v-393h-119v393h-98v104h577v-104h-97v-199q0 -72 9.5 -92t40.5 -20q25 0 48 7z" />
    <glyph glyph-name="endash" unicode="&#x2013;" 
d="M550 242h-550v111h550v-111z" />
    <glyph glyph-name="emdash" unicode="&#x2014;" horiz-adv-x="1000" 
d="M889 242h-778v111h778v-111z" />
    <glyph glyph-name="quoteleft" unicode="&#x2018;" horiz-adv-x="267" 
d="M230 709q-90 -96 -41 -154q30 -33 11 -77t-70 -44q-49 0 -72 45t5 123t115 154z" />
    <glyph glyph-name="quoteright" unicode="&#x2019;" horiz-adv-x="267" 
d="M136 747q51 0 72 -50q29 -69 -26 -162q-33 -57 -94 -110l-52 47q49 53 57.5 90.5t-17.5 63.5q-29 33 -10 77t70 44z" />
    <glyph glyph-name="quotesinglbase" unicode="&#x201a;" horiz-adv-x="267" 
d="M136 149q51 0 72 -50q29 -69 -26 -162q-33 -57 -94 -110l-52 47q49 53 57.5 90t-17.5 63q-29 34 -10 78t70 44z" />
    <glyph glyph-name="quotedblleft" unicode="&#x201c;" horiz-adv-x="485" 
d="M449 709q-90 -96 -41 -154q29 -33 10 -77t-69 -44q-49 0 -72.5 45t4.5 123t115 154zM230 709q-90 -96 -41 -154q30 -33 11 -77t-70 -44q-49 0 -72 45t5 123t115 154z" />
    <glyph glyph-name="quotedblright" unicode="&#x201d;" horiz-adv-x="485" 
d="M354 747q49 0 72.5 -45t-4.5 -123t-115 -154l-53 47q90 96 41 154q-29 33 -10 77t69 44zM136 747q51 0 72 -50q29 -69 -26 -162q-33 -57 -94 -110l-52 47q49 53 57.5 90.5t-17.5 63.5q-29 33 -10 77t70 44z" />
    <glyph glyph-name="quotedblbase" unicode="&#x201e;" horiz-adv-x="485" 
d="M354 149q49 0 72.5 -45t-4.5 -123t-115 -154l-53 47q49 53 57.5 90t-16.5 63q-29 34 -10 78t69 44zM136 149q51 0 72 -50q29 -69 -26 -162q-33 -57 -94 -110l-52 47q49 53 57.5 90t-17.5 63q-29 34 -10 78t70 44z" />
    <glyph glyph-name="dagger" unicode="&#x2020;" horiz-adv-x="457" 
d="M416 533h-135l21 -88l-23 -255h-100l-24 255l21 88h-134v99h134l-21 136h147l-21 -136h135v-99z" />
    <glyph glyph-name="daggerdbl" unicode="&#x2021;" horiz-adv-x="457" 
d="M416 287h-134l21 -122h-149l21 122h-133v98h133l-20 81l20 82h-133v98h133l-20 122h147l-20 -122h134v-98h-134l20 -82l-20 -81h134v-98z" />
    <glyph glyph-name="bullet" unicode="&#x2022;" horiz-adv-x="423" 
d="M360 297q0 -61 -44 -104.5t-105 -43.5t-104.5 43.5t-43.5 104.5t43.5 104.5t104.5 43.5t105 -43.5t44 -104.5z" />
    <glyph glyph-name="ellipsis" unicode="&#x2026;" horiz-adv-x="723" 
d="M670 67q0 -32 -23 -55t-55 -23t-55 23t-23 55t23 55t55 23t55 -23t23 -55zM437 67q0 -32 -23 -55t-55 -23t-55 23t-23 55t23 55t55 23t55 -23t23 -55zM204 67q0 -32 -23.5 -55t-55.5 -23t-55 23t-23 55t23 55t55 23t55.5 -23t23.5 -55z" />
    <glyph glyph-name="perthousand" unicode="&#x2030;" horiz-adv-x="1052" 
d="M912 147q0 76 -50 76q-24 0 -38.5 -20.5t-14.5 -56.5q0 -77 51 -77q23 0 37.5 20.5t14.5 57.5zM1005 153q0 -75 -43.5 -119.5t-105.5 -44.5q-65 0 -102.5 39t-37.5 113q0 73 43 117.5t105 44.5q63 0 102 -37t39 -113zM584 147q0 76 -50 76q-24 0 -38.5 -20.5t-14.5 -56.5
q0 -77 51 -77q23 0 37.5 20.5t14.5 57.5zM677 153q0 -75 -43.5 -119.5t-105.5 -44.5q-65 0 -102.5 39t-37.5 113q0 73 43 117.5t105 44.5q64 0 102.5 -37t38.5 -113zM655 610l-519 -630l-76 59l519 630zM237 505q0 41 -12.5 58.5t-38.5 17.5q-24 0 -38.5 -20.5t-14.5 -56.5
q0 -77 51 -77q24 0 38.5 20.5t14.5 57.5zM329 512q0 -75 -43.5 -120t-105.5 -45q-65 0 -102.5 39.5t-37.5 113.5q0 73 43.5 117t105.5 44q63 0 101.5 -36.5t38.5 -112.5z" />
    <glyph glyph-name="guilsinglleft" unicode="&#x2039;" horiz-adv-x="312" 
d="M255 148l-101 -48l-113 192l115 195l97 -47l-89 -147z" />
    <glyph glyph-name="guilsinglright" unicode="&#x203a;" horiz-adv-x="312" 
d="M272 295l-116 -195l-97 47l90 147l-91 145l101 48z" />
    <glyph glyph-name="fraction" unicode="&#x2044;" horiz-adv-x="435" 
d="M518 635l-492 -669l-92 66l492 669z" />
    <glyph glyph-name="Euro" unicode="&#x20ac;" 
d="M521 21q-75 -32 -168 -32q-111 0 -176.5 53t-84.5 168h-81v79h74q-1 9 -1 27q0 8 0.5 23.5t0.5 23.5h-74v79h87q23 101 91.5 160t186.5 59q74 0 139 -25l-30 -101q-53 25 -119 25q-105 0 -136 -118h165v-79h-180v-37v-37h180v-79h-168q13 -61 48.5 -89.5t97.5 -28.5
q57 0 119 26z" />
    <glyph glyph-name="trademark" unicode="&#x2122;" horiz-adv-x="689" 
d="M654 394h-95l-18 121l-5 47l-9 -43l-33 -125h-85l-33 128l-8 40l-2 -36l-19 -132h-86l45 281h109l34 -123l8 -41l7 39l34 125h109zM253 598h-65v-204h-91v204h-68v77h224v-77z" />
    <glyph glyph-name="partialdiff" unicode="&#x2202;" horiz-adv-x="634" 
d="M572 399q0 -208 -103 -321q-77 -85 -196 -85q-102 0 -156.5 57t-54.5 154q0 107 68.5 176.5t179.5 69.5q89 0 130 -64q-7 63 -7 66q-11 86 -66 132.5t-137 45.5l18 107q147 -2 235.5 -92.5t88.5 -245.5zM414 238q0 47 -28 75.5t-81 28.5q-51 0 -84 -36t-33 -91
q0 -54 27.5 -83t75.5 -29q52 0 87.5 38.5t35.5 96.5z" />
    <glyph glyph-name="product" unicode="&#x220f;" horiz-adv-x="784" 
d="M742 622h-96v-863h-119v863h-268v-863h-121v863h-97v108h701v-108z" />
    <glyph glyph-name="summation" unicode="&#x2211;" horiz-adv-x="607" 
d="M558 -241h-522v99l291 396l-273 376v100h489v-108h-332l264 -364l-288 -387h371v-112z" />
    <glyph glyph-name="minus" unicode="&#x2212;" 
d="M511 242h-472v111h472v-111z" />
    <glyph glyph-name="radical" unicode="&#x221a;" horiz-adv-x="616" 
d="M605 758l-232 -758h-148l-135 401h-87v96h192l80 -258q19 -58 27 -97h1q9 45 21 92l141 524h140z" />
    <glyph glyph-name="infinity" unicode="&#x221e;" horiz-adv-x="984" 
d="M940 304q0 -81 -55 -135t-151 -54q-101 0 -246 107q-145 -107 -251 -107q-93 0 -143 50.5t-50 128.5q0 82 56 135.5t145 53.5q105 0 250 -109q147 109 249 109q91 0 143.5 -50t52.5 -129zM818 300q0 32 -21 52t-57 20q-52 0 -149 -71q101 -75 149 -75q37 0 57.5 21
t20.5 53zM392 296q-100 76 -148 76q-37 0 -57 -21t-20 -52q0 -32 21 -52.5t57 -20.5q52 0 147 70z" />
    <glyph glyph-name="integral" unicode="&#x222b;" horiz-adv-x="345" 
d="M322 621q-21 7 -46 7q-33 0 -46 -26t-13 -103q0 -75 6.5 -227.5t6.5 -255.5q0 -141 -40.5 -204t-126.5 -63q-31 0 -56 6v111q23 -7 43 -7q34 0 48 26.5t14 104.5q0 72 -6.5 223.5t-6.5 257.5q0 141 43.5 204t127.5 63q24 0 52 -7v-110z" />
    <glyph glyph-name="approxequal" unicode="&#x2248;" 
d="M512 375q-64 -64 -140 -64q-44 0 -100.5 29t-93.5 29q-49 0 -100 -42l-40 85q70 64 144 64q48 0 106 -29.5t86 -29.5q48 0 95 44zM513 174q-67 -60 -141 -60q-49 0 -105.5 29t-88.5 29q-46 0 -98 -43l-42 86q68 64 137 64q48 0 105.5 -29.5t95.5 -29.5q51 0 96 39z" />
    <glyph glyph-name="notequal" unicode="&#x2260;" 
d="M504 150h-230l-48 -121h-114l48 121h-114v103h154l35 88h-189v103h229l48 121h115l-48 -121h114v-103h-155l-35 -88h190v-103z" />
    <glyph glyph-name="lessequal" unicode="&#x2264;" 
d="M468 234l-80 -89l-333 257l332 257l81 -87l-242 -169zM479 0h-408v107h408v-107z" />
    <glyph glyph-name="greaterequal" unicode="&#x2265;" 
d="M495 402l-332 -257l-81 87l242 169l-242 169l80 89zM479 0h-408v107h408v-107z" />
    <glyph glyph-name="lozenge" unicode="&#x25ca;" horiz-adv-x="626" 
d="M604 336l-249 -345h-80l-253 348l251 345h78zM464 331l-156 214l-145 -203l154 -213z" />
    <glyph glyph-name="Acute" unicode="&#xf6c9;" horiz-adv-x="393" 
d="M312 769l-215 -53l-21 70l207 75z" />
    <glyph glyph-name="Caron" unicode="&#xf6ca;" horiz-adv-x="426" 
d="M375 802l-165 -87l-166 86l30 63l137 -59l135 59z" />
    <glyph glyph-name="Dieresis" unicode="&#xf6cb;" horiz-adv-x="546" 
d="M431 786q0 -25 -18 -43t-44 -18q-25 0 -43 17.5t-18 43.5t18 44t43 18t43.5 -18t18.5 -44zM215 786q0 -26 -17.5 -43.5t-43.5 -17.5t-44 18t-18 43q0 26 18 44t44 18q25 0 43 -18t18 -44z" />
    <glyph glyph-name="Grave" unicode="&#xf6ce;" horiz-adv-x="374" 
d="M305 786l-21 -70l-216 53l30 92z" />
    <glyph glyph-name="apple" unicode="&#xf8ff;" horiz-adv-x="1044" 
d="M136 660q34 39 62 62l96 -115q-24 -18 -42 -42zM552 685q-24 4 -59 0l-15 145q36 4 88 0zM752 608l93 113q38 -31 62 -62l-113 -93q-19 24 -42 42zM1028 379q4 -41 1 -87l-148 14q3 29 0 60zM779 335q0 -102 -66 -171v-80l-16 -5l32 -76l-32 -8l32 -73l-33 -9l10 -24
l-31 -71h-57q-3 -20 -30.5 -34t-65.5 -14q-39 0 -66 14t-30 34h-57l-54 130l31 9l-32 75l35 10l-19 44v79q-65 73 -65 170q0 107 75 182t182 75q106 0 181.5 -75t75.5 -182zM399 192h50l-16 129q-6 -1 -38 -12q-10 -3 -14.5 11.5t-2.5 31.5t9 19q73 20 135 20t137 -20
q6 -2 8 -19t-3 -31.5t-15 -11.5q-14 6 -40 12l-13 -129h49q66 57 66 143q0 79 -55.5 134.5t-133.5 55.5t-133.5 -55.5t-55.5 -134.5q0 -87 66 -143zM561 329q-15 3 -39 3t-40 -3l15 -137h51zM644 138h-244v-47l14 -34l230 59v22zM645 32l-13 32l-234 -60l13 -31zM645 -51
l-13 31l-234 -61l23 -55h202l11 27l-4 10l-70 -18l-15 41zM510 357v1h-2v6h-1v-7h3zM514 362h-1v-3h-1v3h-1v-3q1 -2 3 0v3zM518 357v1q-1 0 -1 1t1 2v1q-2 1 -2 -2q0 -2 2 -3zM522 355q-3 5 0 10q-2 0 -2 -5t2 -5zM525 358v-1h1v3q0 5 -4 1q2 0 3 -1q-2 0 -3 -2h3zM525 359
zM528 357q3 1 2 4v1q-3 0 -1.5 -2t-0.5 -2v-1zM531 355q2 0 2 5t-2 5q3 -5 0 -10zM16 380l150 -14q-3 -31 0 -60l-150 -15q-6 45 0 89z" />
    <glyph glyph-name="fi" unicode="&#xfb01;" horiz-adv-x="595" 
d="M526 0h-127v398h-177v-398h-127v398h-87v99h87v18q0 223 245 223q75 0 154 -19l-22 -106q-62 20 -122 20q-67 0 -97.5 -27.5t-30.5 -82.5v-26h304v-497z" />
    <glyph glyph-name="fl" unicode="&#xfb02;" horiz-adv-x="595" 
d="M526 0h-127v628q-36 6 -70 6q-107 0 -107 -95v-42h109v-99h-109v-398h-127v398h-87v99h87v48q0 91 59.5 142t185.5 51q72 0 186 -17v-721z" />
    <glyph glyph-name="HT" horiz-adv-x="703" 
 />
    <glyph glyph-name="Circumflex" horiz-adv-x="426" 
d="M376 779l-30 -64l-137 60l-135 -60l-29 62l165 87z" />
    <glyph glyph-name="Tilde" horiz-adv-x="467" 
d="M428 810q-46 -82 -125 -82q-38 0 -75 23.5t-53 23.5q-34 0 -58 -43l-63 44q46 82 125 82q38 0 75 -23.5t53 -23.5q33 0 58 42z" />
    <glyph glyph-name="uni20AC" 
d="M521 21q-75 -32 -168 -32q-111 0 -176.5 53t-84.5 168h-81v79h74q-1 9 -1 27q0 8 0.5 23.5t0.5 23.5h-74v79h87q23 101 91.5 160t186.5 59q74 0 139 -25l-30 -101q-53 25 -119 25q-105 0 -136 -118h165v-79h-180v-37v-37h180v-79h-168q13 -61 48.5 -89.5t97.5 -28.5
q57 0 119 26z" />
    </font>
</defs>
</svg>
