<?xml version="1.0" encoding="UTF-8"?>
<svg width="20px" height="24px" viewBox="0 0 20 24" version="1.1" xmlns="http://www.w3.org/2000/svg" xmlns:xlink="http://www.w3.org/1999/xlink">
    <!-- Generator: Sketch 64 (93537) - https://sketch.com -->
    <title>ic_belidesain</title>
    <desc>Created with Sketch.</desc>
    <g id="Page-1" stroke="none" stroke-width="1" fill="none" fill-rule="evenodd">
        <g id="ic_belidesain">
            <path d="M3.86668394,15.1676684 L10.5065285,15.1676684 L10.5065285,14.243057 L3.86668394,14.243057 L3.86668394,15.1676684 Z M10.7570984,13.7420207 L3.61611399,13.7420207 C3.47772021,13.7420207 3.36554404,13.8541969 3.36554404,13.9925907 L3.36554404,15.4182383 C3.36554404,15.5566321 3.47772021,15.6688083 3.61611399,15.6688083 L10.7570984,15.6688083 C10.8954404,15.6688083 11.0076684,15.5566321 11.0076684,15.4182383 L11.0076684,13.9925907 C11.0076684,13.8541969 10.8954404,13.7420207 10.7570984,13.7420207 L10.7570984,13.7420207 Z" id="Fill-1" fill="#ED3024"></path>
            <path d="M3.61608808,12.8745337 L8.57551813,12.8745337 L8.57551813,12.6239637 L8.57551813,12.3733938 L8.49411917,12.3733938 L6.18556995,12.3733938 L6.18556995,11.5897668 L5.68443005,11.5897668 L5.68443005,12.3733938 L3.86665803,12.3733938 L3.86665803,9.33069948 L5.68443005,9.33069948 L5.68443005,10.2303886 L6.18556995,10.2303886 L6.18556995,9.33069948 L7.5061399,9.33069948 L7.82821244,9.33069948 L7.82821244,8.8296114 L7.3434456,8.8296114 L3.86665803,8.8296114 L3.86665803,4.61121762 L5.89225389,4.61121762 L5.89225389,4.36064767 L5.89225389,4.11007772 L3.61608808,4.11007772 C3.4776943,4.11007772 3.36551813,4.22225389 3.36551813,4.36064767 L3.36551813,12.6239637 C3.36551813,12.7623057 3.4776943,12.8745337 3.61608808,12.8745337" id="Fill-3" fill="#012846"></path>
            <path d="M3.61606218,4.12223316 C3.48466321,4.12223316 3.37766839,4.22917617 3.37766839,4.36062694 L3.37766839,12.623943 C3.37766839,12.7554974 3.48466321,12.8624922 3.61606218,12.8624922 L8.56336788,12.8624922 L8.56336788,12.3855492 L6.17341969,12.3855492 L6.17341969,11.6018187 L5.6965285,11.6018187 L5.6965285,12.3855492 L3.8546114,12.3855492 L3.8546114,9.31865803 L5.6965285,9.31865803 L5.6965285,10.2183472 L6.17341969,10.2183472 L6.17341969,9.31865803 L7.81611399,9.31865803 L7.81611399,8.84171503 L3.8546114,8.84171503 L3.8546114,4.59917617 L5.88015544,4.59917617 L5.88015544,4.12223316 L3.61606218,4.12223316 Z M8.58761658,12.8866891 L3.61606218,12.8866891 C3.47124352,12.8866891 3.3534715,12.7688135 3.3534715,12.623943 L3.3534715,4.36062694 C3.3534715,4.21575648 3.47124352,4.09798446 3.61606218,4.09798446 L5.90440415,4.09798446 L5.90440415,4.62337306 L3.87880829,4.62337306 L3.87880829,8.81746632 L7.84036269,8.81746632 L7.84036269,9.34285492 L6.19766839,9.34285492 L6.19766839,10.242544 L5.67227979,10.242544 L5.67227979,9.34285492 L3.87880829,9.34285492 L3.87880829,12.3613523 L5.67227979,12.3613523 L5.67227979,11.5776218 L6.19766839,11.5776218 L6.19766839,12.3613523 L8.58761658,12.3613523 L8.58761658,12.8866891 Z" id="Fill-4" fill="#012846"></path>
            <path d="M12.7614974,12.8745337 L13.8000984,12.8745337 C13.9384922,12.8745337 14.0506166,12.7623575 14.0506166,12.6239637 L14.0506166,6.68484456 L15.0790622,6.68484456 L15.0790622,12.7398187 C15.0790622,12.8771244 15.1895803,12.988886 15.326886,12.9903886 L15.9560052,12.9973316 L15.9560052,13.8255181 L12.7614974,13.8255181 L12.7614974,12.8745337 Z M15.5802021,2.59935233 L15.5802021,0.548471503 L16.4796321,0.555725389 C17.4112383,0.555725389 18.169114,1.31360104 18.169114,2.24520725 L18.169114,13.2862435 C18.1333109,13.2440155 18.0957461,13.2028756 18.0565233,13.1629275 C17.6373523,12.7367098 17.0773523,12.5019948 16.4823782,12.5019948 L16.4635699,12.5017876 L16.4571451,12.5017358 L15.9560052,12.4961917 L15.5802021,12.4919948 L15.5802021,6.68484456 L15.5802021,6.18375648 L15.5802021,3.10049223 L15.5802021,2.84992228 L15.5802021,2.59935233 Z M16.4635699,16.423601 C16.4581813,16.4236528 16.4527927,16.4239637 16.4473523,16.4239637 L12.1750725,16.4239637 L11.1948653,16.4239637 L2.30486528,16.4239637 L2.30486528,3.10049223 L15.0790622,3.10049223 L15.0790622,6.18375648 L14.0506166,6.18375648 L14.0506166,4.36064767 C14.0506166,4.22225389 13.9384922,4.11007772 13.8000984,4.11007772 L8.31527979,4.11007772 C8.25087565,4.11007772 8.18890674,4.13489637 8.14232642,4.17935233 L7.95227461,4.36064767 L6.49823316,5.74784974 L6.67118653,5.92914508 L6.8441399,6.11044041 L8.41564249,4.61121762 L10.2679741,4.61121762 L10.2679741,8.8296114 L9.12351813,8.8296114 L9.12351813,9.3307513 L11.5149689,9.3307513 L11.5149689,8.8296114 L10.769114,8.8296114 L10.769114,4.61121762 L13.5495285,4.61121762 L13.5495285,8.8296114 L12.8103057,8.8296114 L12.8103057,9.3307513 L13.5495285,9.3307513 L13.5495285,12.3733938 L11.0673005,12.3733938 L9.49574611,10.874171 L9.32284456,11.0554663 L9.14989119,11.2367617 L10.6039326,12.6239637 L10.7939845,12.8052591 C10.8405648,12.849715 10.9024819,12.8745337 10.9669378,12.8745337 L12.2603575,12.8745337 L12.2603575,14.0760881 C12.2603575,14.2144819 12.3725337,14.3266062 12.5109275,14.3266062 L16.2065751,14.3266062 C16.3449171,14.3266062 16.4571451,14.2144819 16.4571451,14.0760881 L16.4571451,13.0028756 L16.4635699,13.0029275 L16.4796321,13.0030829 C16.9419119,13.0030829 17.3750207,13.1846891 17.6992176,13.5143264 C17.9525337,13.7718912 18.1142435,14.0945855 18.169114,14.4441192 L18.169114,14.8277461 L18.1862642,14.8277461 C18.1848653,14.8482642 18.1826891,14.8685751 18.1805648,14.888886 C18.0909793,15.7424093 17.3514456,16.4154663 16.4635699,16.423601 L16.4635699,16.423601 Z M18.6702539,14.4066062 L18.6702539,2.24520725 C18.6702539,1.03733161 17.6875596,0.0545854922 16.4816528,0.0545854922 L15.3316528,0.0453108808 C15.265228,0.0457772021 15.2005648,0.0709067358 15.1531554,0.117953368 C15.1056943,0.165 15.0790622,0.229041451 15.0790622,0.295829016 L15.0790622,2.59935233 L2.05434715,2.59935233 C1.91595337,2.59935233 1.8037772,2.71158031 1.8037772,2.84992228 L1.8037772,16.6745337 C1.8037772,16.8129275 1.91595337,16.9251036 2.05434715,16.9251036 L11.1948653,16.9251036 L16.4473523,16.9251036 L16.4635699,16.9251036 L16.4635699,16.9246891 C17.6732591,16.9160363 18.6708756,15.9445855 18.6908756,14.7513731 C18.6928446,14.6348964 18.6858497,14.5197668 18.6702539,14.4066062 L18.6702539,14.4066062 Z" id="Fill-5" fill="#012846"></path>
            <path d="M15.5923109,12.4800622 L16.4825699,12.4898549 C17.0815855,12.4898549 17.6438135,12.7259689 18.0652124,13.1544145 C18.096456,13.1863316 18.1273886,13.2194922 18.1570259,13.2534301 L18.1570259,2.2451399 C18.1570259,1.32026943 17.4045907,0.567782383 16.4795648,0.567782383 L15.5923109,0.560683938 L15.5923109,12.4800622 Z M18.1812746,13.3193368 L18.1599275,13.2940518 C18.1241244,13.2518756 18.086456,13.2106839 18.0478549,13.171513 C17.6310155,12.7476788 17.075057,12.5141554 16.4824663,12.5141554 L15.5680622,12.5040518 L15.5680622,0.536227979 L16.4797202,0.543585492 C17.4178031,0.543585492 18.1812746,1.30684974 18.1812746,2.2451399 L18.1812746,13.3193368 Z M12.7737098,13.8134819 L15.9438653,13.8134819 L15.9438653,13.0093368 L15.326715,13.0024456 C15.183399,13.0010466 15.0669223,12.8831192 15.0669223,12.7398549 L15.0669223,6.69690155 L14.0627254,6.69690155 L14.0627254,12.6239482 C14.0627254,12.7688187 13.9448497,12.8866943 13.8000311,12.8866943 L12.7737098,12.8866943 L12.7737098,13.8134819 Z M15.9680622,13.8376788 L12.7494611,13.8376788 L12.7494611,12.8624456 L13.8000311,12.8624456 C13.9315855,12.8624456 14.0385803,12.7555026 14.0385803,12.6239482 L14.0385803,6.67270466 L15.091171,6.67270466 L15.091171,12.7398549 C15.091171,12.8699585 15.1969741,12.9767979 15.3269741,12.9782487 L15.9680622,12.9853472 L15.9680622,13.8376788 Z M2.31702591,16.4119275 L16.4473368,16.4119275 C16.4504456,16.4119275 16.4535544,16.411772 16.4566632,16.4116684 L16.463399,16.4114093 C17.3451606,16.4033782 18.0782694,15.7483523 18.1684767,14.8875751 C18.1701347,14.8718238 18.1717409,14.8559171 18.1730881,14.8398549 L18.1570259,14.8398549 L18.1570259,14.4441554 C18.1021554,14.096487 17.9408083,13.7772642 17.6905492,13.5228083 C17.3685803,13.1955026 16.9385285,13.0152953 16.4795648,13.0152953 L16.4692539,13.0151399 L16.4692539,14.0760725 C16.4692539,14.220943 16.3513264,14.3388187 16.2065078,14.3388187 L12.5108601,14.3388187 C12.3660415,14.3388187 12.2483212,14.220943 12.2483212,14.0760725 L12.2483212,12.8866943 L10.9668705,12.8866943 C10.8990984,12.8866943 10.8347461,12.860943 10.7855233,12.8140518 L9.13272539,11.2371088 L9.49541969,10.8569534 L9.50422798,10.865399 L11.0722073,12.3613057 L13.5374404,12.3613057 L13.5374404,9.3428601 L12.7982176,9.3428601 L12.7982176,8.8174715 L13.5374404,8.8174715 L13.5374404,4.62337824 L10.7812228,4.62337824 L10.7812228,8.8174715 L11.5270259,8.8174715 L11.5270259,9.3428601 L9.11137824,9.3428601 L9.11137824,8.8174715 L10.2558342,8.8174715 L10.2558342,4.62337824 L8.42054922,4.62337824 L6.84370984,6.12762694 L6.48101554,5.7474715 L6.48982383,5.73902591 L8.13396891,4.1705285 C8.18298446,4.12379275 8.24749223,4.09798964 8.31526425,4.09798964 L13.8000311,4.09798964 C13.9448497,4.09798964 14.0627254,4.21576166 14.0627254,4.36063212 L14.0627254,6.17166839 L15.0669223,6.17166839 L15.0669223,3.11260104 L2.31702591,3.11260104 L2.31702591,16.4119275 Z M16.4473368,16.4361244 L2.29272539,16.4361244 L2.29272539,3.08835233 L15.091171,3.08835233 L15.091171,6.19586528 L14.0385803,6.19586528 L14.0385803,4.36063212 C14.0385803,4.22918135 13.9315855,4.12223834 13.8000311,4.12223834 L8.31526425,4.12223834 C8.25370984,4.12223834 8.19531606,4.14560622 8.15075648,4.18809326 L6.5154715,5.74819689 L6.84448705,6.09317098 L8.41080829,4.59912953 L10.2800829,4.59912953 L10.2800829,8.84172021 L9.13567876,8.84172021 L9.13567876,9.3186114 L11.5027772,9.3186114 L11.5027772,8.84172021 L10.7569741,8.84172021 L10.7569741,4.59912953 L13.5616891,4.59912953 L13.5616891,8.84172021 L12.8224145,8.84172021 L12.8224145,9.3186114 L13.5616891,9.3186114 L13.5616891,12.3855544 L11.0624145,12.3855544 L11.0588912,12.3822383 L9.49609326,10.8913575 L9.16712953,11.2364352 L10.8024663,12.7963834 C10.8469741,12.8389741 10.9054197,12.8624456 10.9668705,12.8624456 L12.2725181,12.8624456 L12.2725181,14.0760725 C12.2725181,14.2076269 12.3794611,14.3146218 12.5108601,14.3146218 L16.2065078,14.3146218 C16.3380622,14.3146218 16.4450052,14.2076269 16.4450052,14.0760725 L16.4450052,12.9904767 L16.4798238,12.9910466 C16.945057,12.9910466 17.3812746,13.1737927 17.7079067,13.5057098 C17.9616891,13.7638446 18.1254715,14.0877306 18.181171,14.4422383 L18.1812746,14.815658 L18.1992539,14.815658 L18.1983731,14.8285596 C18.1969741,14.8492332 18.1948497,14.8698031 18.1927254,14.8902176 C18.1488912,15.3073679 17.9488912,15.6952953 17.629513,15.982342 C17.3086321,16.2707358 16.8946425,16.4317202 16.4637617,16.435658 L16.4575959,16.4359171 C16.4541762,16.4361244 16.4507047,16.4361244 16.4473368,16.4361244 L16.4473368,16.4361244 Z M2.05433161,2.61140933 C1.92282902,2.61140933 1.81578238,2.71840415 1.81578238,2.84995855 L1.81578238,16.6745181 C1.81578238,16.8059689 1.92282902,16.9129119 2.05433161,16.9129119 L16.463399,16.9125492 C17.6651606,16.9038964 18.658943,15.9343627 18.6786839,14.7512021 C18.680601,14.6367461 18.6737617,14.5213057 18.6583212,14.4083005 L18.6582176,14.4066425 L18.6582176,2.2451399 C18.6582176,1.044 17.6817409,0.066642487 16.4815855,0.066642487 L15.3314819,0.0574196891 C15.2674404,0.0578341969 15.2054715,0.0831709845 15.1616891,0.126642487 C15.1169223,0.170891192 15.091171,0.23265285 15.091171,0.295813472 L15.091171,2.61140933 L2.05433161,2.61140933 Z M16.4635026,16.9371088 L2.05433161,16.9371088 C1.90946114,16.9371088 1.79158549,16.8193886 1.79158549,16.6745181 L1.79158549,2.84995855 C1.79158549,2.70508808 1.90946114,2.58721244 2.05433161,2.58721244 L15.0669223,2.58721244 L15.0669223,0.295813472 C15.0669223,0.226124352 15.0952124,0.158196891 15.1445907,0.109284974 C15.1927772,0.0614093264 15.2609119,0.0336373057 15.3314819,0.0331709845 L16.4816891,0.0424455959 C17.6952124,0.0424455959 18.6824145,1.03058031 18.6824145,2.2451399 L18.6824145,14.4058135 C18.6980622,14.5197513 18.7049534,14.6361244 18.7029326,14.7516166 C18.6830881,15.9438964 17.6851606,16.9217202 16.4756788,16.9366943 L16.4756788,16.9367979 L16.4635026,16.9371088 Z" id="Fill-6" fill="#012846"></path>
            <polygon id="Fill-7" fill="#FFFFFF" points="0.441968912 23.4405181 19.5374611 23.4405181 19.5374611 9.87378238 0.441968912 9.87378238"></polygon>
            <path d="M0.86746114,23.0149741 L19.1119689,23.0149741 L19.1119689,10.2992228 L0.86746114,10.2992228 L0.86746114,23.0149741 Z M0.0164248705,23.8660104 L19.9630052,23.8660104 L19.9630052,9.44829016 L0.0164248705,9.44829016 L0.0164248705,23.8660104 Z" id="Fill-8" fill="#012846"></path>
            <path d="M5.55623834,12.3344922 C5.55623834,12.6525751 5.29841451,12.910399 4.98033161,12.910399 C4.6622487,12.910399 4.40442487,12.6525751 4.40442487,12.3344922 C4.40442487,12.0164093 4.6622487,11.7585855 4.98033161,11.7585855 C5.29841451,11.7585855 5.55623834,12.0164093 5.55623834,12.3344922" id="Fill-9" fill="#FFFFFF"></path>
            <path d="M4.98036788,12.1840829 C4.89736269,12.1840829 4.82995337,12.2514922 4.82995337,12.3344974 C4.82995337,12.4175026 4.89736269,12.4849119 4.98036788,12.4849119 C5.06337306,12.4849119 5.13078238,12.4175026 5.13078238,12.3344974 C5.13078238,12.2514922 5.06337306,12.1840829 4.98036788,12.1840829 M4.98036788,13.3359482 C4.4281399,13.3359482 3.9789171,12.8867254 3.9789171,12.3344974 C3.9789171,11.7823212 4.4281399,11.3330466 4.98036788,11.3330466 C5.53254404,11.3330466 5.98181865,11.7823212 5.98181865,12.3344974 C5.98181865,12.8867254 5.53254404,13.3359482 4.98036788,13.3359482" id="Fill-10" fill="#012846"></path>
            <path d="M15.7460311,12.3344922 C15.7460311,12.6525751 15.4881554,12.910399 15.1701244,12.910399 C14.8520415,12.910399 14.5942176,12.6525751 14.5942176,12.3344922 C14.5942176,12.0164093 14.8520415,11.7585855 15.1701244,11.7585855 C15.4881554,11.7585855 15.7460311,12.0164093 15.7460311,12.3344922" id="Fill-11" fill="#FFFFFF"></path>
            <path d="M15.170114,12.1840829 C15.0871088,12.1840829 15.0197513,12.2514922 15.0197513,12.3344974 C15.0197513,12.4175026 15.0871088,12.4849119 15.170114,12.4849119 C15.253171,12.4849119 15.3205285,12.4175026 15.3205285,12.3344974 C15.3205285,12.2514922 15.253171,12.1840829 15.170114,12.1840829 M15.170114,13.3359482 C14.6179896,13.3359482 14.168715,12.8867254 14.168715,12.3344974 C14.168715,11.7823212 14.6179896,11.3330466 15.170114,11.3330466 C15.7222902,11.3330466 16.1715648,11.7823212 16.1715648,12.3344974 C16.1715648,12.8867254 15.7222902,13.3359482 15.170114,13.3359482" id="Fill-12" fill="#012846"></path>
            <path d="M9.95415544,17.6814508 C4.95897409,17.6814508 4.50767876,12.6803109 4.50379275,12.6296373 C4.48539896,12.3953886 4.66037306,12.1904663 4.89462176,12.1720725 C5.12767876,12.1553368 5.33332642,12.3282383 5.3520829,12.5621244 C5.36653886,12.7364767 5.75280829,16.8304145 9.95415544,16.8304145 C14.3883523,16.8304145 14.6846736,12.6448187 14.6950881,12.4666321 C14.7088705,12.2321762 14.906228,12.0533679 15.144829,12.0667876 C15.3794404,12.0805181 15.5585078,12.2819171 15.5446736,12.5164767 C15.5416166,12.5681347 15.181513,17.6814508 9.95415544,17.6814508" id="Fill-13" fill="#ED3024"></path>
        </g>
    </g>
</svg>