<?xml version="1.0" encoding="UTF-8"?>
<svg width="20px" height="21px" viewBox="0 0 20 21" version="1.1" xmlns="http://www.w3.org/2000/svg" xmlns:xlink="http://www.w3.org/1999/xlink">
    <!-- Generator: Sketch 64 (93537) - https://sketch.com -->
    <title>ic_bangunrumah</title>
    <desc>Created with Sketch.</desc>
    <g id="Page-1" stroke="none" stroke-width="1" fill="none" fill-rule="evenodd">
        <g id="ic_bangunrumah">
            <path d="M13.8884685,10.1895946 L16.3702703,10.1895946 L16.3702703,7.89734234 L13.8884685,7.89734234 L13.8884685,10.1895946 Z M16.6931081,10.8352252 L13.5656757,10.8352252 C13.3873423,10.8352252 13.2428378,10.6906306 13.2428378,10.5123874 L13.2428378,7.57454955 C13.2428378,7.39630631 13.3873423,7.25171171 13.5656757,7.25171171 L16.6931081,7.25171171 C16.8714414,7.25171171 17.0159009,7.39630631 17.0159009,7.57454955 L17.0159009,10.5123874 C17.0159009,10.6906306 16.8714414,10.8352252 16.6931081,10.8352252 L16.6931081,10.8352252 Z" id="Fill-1" fill="#ED3024"></path>
            <path d="M9.60022523,12.8405225 L9.60022523,7.89736937 L12.0819369,7.89736937 L12.0819369,13.8602523 L12.7275676,14.1255225 L12.7275676,7.57453153 C12.7275676,7.39633333 12.5830631,7.25173874 12.4047297,7.25173874 L9.27738739,7.25173874 C9.0990991,7.25173874 8.95459459,7.39633333 8.95459459,7.57453153 L8.95459459,12.5752523 L9.60022523,12.8405225 Z" id="Fill-3" fill="#ED3024"></path>
            <path d="M0.802891892,15.7607523 L3.92532432,20.054491 L5.60464865,18.7109324 L2.48217117,14.4171486 L0.802891892,15.7607523 Z M3.86194595,20.8557523 C3.8473964,20.8557523 3.83284685,20.8546712 3.81820721,20.8527342 C3.72915315,20.8407523 3.64856757,20.7930045 3.59586486,20.7201667 L0.0856396396,15.893545 C-0.0180990991,15.751518 0.00892792793,15.5529144 0.146045045,15.4431847 L2.33996396,13.6880495 C2.41023423,13.6317432 2.50059459,13.6069685 2.58928829,13.6188604 C2.67843243,13.6308423 2.75897297,13.6786351 2.81167568,13.751518 L6.3219009,18.5780495 C6.42563964,18.7201216 6.3987027,18.9187252 6.26158559,19.0284099 L4.06766667,20.783545 C4.00897297,20.8306622 3.93609009,20.8557523 3.86194595,20.8557523 L3.86194595,20.8557523 Z" id="Fill-4" fill="#012846"></path>
            <path d="M18.3417342,13.1770856 C18.1600225,13.1770856 18.0126351,13.0296982 18.0126351,12.8479865 L18.0126351,5.74442793 L13.0763288,0.808076577 L8.14002252,5.74442793 L8.14002252,12.1898333 C8.14002252,12.3715 7.99268018,12.5189775 7.81096847,12.5189775 C7.6293018,12.5189775 7.48186937,12.3715 7.48186937,12.1898333 L7.48186937,6.40253604 L6.72731982,7.15708559 C6.59876126,7.28564414 6.39051802,7.28564414 6.26195946,7.15708559 C6.13344595,7.02857207 6.13344595,6.82032883 6.26195946,6.69177027 L12.8436261,0.110103604 C12.9722297,-0.018454955 13.180473,-0.018454955 13.3090315,0.110103604 L19.8907432,6.69177027 C20.0192568,6.82032883 20.0192568,7.02857207 19.8907432,7.15708559 C19.7621847,7.28564414 19.5539414,7.28564414 19.4253829,7.15708559 L18.6708333,6.40253604 L18.6708333,12.8479865 C18.6708333,13.0296982 18.5234009,13.1770856 18.3417342,13.1770856" id="Fill-5" fill="#012846"></path>
            <path d="M11.7600135,19.1006847 C10.1351486,19.1006847 7.86668018,18.0585225 7.33577928,17.8035676 L5.69677027,18.2132523 C5.52235586,18.2571261 5.3419955,18.1502342 5.29785135,17.9738829 C5.25375225,17.7975315 5.36082432,17.6188829 5.53735586,17.5747838 L7.29249099,17.136 C7.3687973,17.1166757 7.44933784,17.1259099 7.5192027,17.1608649 C7.54492342,17.173973 10.1038423,18.4424865 11.7600135,18.4424865 C13.8505991,18.4424865 17.7237973,15.4138378 18.9865901,14.151045 C19.2574009,13.8802342 19.3173559,13.5873514 19.236455,13.4496486 C19.1460045,13.2958198 18.8289324,13.2706847 18.4321306,13.3838829 C16.9576712,13.8050541 14.7642027,15.1428468 14.2444279,15.4672162 C14.2392928,15.5709099 14.2196532,15.6713604 14.1861396,15.7654595 C14.0151486,16.2524865 13.4307342,16.6764505 12.5578964,16.4581171 L9.04762613,15.5805495 C8.87104955,15.5364054 8.76393243,15.3577117 8.80812162,15.1813604 C8.85217568,15.0050541 9.03262613,14.8983874 9.2069955,14.9420811 L12.7172658,15.8196036 C13.1942027,15.9381171 13.4876712,15.7686126 13.5656892,15.5468559 C13.6522658,15.3007748 13.4919955,14.938027 12.9383468,14.6826216 C12.8693829,14.650955 12.7562297,14.5947838 12.6071757,14.5208649 C11.5277613,13.986991 8.23564414,12.3624865 6.5242027,12.5175766 C5.45339189,12.6142883 5.06086937,14.016991 5.0569955,14.0310901 C5.03645495,14.107982 4.98848198,14.1746486 4.92204054,14.2187477 L3.60573423,15.0963604 C3.45442793,15.1972613 3.25005856,15.1561351 3.14938288,15.0050541 C3.04866216,14.8538378 3.08938288,14.6496486 3.24064414,14.5486577 L4.4601036,13.7356396 C4.60280631,13.3154595 5.15640991,11.9800991 6.46505856,11.8620811 C8.17519369,11.7088378 10.9544279,12.9692883 12.8989324,13.931 C13.0411847,14.0013153 13.1487523,14.0546937 13.2143378,14.0848288 C13.6333919,14.2782973 13.9101937,14.531991 14.070464,14.8004595 C14.8165,14.3413604 16.8111396,13.1625766 18.2512297,12.750955 C19.2848333,12.4559099 19.6807793,12.9078018 19.8033468,13.1158198 C20.0583018,13.5485676 19.9168604,14.1515405 19.4519955,14.6163604 C18.3027162,15.7659099 14.1779865,19.1006847 11.7600135,19.1006847" id="Fill-6" fill="#012846"></path>
        </g>
    </g>
</svg>