<?xml version="1.0" encoding="UTF-8"?>
<svg width="20px" height="23px" viewBox="0 0 20 23" version="1.1" xmlns="http://www.w3.org/2000/svg" xmlns:xlink="http://www.w3.org/1999/xlink">
    <!-- Generator: Sketch 64 (93537) - https://sketch.com -->
    <title>ic_belimaterial</title>
    <desc>Created with Sketch.</desc>
    <g id="Page-1" stroke="none" stroke-width="1" fill="none" fill-rule="evenodd">
        <g id="ic_belimaterial">
            <path d="M16.1755013,12.1787427 L16.4516817,8.45359682 L19.270992,8.45359682 L18.7123183,12.1787427 L16.1755013,12.1787427 Z M15.1829814,16.6739682 L12.5308329,16.7686631 L12.5308329,12.8361432 L15.4675438,12.8361432 L15.1829814,16.6739682 Z M7.74011671,8.45359682 L8.0989496,12.1787427 L5.17836605,12.1787427 L4.29131034,8.45359682 L7.74011671,8.45359682 Z M12.5308329,8.45359682 L15.7924775,8.45359682 L15.516244,12.1787427 L12.5308329,12.1787427 L12.5308329,8.45359682 Z M8.75932095,12.1787427 L8.40054111,8.45359682 L11.8734324,8.45359682 L11.8734324,12.1787427 L8.75932095,12.1787427 Z M6.32398939,16.9901485 L5.33486472,12.8361432 L8.16223873,12.8361432 L8.55465252,16.9105199 L6.32398939,16.9901485 Z M9.21284881,16.8870186 L8.82266313,12.8361432 L11.8734854,12.8361432 L11.8734854,16.7920584 L9.21284881,16.8870186 Z M11.6543873,4.18012202 L11.6543873,4.18006897 C11.6543873,4.16266844 11.6526366,4.14569231 11.6500371,4.12898143 C11.6342812,4.02876923 11.5734854,3.94367639 11.4887639,3.89508223 C11.4406472,3.86744297 11.3851034,3.8513687 11.325687,3.8513687 L10.3395862,3.8513687 L10.3395862,0.696302387 L16.6943873,0.696302387 L16.6943873,7.79619629 L12.2038833,7.79619629 C12.2032997,7.79619629 12.2027692,7.79609019 12.2021857,7.79609019 C12.2016021,7.79609019 12.2011247,7.79619629 12.2004881,7.79619629 L11.6544403,7.79619629 L11.6544403,4.18017507 C11.6543873,4.18017507 11.6543873,4.18017507 11.6543873,4.18012202 L11.6543873,4.18012202 Z M7.60043501,21.8206525 C7.17757029,21.8206525 6.83348541,21.4766207 6.83348541,21.0536499 C6.83348541,20.6307851 7.17751724,20.2867533 7.60043501,20.2867533 C8.02335279,20.2867533 8.36738462,20.6307851 8.36738462,21.0536499 C8.36743767,21.4766207 8.02340584,21.8206525 7.60043501,21.8206525 L7.60043501,21.8206525 Z M15.9274907,21.8206525 C15.504626,21.8206525 15.1605411,21.4766207 15.1605411,21.0536499 C15.1605411,20.6307851 15.504626,20.2867533 15.9274907,20.2867533 C16.3503554,20.2867533 16.6944403,20.6307851 16.6944403,21.0536499 C16.6944403,21.4766207 16.3504085,21.8206525 15.9274907,21.8206525 L15.9274907,21.8206525 Z M19.9016552,7.91014854 C19.839374,7.8377878 19.7487109,7.79619629 19.6527427,7.79619629 L17.3518408,7.79619629 L17.3518408,0.367602122 C17.3518408,0.18606366 17.204679,0.0389018568 17.0231406,0.0389018568 L10.0108859,0.0389018568 C9.82940053,0.0389018568 9.68223873,0.18606366 9.68223873,0.367602122 L9.68223873,3.8513687 L7.81963926,3.8513687 C7.6382069,3.8513687 7.49093899,3.99906101 7.49093899,4.18006897 C7.49093899,4.36150133 7.6382069,4.50876923 7.81963926,4.50876923 L10.0079682,4.50876923 C10.0089761,4.50876923 10.009931,4.50892838 10.010939,4.50892838 C10.0119469,4.50892838 10.0129019,4.50876923 10.0139098,4.50876923 L10.9970928,4.50876923 L10.9970928,7.79619629 L8.04276923,7.79619629 L8.03857825,7.79619629 L5.94356499,7.79619629 L5.95566048,4.50876923 L6.5048382,4.50876923 C6.68584615,4.50876923 6.83353846,4.36150133 6.83353846,4.18006897 C6.83353846,3.99906101 6.68584615,3.8513687 6.5048382,3.8513687 L5.62833952,3.8513687 C5.57847215,3.8513687 5.53131034,3.86282759 5.48897613,3.88277454 C5.37751724,3.93502918 5.30001061,4.04770822 5.29948011,4.17895491 L5.28611141,7.79619629 L4.13475862,7.79619629 L3.04696021,3.22776127 C3.04627056,3.22500265 3.04531565,3.22245623 3.04462599,3.21975066 C3.04282228,3.21301326 3.04096552,3.20627586 3.0387374,3.19969761 C3.03735809,3.19555968 3.03581963,3.19152785 3.03428117,3.18744297 C3.03205305,3.18155438 3.02977188,3.17566578 3.02717241,3.16998939 C3.02510345,3.16532095 3.02282228,3.16075862 3.02059416,3.15624934 C3.01815385,3.15142175 3.01571353,3.14670027 3.01306101,3.14197878 C3.01024934,3.13693899 3.00722546,3.13205836 3.00409549,3.12723077 C3.00154907,3.12330504 2.9990557,3.11937931 2.99635013,3.11555968 C2.99279576,3.11051989 2.98913528,3.10563926 2.9853687,3.10086472 C2.98266313,3.09741645 2.97990451,3.09396817 2.97709284,3.09062599 C2.97311406,3.08601061 2.96892308,3.08150133 2.9647321,3.07709814 C2.96160212,3.07380902 2.95847215,3.07062599 2.95523607,3.06744297 C2.95104509,3.06346419 2.94669496,3.05953846 2.94229178,3.05571883 C2.9386313,3.05253581 2.93491777,3.04940584 2.93104509,3.04632891 C2.92685411,3.04303979 2.92250398,3.03980371 2.91815385,3.03672679 C2.91380371,3.03359682 2.90940053,3.03057294 2.90489125,3.02760212 C2.90070027,3.0249496 2.89640318,3.02235013 2.89205305,3.01985676 C2.88717241,3.01709814 2.88229178,3.01428647 2.87730504,3.01174005 C2.87290186,3.00951194 2.86849867,3.00738992 2.86404244,3.00532095 C2.8589496,3.00298674 2.85385676,3.00075862 2.84855172,2.9986366 C2.84377719,2.99667374 2.83889655,2.99497613 2.83390981,2.99327851 C2.82897613,2.99163395 2.82404244,2.98993634 2.8189496,2.98845093 C2.81332626,2.98680637 2.80759682,2.98542706 2.80186737,2.9841008 C2.79741114,2.98303979 2.79290186,2.98197878 2.78839257,2.98112997 C2.78181432,2.97990981 2.77518302,2.97895491 2.76844562,2.9781061 C2.76457294,2.97762865 2.76064721,2.97709814 2.75672149,2.97672679 C2.74945358,2.97609019 2.74213263,2.97577188 2.73481167,2.97566578 C2.7322122,2.97561273 2.72971883,2.97529443 2.72717241,2.97529443 L0.369082228,2.97529443 C0.187543767,2.97529443 0.0403819629,3.12245623 0.0403819629,3.30394164 C0.0403819629,3.48548011 0.187543767,3.63264191 0.369082228,3.63264191 L2.46754377,3.63264191 L5.70070027,17.210679 C5.20027586,17.492695 4.86133687,18.0289284 4.86133687,18.6431459 C4.86133687,19.5154005 5.54436074,20.2307321 6.40351194,20.283305 C6.25990451,20.5055862 6.17613793,20.7700424 6.17613793,21.0538621 C6.17613793,21.8392202 6.81507692,22.4782122 7.60048806,22.4782122 C8.3858992,22.4782122 9.02478515,21.8392732 9.02478515,21.0538621 C9.02478515,20.7715279 8.94186737,20.5082918 8.79963926,20.2867003 L14.7283395,20.2867003 C14.5861114,20.5083448 14.5031406,20.7715279 14.5031406,21.0538621 C14.5031406,21.8392202 15.1420796,22.4782122 15.9274907,22.4782122 C16.7129019,22.4782122 17.3518408,21.8392732 17.3518408,21.0538621 C17.3518408,20.7715279 17.26887,20.5082918 17.1266419,20.2867003 L18.3378355,20.2867003 C18.5194271,20.2867003 18.6665889,20.1395385 18.6665889,19.958 C18.6665889,19.7765146 18.5194271,19.6292997 18.3378355,19.6292997 L6.50478515,19.6292997 C6.50462599,19.6292997 6.50446684,19.6293528 6.50420159,19.6293528 C5.96075332,19.6289814 5.51868435,19.1868064 5.51868435,18.643252 C5.51868435,18.0995385 5.96107162,17.6572573 6.50478515,17.6572573 C6.54367109,17.6572573 6.58080637,17.6500955 6.61539523,17.6377347 L18.3497719,17.2185836 C18.5075968,17.2129072 18.6394801,17.0954536 18.6627162,16.9389019 L18.8568806,15.6461167 C18.8700371,15.5593263 18.8481273,15.4725358 18.7959788,15.4019788 C18.7438302,15.3314218 18.6671194,15.2854271 18.580382,15.272695 C18.5641485,15.2700424 18.5474907,15.2687692 18.5312573,15.2687692 C18.369931,15.2687692 18.2306207,15.3892997 18.2065358,15.5488223 L18.0531141,16.5717401 L15.8439894,16.6505729 L16.1268011,12.8363024 L18.6137507,12.8363024 L18.4019735,14.248504 C18.388817,14.3352414 18.4102493,14.4220318 18.4624509,14.4925889 C18.5145995,14.5631459 18.5913103,14.6091406 18.6781008,14.6223501 C18.6942812,14.6249496 18.710939,14.6257984 18.7271724,14.6257984 C18.8884456,14.6257984 19.027809,14.5057454 19.0519469,14.3462228 L19.9779947,8.17375597 C19.992,8.07884881 19.9643607,7.98288064 19.9016552,7.91014854 L19.9016552,7.91014854 Z" id="Fill-1" fill="#EC3225"></path>
            <path d="M18.7122865,12.1787427 L16.1755225,12.1787427 L16.451756,8.45359682 L19.2710133,8.45359682 L18.7122865,12.1787427 Z M15.5162653,12.1787427 L12.5308011,12.1787427 L12.5308011,8.45359682 L15.7924987,8.45359682 L15.5162653,12.1787427 Z M15.1830027,16.6739682 L12.5308011,16.7686631 L12.5308011,12.8361432 L15.467565,12.8361432 L15.1830027,16.6739682 Z M11.8734536,16.7920584 L9.21287003,16.8870186 L8.8227374,12.8361432 L11.8734536,12.8361432 L11.8734536,16.7920584 Z M8.40061538,8.45359682 L11.8734005,8.45359682 L11.8734005,12.1787427 L8.75934218,12.1787427 L8.40061538,8.45359682 Z M6.32395756,16.9901485 L5.33483289,12.8361432 L8.1622069,12.8361432 L8.55462069,16.9105199 L6.32395756,16.9901485 Z M4.29133156,8.45359682 L7.74008488,8.45359682 L8.09891777,12.1787427 L5.17833422,12.1787427 L4.29133156,8.45359682 Z M7.60045623,20.2867533 C8.02337401,20.2867533 8.36740584,20.6307851 8.36740584,21.0536499 C8.36745889,21.4766207 8.02342706,21.8206525 7.60045623,21.8206525 C7.17753846,21.8206525 6.83345358,21.4766207 6.83345358,21.0536499 C6.83345358,20.6307851 7.17748541,20.2867533 7.60045623,20.2867533 L7.60045623,20.2867533 Z M15.9275119,20.2867533 C16.3504297,20.2867533 16.6944085,20.6307851 16.6944085,21.0536499 C16.6944085,21.4766207 16.3504297,21.8206525 15.9275119,21.8206525 C15.5045942,21.8206525 15.1605623,21.4766207 15.1605623,21.0536499 C15.1605623,20.6307851 15.5045942,20.2867533 15.9275119,20.2867533 L15.9275119,20.2867533 Z M19.720244,7.80330504 L4.62432891,7.80330504 L4.62432891,7.79619629 L4.13472679,7.79619629 L3.04692838,3.22776127 C3.04623873,3.22500265 3.04533687,3.22245623 3.04464721,3.21975066 C3.04279045,3.21301326 3.04098674,3.20627586 3.03875862,3.19969761 C3.03737931,3.19555968 3.03584085,3.1914748 3.03430239,3.18744297 C3.03207427,3.18155438 3.02974005,3.17566578 3.02714058,3.16998939 C3.02507162,3.16532095 3.02279045,3.16075862 3.02056233,3.15624934 C3.01817507,3.15142175 3.01573475,3.14670027 3.01302918,3.14197878 C3.01027056,3.13693899 3.00719363,3.13205836 3.00411671,3.12723077 C3.00162334,3.12330504 2.99907692,3.11937931 2.9963183,3.11555968 C2.99281698,3.11051989 2.9891565,3.10563926 2.98533687,3.10086472 C2.98268435,3.09741645 2.97992573,3.09396817 2.97711406,3.09062599 C2.97308223,3.08601061 2.96889125,3.08150133 2.96470027,3.07709814 C2.96162334,3.07380902 2.95849337,3.07062599 2.95520424,3.06744297 C2.95101326,3.06346419 2.94666313,3.05953846 2.942313,3.05571883 C2.93865252,3.05253581 2.93493899,3.04940584 2.93101326,3.04632891 C2.92682228,3.04303979 2.92247215,3.03980371 2.91812202,3.03672679 C2.91377188,3.03359682 2.9093687,3.03057294 2.90485942,3.02760212 C2.90072149,3.0249496 2.8964244,3.02235013 2.89207427,3.01985676 C2.88719363,3.01709814 2.88225995,3.01428647 2.87732626,3.01174005 C2.87292308,3.00951194 2.86851989,3.00738992 2.86406366,3.00532095 C2.85902387,3.00298674 2.85382493,3.00075862 2.84862599,2.9986366 C2.84374536,2.99667374 2.83891777,2.99497613 2.83393103,2.99327851 C2.82899735,2.99163395 2.82401061,2.98993634 2.81897082,2.98845093 C2.81334748,2.98680637 2.80756499,2.98542706 2.80183554,2.9841008 C2.79737931,2.98303979 2.79292308,2.98197878 2.78836074,2.98112997 C2.78178249,2.97990981 2.77515119,2.97895491 2.76841379,2.9781061 C2.76459416,2.97762865 2.76072149,2.97709814 2.75668966,2.97672679 C2.7494748,2.97609019 2.7421008,2.97577188 2.73477984,2.97566578 C2.73218037,2.97561273 2.72974005,2.97529443 2.72719363,2.97529443 L0.369050398,2.97529443 C0.187618037,2.97529443 0.040403183,3.12245623 0.040403183,3.30394164 C0.040403183,3.48548011 0.187618037,3.63264191 0.369050398,3.63264191 L2.46756499,3.63264191 L5.70066844,17.210679 C5.20024403,17.492695 4.86135809,18.0289284 4.86135809,18.6431459 C4.86135809,19.5154005 5.54438196,20.2307321 6.40348011,20.283305 C6.25987268,20.5055862 6.1761061,20.7700424 6.1761061,21.0538621 C6.1761061,21.8392202 6.81504509,22.4782122 7.60045623,22.4782122 C8.38592042,22.4782122 9.02485942,21.8392732 9.02485942,21.0538621 C9.02485942,20.7715279 8.94194164,20.5082918 8.79960743,20.2867003 L14.7283077,20.2867003 C14.5861326,20.5083448 14.5031088,20.7715279 14.5031088,21.0538621 C14.5031088,21.8392202 15.1420477,22.4782122 15.9275119,22.4782122 C16.7129231,22.4782122 17.351809,21.8392732 17.351809,21.0538621 C17.351809,20.7715279 17.2689443,20.5082918 17.1266101,20.2867003 L18.3378037,20.2867003 C18.5193952,20.2867003 18.6666101,20.1395385 18.6666101,19.958 C18.6666101,19.7764615 18.5193952,19.6292997 18.3378037,19.6292997 L6.50480637,19.6292997 C6.50459416,19.6292997 6.50443501,19.6293528 6.50422281,19.6293528 C5.96072149,19.6289814 5.51870557,19.1868064 5.51870557,18.643252 C5.51870557,18.0995385 5.96109284,17.6572573 6.50480637,17.6572573 C6.54369231,17.6572573 6.58077454,17.6500955 6.6154695,17.6377347 L18.3498462,17.2185836 C18.507618,17.2129072 18.6394483,17.0954536 18.6627374,16.9389019 L18.8569549,15.6461167 C18.8700584,15.5593263 18.8481485,15.4725358 18.7959469,15.4019788 C18.7438515,15.3314218 18.6670875,15.2854271 18.5804032,15.272695 C18.5641167,15.2700424 18.5475119,15.2687692 18.5312785,15.2687692 C18.3699523,15.2687692 18.2305889,15.3892997 18.206504,15.5488223 L18.0530822,16.5717401 L15.8440637,16.6505729 L16.1268223,12.8363024 L18.6138249,12.8363024 L18.4019416,14.248504 C18.3887851,14.3352414 18.4102706,14.4220318 18.4624721,14.4925889 C18.5145676,14.5631459 18.5913316,14.6091406 18.678069,14.6223501 C18.6942493,14.6249496 18.7110133,14.6257984 18.7271406,14.6257984 C18.8884138,14.6257984 19.0277772,14.5057454 19.0518621,14.3462228 L19.9779629,8.17375597 C19.9919682,8.07884881 19.964382,7.98288064 19.9016764,7.91014854 C19.8542493,7.85508223 19.7903767,7.81794695 19.720244,7.80330504 L19.720244,7.80330504 Z" id="Fill-3" fill="#072845"></path>
        </g>
    </g>
</svg>