<?xml version="1.0" encoding="UTF-8"?>
<svg width="33px" height="28px" viewBox="0 0 33 28" version="1.1" xmlns="http://www.w3.org/2000/svg" xmlns:xlink="http://www.w3.org/1999/xlink">
    <!-- Generator: Sketch 51.2 (57519) - http://www.bohemiancoding.com/sketch -->
    <title>ic_flag_eng</title>
    <desc>Created with Sketch.</desc>
    <defs>
        <rect id="path-1" x="0" y="0" width="25" height="17.8571429" rx="2"></rect>
        <rect id="path-3" x="0.595238095" y="0.595238095" width="23.8095238" height="16.6666667" rx="1"></rect>
    </defs>
    <g id="Symbol" stroke="none" stroke-width="1" fill="none" fill-rule="evenodd">
        <g id="ic/flag_eng">
            <g id="GB" transform="translate(4.000000, 5.000000)">
                <mask id="mask-2" fill="white">
                    <use xlink:href="#path-1"></use>
                </mask>
                <use id="background" fill="#22438B" xlink:href="#path-1"></use>
                <polygon id="band" fill="#FFFFFF" mask="url(#mask-2)" points="3.57142853 1.19047615 1.15908667 1.22186569 1.19047622 3.57142857 21.4068582 16.7001006 23.8318787 16.6560335 23.7878117 14.3191489"></polygon>
                <path d="M1.19047619,1.19047621 C1.03154434,1.34940804 1.19047615,2.38095231 1.19047615,2.38095231 L22.6190469,16.6666661 C22.6190469,16.6666661 23.6200176,16.8561725 23.8095238,16.6666667 C23.99903,16.4771608 23.8095246,15.476191 23.8095246,15.476191 L2.38095241,1.19047621 C2.38095241,1.19047621 1.34940804,1.03154438 1.19047619,1.19047621 Z" id="band" fill="#C7152A" mask="url(#mask-2)"></path>
                <path d="M21.4285714,1.19047621 L23.8095238,1.19047618 L23.809524,3.57142853 C23.809524,3.57142853 9.82221731,12.3764432 3.5931407,16.7001012 C3.51740912,16.7526672 1.2146448,16.7038846 1.2146448,16.7038846 L1.02952386,14.4377725 L21.4285714,1.19047621 L21.4285714,1.19047621 Z" id="band" fill="#FFFFFF" mask="url(#mask-2)"></path>
                <path d="M23.8095238,1.19047619 L23.8095238,2.38095237 L2.38095202,16.6666669 C2.38095202,16.6666669 1.40349395,16.8796845 1.19047619,16.6666667 C0.977458428,16.4536488 1.19047619,15.4761905 1.19047619,15.4761905 L22.6700647,1.15734534 L23.8095238,1.19047619 Z" id="band" fill="#C7152A" mask="url(#mask-2)"></path>
                <polygon id="cross" fill="#FFFFFF" mask="url(#mask-2)" points="9.52380952 1.19047619 15.4761905 1.19047619 15.4761905 5.95238095 23.8095238 5.95238095 23.8095238 11.9047619 15.4761905 11.9047619 15.4761905 16.6666667 9.52380952 16.6666667 9.52380952 11.9047619 1.19047619 11.9047619 1.19047619 5.95238095 9.52380952 5.95238095"></polygon>
                <polygon id="cross" fill="#C7152A" mask="url(#mask-2)" points="10.7142857 1.19047619 14.2857143 1.19047619 14.2857143 7.14285714 23.8095238 7.14285714 23.8095238 10.7142857 14.2857143 10.7142857 14.2857143 16.6666667 10.7142857 16.6666667 10.7142857 10.7142857 1.19047619 10.7142857 1.19047619 7.14285714 10.7142857 7.14285714"></polygon>
                <mask id="mask-4" fill="white">
                    <use xlink:href="#path-3"></use>
                </mask>
                <use id="overlay" stroke-opacity="0.156646286" stroke="#2F343A" xlink:href="#path-3"></use>
            </g>
        </g>
    </g>
</svg>