<?xml version="1.0" encoding="UTF-8"?>
<svg width="20px" height="19px" viewBox="0 0 20 19" version="1.1" xmlns="http://www.w3.org/2000/svg" xmlns:xlink="http://www.w3.org/1999/xlink">
    <!-- Generator: Sketch 64 (93537) - https://sketch.com -->
    <title>ic_renovasi</title>
    <desc>Created with Sketch.</desc>
    <g id="Page-1" stroke="none" stroke-width="1" fill="none" fill-rule="evenodd">
        <g id="ic_renovasi">
            <path d="M3.88512354,15.2025082 C3.54335198,15.2025082 3.26628904,15.4795245 3.26628904,15.821296 C3.26628904,16.1630676 3.54335198,16.4401772 3.88512354,16.4401772 C4.22684848,16.4401772 4.5038648,16.1630676 4.5038648,15.821296 C4.5038648,15.4795245 4.22684848,15.2025082 3.88512354,15.2025082 L3.88512354,15.2025082 Z M0.635193473,5.26255478 L0.635193473,0.338545455 C0.635193473,0.170853147 0.771184149,0.0348624709 0.938876457,0.0348624709 L6.83141725,0.0348624709 C6.99910956,0.0348624709 7.13510023,0.170853147 7.13510023,0.338545455 L7.13510023,5.26255478 L7.45029837,5.26255478 C7.61799068,5.26255478 7.75398135,5.39854545 7.75398135,5.56619114 L7.75398135,9.71882517 C7.75398135,9.83845221 7.68475058,9.94199534 7.5840979,9.99150583 C6.80945921,10.453697 6.21132401,10.8455385 5.74255944,11.1527646 C5.6408345,11.2192914 5.54661538,11.2811096 5.44186014,11.3488485 C5.45510023,11.9953753 5.56209324,12.477986 5.66764103,12.9547692 C5.78591608,13.4890816 5.90297902,14.0171002 5.90297902,14.7353287 C5.90297902,16.5088951 5.40973893,17.6628345 4.77845688,18.183021 C4.50064802,18.411972 4.19482051,18.5263776 3.88512354,18.5263776 C3.57556643,18.5263776 3.26950583,18.411972 2.99174359,18.183021 C2.36050816,17.6628345 1.86722145,16.5088485 1.86722145,14.7353287 C1.86722145,14.0171002 1.98423776,13.4890816 2.10260606,12.9547692 C2.20815385,12.477986 2.31510023,11.9953753 2.32829371,11.3488019 C2.22512354,11.2818555 2.13090443,11.2202704 2.03057809,11.1545361 C1.55701166,10.844373 0.951184149,10.4473566 0.164470862,9.97854545 C0.0698321678,9.92194872 0.0172913753,9.82171562 0.0171981352,9.71882517 L0.0162191142,9.71882517 L0.0162191142,5.56619114 C0.0162191142,5.39854545 0.15220979,5.26255478 0.319902098,5.26255478 L0.635193473,5.26255478 Z M1.77053147,5.26255478 L1.77053147,3.18647086 C1.77053147,3.07472261 1.86125408,2.98409324 1.97295571,2.98409324 C2.08475058,2.98409324 2.17542657,3.07472261 2.17542657,3.18647086 L2.17542657,5.26255478 L2.88209324,5.26255478 L2.88209324,4.27122611 C2.88209324,4.15952448 2.97286247,4.06884848 3.0845641,4.06884848 C3.19635897,4.06884848 3.28703497,4.15952448 3.28703497,4.27122611 L3.28703497,5.26255478 L4.18116084,5.26255478 L4.18116084,2.24898834 C4.18116084,2.13724009 4.27179021,2.04661072 4.38353846,2.04661072 C4.49533333,2.04661072 4.58605594,2.13724009 4.58605594,2.24898834 L4.58605594,5.26255478 L5.68097436,5.26255478 L5.68097436,3.77570163 C5.68097436,3.66395338 5.77174359,3.57318415 5.88349184,3.57318415 C5.99524009,3.57318415 6.08591608,3.66395338 6.08591608,3.77570163 L6.08591608,5.26255478 L6.52773427,5.26255478 L6.52773427,0.642321678 L1.24251282,0.642321678 L1.24251282,5.26255478 L1.77053147,5.26255478 Z M7.14661538,6.45206527 L7.14661538,5.86992075 L6.83141725,5.86992075 L0.938876457,5.86992075 L0.623631702,5.86992075 L0.623631702,6.45206527 L7.14661538,6.45206527 Z M0.623631702,8.3805035 L7.14661538,8.3805035 L7.14661538,6.85696037 L0.623631702,6.85696037 L0.623631702,8.3805035 Z M2.93589277,11.2044662 L2.93589277,11.2141166 L2.9371049,11.2141166 C2.9371049,11.9847459 2.81440093,12.5384988 2.69328205,13.085352 C2.58330536,13.5817622 2.47458741,14.0724848 2.47458741,14.7353287 C2.47458741,16.3094545 2.87006527,17.2985921 3.37612587,17.7155618 C3.5406014,17.8511329 3.71486713,17.9190583 3.88512354,17.9190583 C4.05537995,17.9190583 4.22964569,17.8511329 4.39412121,17.7155618 C4.9001352,17.2985921 5.29561305,16.3095944 5.29561305,14.7353287 C5.29561305,14.0724848 5.18694172,13.5817622 5.07691841,13.085352 C4.95584615,12.5384988 4.83314219,11.9847459 4.83314219,11.2141166 L4.83430769,11.2141166 L4.83430769,11.2044662 C4.82759441,11.0982191 4.8771049,10.9915058 4.97304895,10.9299674 C5.07262937,10.8661911 5.23388811,10.7604569 5.41034499,10.6449324 C5.84815385,10.3581259 6.40064802,9.99612121 7.14661538,9.54782284 L7.14661538,8.78544522 L0.623631702,8.78544522 L0.623631702,9.54782284 C1.37127739,9.99719347 1.92437762,10.3596177 2.36274592,10.646704 C2.5380373,10.7616224 2.69617249,10.8652121 2.79715152,10.9299674 C2.89314219,10.9915058 2.94260606,11.0982191 2.93589277,11.2044662 L2.93589277,11.2044662 Z" id="Fill-1" fill="#012846"></path>
            <path d="M18.6874452,16.7690583 L18.2546713,16.7690583 L9.72492774,16.7690583 L9.29206061,16.7690583 C9.11024242,16.7690583 8.9448345,16.8432774 8.8250676,16.9627646 L8.82567366,16.963324 C8.70586014,17.0830909 8.63150117,17.2482657 8.63150117,17.4295711 L8.63150117,17.4296643 C8.63150117,17.6110163 8.70586014,17.7762378 8.82567366,17.8960047 L8.83784149,17.9088718 C8.95644289,18.0211329 9.11658275,18.0901772 9.29206061,18.0901772 L18.6874452,18.0901772 C18.8687972,18.0901772 19.0340653,18.0157716 19.1537855,17.8960047 C19.2735524,17.7762378 19.3480047,17.6111096 19.3480047,17.4296643 L19.3480047,17.4295711 C19.3480047,17.2482191 19.2735524,17.0830909 19.1537855,16.963324 C19.0340653,16.8435105 18.8687972,16.7690583 18.6874452,16.7690583 L18.6874452,16.7690583 Z M10.9492634,7.82201865 L9.70432168,7.82201865 L9.29206061,7.82201865 C9.11024242,7.82201865 8.9448345,7.89619114 8.8250676,8.0156317 L8.82567366,8.01619114 C8.70586014,8.13595804 8.63150117,8.30113287 8.63150117,8.48257809 C8.63150117,8.66388345 8.70586014,8.8291049 8.82567366,8.94887179 L8.83784149,8.96178555 C8.95644289,9.074 9.11658275,9.14309091 9.29206061,9.14309091 L9.72492774,9.14309091 L10.9492634,9.14309091 L10.9492634,7.82201865 Z M15.1413846,9.14309091 L18.2546713,9.14309091 L18.6874452,9.14309091 C18.8687972,9.14309091 19.0340653,9.06863869 19.1537855,8.94887179 C19.2735524,8.8291049 19.3480047,8.66397669 19.3480047,8.48257809 C19.3480047,8.30113287 19.2735524,8.13595804 19.1537855,8.01619114 C19.0340653,7.89637762 18.8687972,7.82201865 18.6874452,7.82201865 L18.2750909,7.82201865 L15.1413846,7.82201865 L15.1413846,9.14309091 Z M9.41061538,7.21460606 C9.48548718,6.06835897 9.98129138,5.03684382 10.7448345,4.27339394 C11.5751375,3.44295105 12.7225501,2.92924476 13.9897296,2.92924476 C15.2568159,2.92924476 16.4041352,3.44295105 17.2346713,4.27339394 C17.9981212,5.03684382 18.4939254,6.06835897 18.5688438,7.21460606 L18.6874452,7.21460606 C19.0363497,7.21460606 19.3535524,7.35721678 19.5832028,7.58682051 C19.8128065,7.81637762 19.9553706,8.13362704 19.9553706,8.48257809 C19.9553706,8.83152914 19.8128065,9.14863869 19.5832028,9.37824242 C19.3535524,9.60789277 19.0363497,9.7505035 18.6874452,9.7505035 L18.5583077,9.7505035 L18.5583077,16.1616923 L18.6874452,16.1616923 C19.0363497,16.1616923 19.3535524,16.304303 19.5832028,16.5339534 C19.8128065,16.7634639 19.9553706,17.08062 19.9553706,17.4295711 L19.9553706,17.4296643 C19.9553706,17.778662 19.8128065,18.0957716 19.5832028,18.3253753 C19.3535524,18.554979 19.0363497,18.6975431 18.6874452,18.6975431 L9.29206061,18.6975431 C8.95248019,18.6975431 8.64278322,18.561972 8.41453147,18.3422517 C8.40828438,18.3368438 8.40217716,18.331296 8.39630303,18.3253753 C8.16665268,18.0957716 8.02408858,17.7785688 8.02408858,17.4296643 L8.02408858,17.4295711 C8.02408858,17.0807599 8.16665268,16.7634639 8.39630303,16.5339534 L8.39686247,16.5344662 L8.39742191,16.5339534 C8.6271655,16.3042098 8.9439021,16.1616923 9.29206061,16.1616923 L9.42124476,16.1616923 L9.42124476,9.7505035 L9.29206061,9.7505035 C8.95248019,9.7505035 8.64278322,9.6149324 8.41453147,9.39511888 C8.40828438,9.38975758 8.40217716,9.38416317 8.39630303,9.37824242 C8.16665268,9.14863869 8.02408858,8.83148252 8.02408858,8.48257809 C8.02408858,8.13362704 8.16665268,7.81637762 8.39630303,7.58682051 L8.39686247,7.58737995 L8.39742191,7.58682051 C8.6271655,7.35717016 8.9439021,7.21460606 9.29206061,7.21460606 L9.41061538,7.21460606 Z M17.959986,7.21460606 C17.8862331,6.23605128 17.4587273,5.35614452 16.8052541,4.70281119 C16.0848345,3.98234499 15.0892634,3.53661072 13.9897296,3.53661072 C12.8900559,3.53661072 11.8945781,3.98234499 11.1742051,4.70281119 C10.5207319,5.35614452 10.0932261,6.23605128 10.0194732,7.21460606 L11.2528998,7.21460606 L14.8377016,7.21460606 L17.959986,7.21460606 Z M10.0286107,9.7505035 L10.0286107,16.1616923 L17.9508951,16.1616923 L17.9508951,9.7505035 L15.1413846,9.7505035 L15.1413846,11.1060746 C15.1413846,11.3530676 15.0398462,11.5785688 14.8763497,11.7421119 L14.8769557,11.7427179 C14.7138322,11.9058415 14.488331,12.0071469 14.2403124,12.0071469 L14.2401259,12.0071469 C13.9921072,12.0071469 13.7666993,11.9058415 13.6035758,11.7427179 C13.5970956,11.7361911 13.591035,11.7295245 13.5853007,11.7226247 C13.4328531,11.5608998 13.3390536,11.3434172 13.3390536,11.1060746 L13.3390536,10.8801538 C13.3390536,10.7988951 13.306373,10.7254219 13.2537389,10.6728811 L13.2531795,10.6723217 L13.25262,10.6728811 C13.1993333,10.6195944 13.1258601,10.5864009 13.0453939,10.5864009 L13.0452541,10.5864009 C12.9647879,10.5864009 12.8913613,10.6195944 12.838028,10.6728811 L12.8266061,10.6837436 C12.7800793,10.735352 12.7515478,10.8043497 12.7515478,10.8801538 L12.7515478,13.0099441 C12.7515478,13.2579627 12.6501492,13.4834639 12.4870256,13.6465874 C12.3239487,13.8096643 12.0984942,13.9110629 11.8504289,13.9110629 L11.8503823,13.9110629 C11.6022704,13.9110629 11.3768625,13.8096643 11.2137389,13.6465874 C11.0505688,13.4834639 10.9492634,13.2579627 10.9492634,13.0099441 L10.9492634,9.7505035 L10.0286107,9.7505035 Z" id="Fill-3" fill="#012846"></path>
            <polygon id="Fill-5" fill="#FFFFFF" points="11.0728065 7.79686247 15.0815245 7.79686247 14.7777483 11.5277249 13.8848811 11.7158834 13.3164895 10.8184009 12.8977016 10.8184009 12.6882378 13.1218974 11.7907552 13.6604056 11.1625501 12.9124802"></polygon>
            <path d="M11.9921865,14.0244382 C11.6772214,14.0244382 11.3818368,13.8926434 11.1606247,13.6533893 C10.9463124,13.4211282 10.8285035,13.1152541 10.8285035,12.7918508 L10.8285035,7.133669 L11.496662,7.133669 L11.496662,12.7918508 C11.496662,12.9468159 11.5517203,13.0918508 11.6515338,13.2000559 C11.8377343,13.4013147 12.1467786,13.401641 12.3326061,13.1999627 C12.4326061,13.0917576 12.4876643,12.9468159 12.4876643,12.7918508 L12.4876643,10.6683077 C12.4876643,10.5173986 12.5396457,10.3719907 12.6340513,10.258704 C12.6397389,10.251711 12.6457995,10.2451375 12.6520932,10.238704 C12.8785268,9.99408858 13.2737249,9.98672261 13.5044942,10.2105921 C13.5149837,10.219683 13.5245408,10.2293333 13.5336317,10.2396364 C13.6387133,10.3557203 13.6966154,10.5076084 13.6966154,10.6683077 L13.6966154,10.8936224 C13.6966154,11.0414545 13.7478974,11.1817809 13.8412308,11.289007 C14.0437483,11.511338 14.3345641,11.5036457 14.5211841,11.3139021 C14.524634,11.3097529 14.528317,11.3055105 14.5320466,11.3013613 C14.6323263,11.1925967 14.6875711,11.0477016 14.6875711,10.8936224 L14.6875711,7.19371562 L15.3557296,7.19371562 L15.3557296,10.8936224 C15.3557296,11.2074685 15.2439814,11.5054639 15.0403916,11.7355804 C15.0351235,11.7422471 15.0294825,11.7486807 15.0238415,11.7549277 C14.8028625,11.9943217 14.5074779,12.1261166 14.1922331,12.1261166 C13.8769417,12.1261166 13.5815571,11.9943217 13.3605781,11.7549277 C13.349669,11.7430396 13.3383403,11.7297995 13.3274779,11.716 C13.2568019,11.6349744 13.1974079,11.5430862 13.1504149,11.4435991 L13.1558695,12.7918508 C13.1558695,13.1153473 13.0377809,13.4213613 12.8235152,13.6533893 C12.6027226,13.8926434 12.3073846,14.0244382 11.9921865,14.0244382" id="Fill-7" fill="#ED3024"></path>
        </g>
    </g>
</svg>