<?xml version="1.0" encoding="UTF-8"?>
<svg width="20px" height="20px" viewBox="0 0 20 20" version="1.1" xmlns="http://www.w3.org/2000/svg" xmlns:xlink="http://www.w3.org/1999/xlink">
    <!-- Generator: Sketch 64 (93537) - https://sketch.com -->
    <title>ic_furnish</title>
    <desc>Created with Sketch.</desc>
    <g id="Page-1" stroke="none" stroke-width="1" fill="none" fill-rule="evenodd">
        <g id="ic_furnish">
            <path d="M7.60538035,10.9279547 L7.36195466,10.7874005 L7.11852897,10.9279547 L7.11827708,10.9275013 L7.11752141,10.9279547 L6.87490176,11.068005 L6.87490176,11.3505239 L6.87490176,11.6328917 L7.10462469,11.7654861 C7.10925945,11.7678035 7.11394458,11.770272 7.11852897,11.7729421 L7.36195466,11.9135466 L7.60538035,11.7729421 L7.605733,11.7733955 L7.60643829,11.7729421 L7.84910831,11.6328917 L7.84910831,11.3505239 L7.84910831,11.068005 L7.61938539,10.9354106 C7.61470025,10.933194 7.61001511,10.9306751 7.60538035,10.9279547 L7.60538035,10.9279547 Z M8.43963728,10.2859395 C8.35691688,10.2404987 8.2595869,10.1870982 8.10376826,10.0972242 L8.08951134,10.0895668 C7.97354156,10.0225642 7.84991436,9.94775315 7.74583375,9.88452897 C7.5307204,9.75420151 7.42306297,9.68891184 7.36195466,9.68891184 C7.30099748,9.68891184 7.19334005,9.75420151 6.97817632,9.88452897 C6.87389421,9.94775315 6.74996474,10.0229169 6.63444836,10.0895668 L6.6341461,10.0892141 L6.63344081,10.0895668 C6.46925945,10.1843275 6.36915869,10.2392897 6.28457431,10.2858892 C6.06235768,10.4079547 5.95112343,10.4691637 5.92240806,10.5187355 C5.89283627,10.5700705 5.8955063,10.6969219 5.90084635,10.9501713 C5.90346599,11.0813552 5.90689169,11.2375768 5.90689169,11.3505239 C5.90689169,11.4633703 5.90346599,11.6195919 5.90084635,11.7507254 C5.8955063,12.0039748 5.89283627,12.1308262 5.92240806,12.1821612 C5.9511738,12.2318338 6.06240806,12.2929924 6.28432242,12.4150076 C6.36699244,12.4604484 6.46442317,12.5138489 6.62019144,12.6037229 L6.63444836,12.61133 C6.75041814,12.6783325 6.87394458,12.753194 6.97812594,12.8163678 C7.19328967,12.9466952 7.3009471,13.0119345 7.36195466,13.0119345 C7.42306297,13.0119345 7.53067003,12.9466952 7.745733,12.8163678 C7.85001511,12.753194 7.97399496,12.6779798 8.08951134,12.61133 L8.0898136,12.6117834 L8.09056927,12.61133 C8.25475063,12.5166196 8.35485139,12.4616071 8.43943577,12.4151083 C8.66165239,12.2929924 8.77293703,12.2318338 8.80150126,12.1821612 C8.83112343,12.1308262 8.8284534,12.0040756 8.82321411,11.7507254 C8.82044332,11.6195919 8.81716877,11.4633703 8.81716877,11.3505239 C8.81716877,11.2375768 8.82044332,11.0813552 8.82321411,10.9501713 C8.8284534,10.6969219 8.83112343,10.5701713 8.80150126,10.5188363 C8.77293703,10.4692141 8.66165239,10.4079547 8.43963728,10.2859395 L8.43963728,10.2859395 Z M8.34769773,9.67213602 C8.4511738,9.731733 8.57293703,9.79858438 8.67616121,9.85525945 C8.97701763,10.0205491 9.12759698,10.1033703 9.22643829,10.2746045 C9.32427204,10.4442267 9.32074559,10.6162166 9.31344081,10.9598438 C9.31157683,11.0482065 9.30941058,11.1520353 9.30941058,11.3505239 C9.30941058,11.5488615 9.31157683,11.6527909 9.31344081,11.7411537 C9.32074559,12.0847809 9.32427204,12.25667 9.22643829,12.4263426 C9.12759698,12.5976776 8.97701763,12.6804484 8.67590932,12.845738 C8.56850378,12.9048312 8.44074559,12.9750076 8.33540554,13.0358136 L8.33570781,13.0363174 C8.18165239,13.1251839 8.08306297,13.1850327 7.9995869,13.2355617 C7.70402015,13.4146549 7.55626196,13.5042771 7.36195466,13.5042771 C7.16769773,13.5042771 7.01978841,13.4146549 6.72427204,13.2355617 C6.64084635,13.184932 6.54175315,13.1248312 6.38825189,13.0363174 L6.37631234,13.0287607 C6.27268514,12.9693149 6.15097229,12.9023627 6.04784887,12.8456877 C5.74699244,12.680398 5.5964131,12.5975768 5.49757179,12.4262922 C5.39963728,12.2567708 5.40331486,12.0847809 5.41051889,11.7411537 C5.41228212,11.6527909 5.4145995,11.5488615 5.4145995,11.3505239 C5.4145995,11.1520353 5.41228212,11.0482065 5.41051889,10.9598438 C5.40331486,10.616267 5.39963728,10.4442267 5.49757179,10.2745542 C5.5964131,10.1033703 5.74699244,10.0204484 6.04794962,9.85510831 C6.1555063,9.79606549 6.28316373,9.72593955 6.38855416,9.66518388 L6.38825189,9.6646801 C6.54220655,9.57571285 6.64089673,9.51596474 6.72427204,9.46543577 C7.01988917,9.28624181 7.16769773,9.1967204 7.36195466,9.1967204 C7.55616121,9.1967204 7.70417128,9.28624181 7.99968766,9.46543577 C8.08316373,9.51601511 8.18220655,9.57611587 8.33570781,9.6646801 L8.34769773,9.67213602 Z M7.48502771,10.29133 L7.85157683,10.5030176 C7.85585894,10.5054861 7.85998992,10.5081058 7.86396977,10.5107758 L8.21726952,10.7147557 C8.29601008,10.7599446 8.34009068,10.8424131 8.34029219,10.9271486 L8.34129975,10.9271486 L8.34129975,11.3505239 L8.34129975,11.7737481 C8.34129975,11.8733451 8.28220655,11.9591385 8.19706801,11.9978791 L7.85132494,12.1974761 L7.85157683,12.1979295 L7.48502771,12.4095668 C7.40623678,12.4551587 7.31258438,12.452136 7.23898237,12.4095668 L6.87238287,12.1979295 C6.86810076,12.195461 6.86396977,12.1927909 6.8600403,12.1901713 L6.5066398,11.9862418 C6.42789924,11.9410025 6.38376826,11.8585844 6.38371788,11.7737481 L6.38265995,11.7737481 L6.38265995,11.3505239 L6.38265995,10.9271486 C6.38265995,10.8276524 6.44170277,10.7418589 6.52689169,10.7030176 L6.87268514,10.5034207 L6.87238287,10.5030176 L7.23898237,10.29133 C7.31772292,10.2457884 7.41137531,10.2488615 7.48502771,10.29133 L7.48502771,10.29133 Z" id="Fill-1" fill="#ED3024"></path>
            <path d="M13.3479597,16.6948413 C13.3491688,16.5711134 13.3510831,16.4626499 13.3526952,16.3648161 C13.3597985,15.937864 13.3633753,15.7312141 13.304937,15.6153451 C13.2485642,15.5036071 13.1022166,15.4029018 12.8188413,15.2079899 C12.7094207,15.1327254 12.579597,15.0433552 12.3948111,14.9098539 L12.3942569,14.9095013 L12.3941058,14.9098539 L12.3427708,14.8725743 L12.3422166,14.8721713 L12.3420151,14.8725743 L12.2971285,14.8396776 C12.2428715,14.8026499 12.2060957,14.7306599 12.2060957,14.6479899 L12.2060957,7.90103778 C12.2060957,7.81836776 12.2428715,7.74632746 12.2971285,7.70929975 L12.3420151,7.67640302 L12.3422166,7.67685642 L12.3427708,7.67640302 L12.3941058,7.63912343 L12.3942569,7.63952645 L12.3948111,7.63912343 C12.579597,7.50562217 12.7094207,7.41630227 12.8188413,7.34103778 C13.1022166,7.14612594 13.2485642,7.04542065 13.304937,6.93363224 C13.3633753,6.8178136 13.3597985,6.61111335 13.3526952,6.18421159 C13.3510831,6.08637783 13.3491688,5.97791436 13.3479597,5.8541864 C13.2262469,5.69912343 13.0923929,5.55851889 12.9484131,5.43529471 C12.8593451,5.35892191 12.7666499,5.28935013 12.6708816,5.22693199 L12.6708816,5.57529471 L12.6708816,6.33700756 C12.6708816,6.42345592 12.6307809,6.49806549 12.5724937,6.53348111 L12.0566247,6.90632746 L11.5295718,7.28723426 C11.4737531,7.32773804 11.4073552,7.32496725 11.3551637,7.28723426 L10.8281612,6.90632746 L10.3011587,6.52542065 C10.2454912,6.48506801 10.2144584,6.41212091 10.2143577,6.33700756 L10.2139043,6.33700756 L10.2139043,5.57529471 L10.2139043,5.22693199 C10.118136,5.28935013 10.0254912,5.35892191 9.93632242,5.43529471 C9.79244332,5.55851889 9.65858942,5.69912343 9.53687657,5.8541864 C9.53556675,5.97791436 9.53370277,6.08642821 9.53214106,6.18426196 C9.52488665,6.61121411 9.52156171,6.81786398 9.57979849,6.93363224 C9.63612091,7.04537028 9.78256927,7.14607557 10.0657935,7.34093703 C10.181864,7.42078589 10.3195466,7.51549622 10.4906801,7.63912343 L10.5415617,7.67605038 L10.541461,7.67625189 L10.542267,7.67685642 L10.5788413,7.70360705 C10.6378338,7.73856927 10.6786902,7.81383375 10.6786902,7.90093703 L10.6786902,14.6479899 C10.6786902,14.7349421 10.6379849,14.810005 10.5792443,14.8451184 L10.542267,14.8721713 L10.541461,14.8727254 L10.5415617,14.872927 L10.4906801,14.9098539 C10.3195466,15.0335315 10.181864,15.1282418 10.0657935,15.2080907 C9.78256927,15.4029018 9.63612091,15.5036071 9.57979849,15.6153451 C9.52141058,15.7312141 9.52488665,15.9378136 9.53214106,16.3647657 C9.53370277,16.4625995 9.53556675,16.5711134 9.53687657,16.6948413 C9.65858942,16.8499043 9.79244332,16.9905088 9.93632242,17.113733 C10.0254912,17.1901058 10.118136,17.2596776 10.2139043,17.3220957 L10.2139043,16.973733 L10.2139043,16.2119698 L10.2143577,16.2119698 C10.2144584,16.1369068 10.2454912,16.0639093 10.3011587,16.0235567 L10.8281612,15.6427003 L11.3551637,15.2617431 C11.4073552,15.2240605 11.4737531,15.2212897 11.5295718,15.2617431 L12.0566247,15.6427003 L12.5724937,16.0155466 C12.6307809,16.0509622 12.6708816,16.1255718 12.6708816,16.2119698 L12.6708816,16.973733 L12.6708816,17.3220957 C12.7666499,17.2596776 12.8593451,17.1901058 12.9484131,17.113733 C13.0923929,16.9905088 13.2262469,16.8499043 13.3479597,16.6948413 L13.3479597,16.6948413 Z M12.3221662,4.88809068 C12.3221662,4.7675869 12.4002519,4.6698539 12.4965239,4.6698539 C12.5252897,4.6698539 12.5523426,4.67856927 12.5763224,4.69398489 C12.7782872,4.79655416 12.9688665,4.92491688 13.1446348,5.07549622 C13.3279597,5.23252393 13.4968766,5.41433753 13.6481612,5.61700756 C13.6814106,5.66164232 13.6967758,5.71912343 13.6946599,5.77559698 C13.6957179,5.92275063 13.6979849,6.05700756 13.7,6.17569773 C13.708665,6.69076071 13.7128967,6.94003023 13.599194,7.16552141 C13.4942569,7.37368262 13.3213602,7.49262469 12.9864484,7.72295214 C12.8609068,7.80919899 12.7125441,7.91136524 12.568262,8.0155466 L12.5684635,8.01594962 L12.5548615,8.02587406 L12.5548615,14.5231537 L12.5684635,14.5330781 L12.568262,14.5334811 C12.7125441,14.6376121 12.8609068,14.7398287 12.9864484,14.8260756 C13.3213602,15.056403 13.4942569,15.1752947 13.599194,15.3835063 C13.7128967,15.6089975 13.708665,15.8582166 13.7,16.37333 C13.6979849,16.4920202 13.6957179,16.6262771 13.6946599,16.7734811 C13.6967758,16.8299043 13.6814106,16.887335 13.6481612,16.9319698 C13.4968766,17.1346902 13.3279597,17.3165038 13.1446348,17.4735315 C12.9688665,17.6241108 12.7782872,17.7524232 12.5763224,17.8550428 C12.5523426,17.8704584 12.5252897,17.8791738 12.4965239,17.8791738 C12.4002519,17.8791738 12.3221662,17.7814408 12.3221662,17.660937 L12.3221662,16.973733 L12.3221662,16.3373098 L11.882267,16.0194761 L11.4424181,15.7015919 L11.0025189,16.0194761 L10.5626196,16.3373098 L10.5626196,16.973733 L10.5626196,17.660937 C10.5626196,17.7814408 10.4845844,17.8791738 10.388262,17.8791738 C10.3595466,17.8791738 10.3324937,17.8704584 10.3084635,17.8550428 C10.1064484,17.7524232 9.91596977,17.6241108 9.74025189,17.4735315 C9.5568262,17.3165038 9.38790932,17.1346902 9.23662469,16.9319698 C9.20332494,16.887335 9.18806045,16.8299043 9.1902267,16.7734811 C9.18901763,16.6262771 9.18675063,16.4920202 9.18473552,16.3732292 C9.17612091,15.8582166 9.17198992,15.6089975 9.28554156,15.3835063 C9.39047859,15.1754458 9.56342569,15.0565038 9.8981864,14.8261763 C10.0171788,14.7444131 10.158136,14.6474358 10.3163224,14.5330781 L10.3299244,14.523204 L10.3299244,8.02582368 L10.3163224,8.01594962 C10.158136,7.90159194 10.0171788,7.80461461 9.8981864,7.72285139 C9.56342569,7.49252393 9.39047859,7.37358186 9.28554156,7.16552141 C9.17198992,6.94003023 9.17612091,6.69076071 9.18473552,6.17574811 C9.18675063,6.05700756 9.18901763,5.92275063 9.1902267,5.77559698 C9.18806045,5.71912343 9.20332494,5.66164232 9.23662469,5.61700756 C9.38790932,5.41433753 9.5568262,5.23252393 9.74025189,5.07549622 C9.91596977,4.92491688 10.1064484,4.79655416 10.3084635,4.69398489 C10.3324937,4.67856927 10.3595466,4.6698539 10.388262,4.6698539 C10.4845844,4.6698539 10.5626196,4.7675869 10.5626196,4.88809068 L10.5626196,5.57529471 L10.5626196,6.21166751 L11.0025189,6.52955164 L11.4424181,6.84743577 L11.882267,6.52955164 L12.3221662,6.21166751 L12.3221662,5.57529471 L12.3221662,4.88809068 Z" id="Fill-3" fill="#ED3024"></path>
            <path d="M11.4425088,15.1235315 C11.4951537,15.1235315 11.5478489,15.1401058 11.5936423,15.1734055 L12.6364635,15.9270076 C12.7222569,15.9788967 12.7800403,16.0898791 12.7800403,16.211995 L12.7800403,17.1103325 C12.8129874,17.0847909 12.8455315,17.0581914 12.8774207,17.0307859 C13.0062872,16.9204584 13.1278489,16.7945642 13.239335,16.6560756 L13.2433149,16.3775365 C13.2501159,15.9711889 13.2536423,15.7561763 13.2074458,15.6643375 C13.1636675,15.5775869 13.01067,15.4723476 12.7570176,15.2979395 C12.6687557,15.2371839 12.5672443,15.1674106 12.4346499,15.0728514 L12.4343476,15.0734055 L12.3824081,15.0360252 L12.382005,15.0364786 L12.2326348,14.9277632 C12.1499647,14.8714912 12.0968665,14.7635315 12.0968665,14.6480655 L12.0968665,7.90111335 C12.0968665,7.78574811 12.1499647,7.67773804 12.2353552,7.61919899 L12.3818539,7.51209572 L12.3823073,7.51280101 L12.4341965,7.47516877 L12.4350529,7.47683123 C12.5708212,7.37904786 12.670267,7.31068514 12.7570176,7.25103778 C13.01067,7.0766801 13.1636675,6.97144081 13.207597,6.88453904 C13.2536423,6.79285139 13.2501159,6.57783879 13.2435164,6.18730982 L13.239335,5.89300252 C13.1281511,5.7548665 13.0064887,5.62887154 12.8773199,5.51809068 C12.8455315,5.49083627 12.8129874,5.46423678 12.7800403,5.43859446 L12.7800403,6.33703275 C12.7800403,6.45914861 12.7222569,6.5700806 12.6292091,6.62670529 L11.5935919,7.37582368 C11.5019043,7.44207053 11.3832141,7.44196977 11.2913249,7.37587406 L10.2371688,6.61385894 C10.1546499,6.55406045 10.1053804,6.45073552 10.1051788,6.33718388 L10.1047254,5.43879597 C10.0717783,5.46438791 10.039335,5.49083627 10.0073955,5.51814106 C9.87827708,5.62887154 9.75666499,5.7548665 9.64558186,5.89300252 L9.64129975,6.18615113 C9.63470025,6.57708312 9.63097229,6.79239798 9.67742065,6.88453904 C9.72104786,6.97123929 9.86517884,7.07038287 10.1268917,7.25043325 C10.2443728,7.33123929 10.3826599,7.42630227 10.5545995,7.55068514 L10.6433149,7.61557179 C10.7290579,7.66564736 10.7877985,7.77733501 10.7877985,7.90096222 L10.7877985,14.6480655 C10.7877985,14.7710882 10.7293602,14.8824736 10.6353552,14.938796 L10.5550529,14.9980403 C10.3826599,15.1226247 10.2443728,15.217738 10.1276474,15.2980403 C9.86517884,15.4786448 9.72104786,15.5778388 9.67742065,15.6644383 C9.63097229,15.7564282 9.63470025,15.9719446 9.64129975,16.3630277 L9.64558186,16.6560756 C9.75696725,16.7945642 9.87852897,16.9204584 10.0073955,17.0307859 C10.039335,17.0581914 10.0717783,17.0846902 10.1047254,17.1103325 L10.1047254,16.211995 C10.1055819,16.0979899 10.1549521,15.9947657 10.2369169,15.9351184 L11.2912242,15.1732544 C11.3371688,15.1401058 11.389864,15.1235315 11.4425088,15.1235315 L11.4425088,15.1235315 Z M10.323063,17.5234811 L10.1542972,17.4135063 C10.0553552,17.349073 9.95812594,17.2761259 9.86538035,17.1966801 C9.71676574,17.0694257 9.57742065,16.9232796 9.45097229,16.7622217 L9.42815113,16.7330025 L9.42296222,16.3666549 C9.41525441,15.913204 9.41167758,15.7062015 9.48245844,15.5661511 C9.55122418,15.4295768 9.70225693,15.3256977 10.0031134,15.1185945 C10.1194358,15.0385945 10.2564635,14.9443879 10.4266902,14.8213652 L10.5149521,14.7570327 C10.5454811,14.7381411 10.569461,14.7000554 10.569461,14.6480655 L10.569461,7.90096222 C10.569461,7.84877078 10.5454811,7.81078589 10.5231637,7.7975869 L10.4262872,7.72730982 C10.2564635,7.6046398 10.1194358,7.51028212 10.0039698,7.43093703 C9.70225693,7.22338035 9.55122418,7.1194005 9.48245844,6.9828262 C9.41167758,6.84257431 9.41525441,6.63572292 9.42296222,6.18252393 L9.42815113,5.81607557 L9.45097229,5.78685642 C9.57701763,5.62620151 9.71646348,5.48005542 9.86538035,5.35234761 C9.95812594,5.27285139 10.0553552,5.19995466 10.1542972,5.13542065 L10.323063,5.0255466 L10.323063,6.33703275 C10.3234156,6.37919899 10.3399395,6.41864484 10.3651788,6.43698237 L11.4191839,7.19879597 C11.4400403,7.21401008 11.4557078,7.20620151 11.4656322,7.19879597 L12.5085038,6.44494207 C12.5386801,6.42625189 12.5617028,6.38902267 12.5617028,6.33703275 L12.5617028,5.0255466 L12.7304181,5.13542065 C12.8294106,5.1998539 12.9266398,5.27270025 13.0194861,5.35234761 C13.1683526,5.48005542 13.3077985,5.62620151 13.4338942,5.78685642 L13.456665,5.81597481 L13.4616524,6.16902267 C13.4693602,6.63627708 13.472937,6.84292695 13.4025592,6.98267506 C13.3334912,7.11965239 13.1821058,7.22368262 12.8806952,7.43103778 C12.771728,7.50589924 12.6426599,7.59481612 12.4586297,7.72756171 L12.3515768,7.83471537 L12.3438186,7.81401008 C12.3273955,7.83390932 12.3152544,7.86393451 12.3152544,7.90111335 L12.3152544,14.6480655 C12.3152544,14.6831285 12.326136,14.711995 12.3401914,14.7310882 L12.3554055,14.7432292 L12.3641713,14.7255466 L12.4715264,14.8322972 C12.6426599,14.954262 12.771728,15.0430781 12.8806952,15.1179899 C13.1821058,15.3253451 13.3334912,15.4293753 13.4024584,15.5661511 C13.472937,15.7060504 13.4693602,15.9127003 13.4618539,16.3652947 L13.456665,16.7331033 L13.4337935,16.7622217 C13.3073955,16.9233804 13.168,17.0694257 13.0194861,17.1966801 C12.9266398,17.2761763 12.8294106,17.3491738 12.7304181,17.4135063 L12.5617028,17.5234811 L12.5617028,16.211995 C12.5617028,16.1599547 12.5386801,16.1226751 12.5157582,16.1088715 L11.4656322,15.3502821 C11.4554055,15.3428766 11.439738,15.3351184 11.4191839,15.3502821 L10.3650781,16.111995 C10.3399395,16.1302317 10.3236171,16.1696272 10.3235164,16.2120957 L10.323063,17.5234811 Z M11.4424081,15.5669572 L12.4313249,16.2815164 L12.4313249,17.6608615 C12.4313249,17.72333 12.4657834,17.7700302 12.4964635,17.7700302 L12.5268413,17.7576877 C12.7197884,17.6596524 12.9037179,17.5361763 13.0734912,17.3906348 C13.2501159,17.2394509 13.4140957,17.0631285 13.5606448,16.8666549 C13.5777229,16.8437834 13.5867406,16.8112897 13.5856322,16.7773854 C13.5865894,16.6250932 13.588806,16.490534 13.5908715,16.3714912 C13.599335,15.8646902 13.6032141,15.6340101 13.5018035,15.4327003 C13.4093098,15.2493249 13.2473451,15.1378892 12.9246247,14.9160756 C12.798529,14.8293753 12.6493602,14.7265542 12.5044736,14.6219194 L12.4591839,14.5893249 L12.4456322,14.5231788 L12.4456322,7.97073552 L12.4901662,7.93798992 C12.6492594,7.82252393 12.798529,7.71965239 12.9246247,7.63295214 C13.2473451,7.41108816 13.4093098,7.29970277 13.5018035,7.11642821 C13.6032141,6.91511839 13.599335,6.68428715 13.5908715,6.1784937 C13.588806,6.05854408 13.5865894,5.92398489 13.5855315,5.77637783 C13.5867406,5.73778841 13.5777229,5.70514358 13.5606448,5.68227204 C13.4140957,5.48584887 13.2501159,5.30952645 13.0735416,5.15844332 C12.9035164,5.01264987 12.7196373,4.8891738 12.5268413,4.79134005 C12.5102166,4.78131486 12.5034156,4.77904786 12.4964635,4.77904786 C12.4657834,4.77904786 12.4313249,4.82569773 12.4313249,4.88811587 L12.4313249,6.26746096 L11.4424081,6.98212091 L10.4534408,6.26746096 L10.4534408,4.88811587 C10.4533401,4.8116927 10.4067406,4.76116373 10.3672947,4.78584887 C10.1654811,4.88897229 9.98160202,5.01249874 9.81122418,5.15844332 C9.63470025,5.30952645 9.4707204,5.48584887 9.32412091,5.6823728 C9.30714358,5.70514358 9.29802519,5.73778841 9.29928463,5.77144081 C9.2982267,5.92408564 9.2959597,6.05864484 9.29394458,6.17753652 C9.28543073,6.68388413 9.28150126,6.91491688 9.38306297,7.11642821 C9.47540554,7.2994005 9.63742065,7.41083627 9.9600403,7.63285139 C10.0795869,7.71501763 10.2211486,7.81254912 10.3802418,7.92741058 L10.4255315,7.96005542 L10.4390831,8.02579849 L10.4390831,14.5785441 L10.394398,14.6112393 C10.2224081,14.7356725 10.0817028,14.8324987 9.96281108,14.914262 C9.63742065,15.1381411 9.4755063,15.2495264 9.38306297,15.4327003 C9.28150126,15.6342116 9.28543073,15.8652443 9.29394458,16.3714408 C9.2959597,16.4904332 9.2982267,16.6249421 9.29938539,16.7725491 C9.29802519,16.8112897 9.30714358,16.8437834 9.32422166,16.8669068 C9.4707204,17.0631285 9.63470025,17.2394509 9.81122418,17.390534 C9.98129975,17.5362771 10.1651788,17.6597531 10.3579244,17.7576877 L10.3883023,17.7700302 C10.4190327,17.7700302 10.4534408,17.72333 10.4534408,17.6608615 L10.4534408,16.2815164 L11.4424081,15.5669572 Z M12.4964635,17.9883678 C12.3401914,17.9883678 12.2129874,17.841466 12.2129874,17.6608615 L12.2129874,16.3930529 L11.4424081,15.8361763 L10.6718287,16.3930529 L10.6718287,17.6608615 C10.6718287,17.841466 10.5446247,17.9883678 10.3883023,17.9883678 C10.3395365,17.9883678 10.2915264,17.9740605 10.2493098,17.9468564 C10.0508212,17.8465038 9.85238287,17.7133048 9.66920907,17.5564282 C9.48039295,17.3948161 9.30548111,17.2067557 9.14905793,16.9972846 C9.10205542,16.9339093 9.07792443,16.8529521 9.08114861,16.7693249 C9.07988917,16.6275113 9.07762217,16.4935567 9.07560705,16.375068 C9.06674055,15.8484181 9.06235768,15.5839849 9.18815113,15.3344131 C9.30568262,15.1013652 9.4941461,14.9715416 9.8364131,14.7362267 C9.94855416,14.6589975 10.0772191,14.5704836 10.2207456,14.467461 L10.2207456,8.08171788 C10.0701662,7.97370781 9.94417128,7.8869068 9.8364131,7.81280101 C9.4941461,7.57733501 9.30568262,7.44766247 9.18815113,7.21471537 C9.06235768,6.96514358 9.06674055,6.70076071 9.07560705,6.1739597 C9.07762217,6.05542065 9.07988917,5.92146599 9.08104786,5.77481612 C9.07792443,5.69602519 9.10205542,5.61511839 9.14895718,5.55194458 C9.30548111,5.34227204 9.48039295,5.15416121 9.66920907,4.99254912 C9.85268514,4.83547103 10.0511234,4.70217128 10.2589824,4.5966801 C10.2918287,4.57496725 10.3397884,4.56071033 10.3883023,4.56071033 C10.5446247,4.56071033 10.6718287,4.70761209 10.6718287,4.88811587 L10.6718287,6.15597481 L11.4424081,6.71275063 L12.2129874,6.15597481 L12.2129874,4.88811587 C12.2129874,4.70761209 12.3401914,4.56071033 12.4964635,4.56071033 C12.5449773,4.56071033 12.592937,4.57496725 12.6351537,4.60202015 C12.8338942,4.70232242 13.0324332,4.83557179 13.2156574,4.99264987 C13.4043728,5.15416121 13.579335,5.34227204 13.7357582,5.5516927 C13.7826599,5.61471537 13.8068413,5.69567254 13.8037683,5.77955164 C13.804927,5.92161713 13.8071436,6.05552141 13.8092091,6.17385894 C13.8180252,6.70111335 13.8224081,6.96534509 13.6967154,7.21471537 C13.5791335,7.44786398 13.3905189,7.57748615 13.0483023,7.81290176 C12.9326348,7.89239798 12.7973199,7.98564736 12.6639698,8.08121411 L12.6639698,14.4673602 C12.8040202,14.5681159 12.9355063,14.6585945 13.0483023,14.7361259 C13.3905189,14.9714408 13.5791335,15.1011637 13.6967154,15.3344131 C13.8224081,15.5837834 13.8180252,15.847864 13.8092091,16.3739597 C13.8071436,16.4934559 13.804927,16.6274106 13.803869,16.7742116 C13.8068413,16.8534055 13.7826599,16.9341612 13.7357582,16.9971839 C13.579335,17.2067557 13.4043728,17.3948161 13.2155567,17.5564282 C13.0326851,17.7131033 12.8341965,17.846403 12.6257834,17.9523476 C12.5932897,17.9740605 12.5451788,17.9883678 12.4964635,17.9883678 L12.4964635,17.9883678 Z" id="Fill-5" fill="#ED3024"></path>
            <polygon id="Fill-7" fill="#012846" points="17.3825189 19.2627305 2.52418136 19.2627305 2.52418136 6.27915365 3.28836272 6.27915365 3.28836272 18.4985491 16.6183375 18.4985491 16.6183375 6.11230227 17.3825189 6.11230227"></polygon>
            <path d="M19.5819244,19.2627305 L0.394468514,19.2627305 C0.183486146,19.2627305 0.0124030227,19.0916474 0.0124030227,18.880665 C0.0124030227,18.6696826 0.183486146,18.4985491 0.394468514,18.4985491 L19.5819244,18.4985491 C19.7928564,18.4985491 19.9639899,18.6696826 19.9639899,18.880665 C19.9639899,19.0916474 19.7928564,19.2627305 19.5819244,19.2627305" id="Fill-9" fill="#012846"></path>
            <polygon id="Fill-11" fill="#012846" points="0.498438287 8.82551637 0.0114357683 8.2365995 9.93103275 0.0338287154 19.6636776 8.14455919 19.1745592 8.73156171 9.92911839 1.02702771"></polygon>
        </g>
    </g>
</svg>