<?xml version="1.0" encoding="UTF-8"?>
<svg width="20px" height="22px" viewBox="0 0 20 22" version="1.1" xmlns="http://www.w3.org/2000/svg" xmlns:xlink="http://www.w3.org/1999/xlink">
    <!-- Generator: Sketch 64 (93537) - https://sketch.com -->
    <title>ic_diy</title>
    <desc>Created with Sketch.</desc>
    <g id="Page-1" stroke="none" stroke-width="1" fill="none" fill-rule="evenodd">
        <g id="ic_diy">
            <path d="M3.95820772,1.20447478 C4.09245104,1.40310979 4.25126409,1.58417804 4.43090801,1.7429911 C4.25126409,1.90180415 4.09245104,2.0828724 3.95820772,2.28150742 C3.82396439,2.0828724 3.66515134,1.90180415 3.48550742,1.7429911 C3.66515134,1.58417804 3.82396439,1.40310979 3.95820772,1.20447478 M2.69245104,2.03925223 L2.79096736,2.10489021 C3.17998813,2.36518694 3.47162018,2.74726409 3.62046291,3.19094362 C3.66889021,3.33634421 3.80497329,3.43438576 3.95820772,3.43438576 C4.11144214,3.43438576 4.24752522,3.33634421 4.29595252,3.19094362 C4.44479525,2.74726409 4.7364273,2.36518694 5.12544807,2.10489021 L5.22396439,2.03925223 C5.32295549,1.97319881 5.38254006,1.86216024 5.38254006,1.7429911 C5.38254006,1.62382196 5.32295549,1.51278338 5.22396439,1.44672997 L5.12544807,1.38109199 C4.7364273,1.12079525 4.44479525,0.738718101 4.29595252,0.295038576 C4.24752522,0.149637982 4.11144214,0.0515964392 3.95820772,0.0515964392 C3.80497329,0.0515964392 3.66889021,0.149637982 3.62046291,0.295038576 C3.47162018,0.738718101 3.17998813,1.12079525 2.79096736,1.38109199 L2.69245104,1.44672997 C2.59345994,1.51278338 2.53387537,1.62382196 2.53387537,1.7429911 C2.53387537,1.86216024 2.59345994,1.97319881 2.69245104,2.03925223" id="Fill-1" fill="#EC3225"></path>
            <path d="M1.8217092,3.51901484 C1.95595252,3.71764985 2.11476558,3.8987181 2.2944095,4.05753116 C2.11476558,4.21634421 1.95595252,4.39741246 1.8217092,4.59604748 C1.68746588,4.39741246 1.52865282,4.21634421 1.3490089,4.05753116 C1.52865282,3.8987181 1.68746588,3.71764985 1.8217092,3.51901484 M0.555952522,4.35379228 L0.654468843,4.41943027 C1.04348961,4.679727 1.33512166,5.06180415 1.48396439,5.50548368 C1.53239169,5.65088427 1.66847478,5.74892582 1.8217092,5.74892582 C1.97494362,5.74892582 2.11102671,5.65088427 2.15945401,5.50548368 C2.30829674,5.06180415 2.59992878,4.679727 2.98894955,4.41943027 L3.08746588,4.35379228 C3.18645697,4.28773887 3.24604154,4.1767003 3.24604154,4.05753116 C3.24604154,3.93836202 3.18645697,3.82732344 3.08746588,3.76127003 L2.98894955,3.69563205 C2.59992878,3.43533531 2.30829674,3.05325816 2.15945401,2.60957864 C2.11102671,2.46417804 1.97494362,2.3661365 1.8217092,2.3661365 C1.66847478,2.3661365 1.53239169,2.46417804 1.48396439,2.60957864 C1.33512166,3.05325816 1.04348961,3.43533531 0.654468843,3.69563205 L0.555952522,3.76127003 C0.456961424,3.82732344 0.397376855,3.93836202 0.397376855,4.05753116 C0.397376855,4.1767003 0.456961424,4.28773887 0.555952522,4.35379228" id="Fill-3" fill="#EC3225"></path>
            <path d="M2.53387537,13.5827359 L2.17779228,13.5827359 C1.98123442,13.5827359 1.8217092,13.7422611 1.8217092,13.938819 C1.8217092,14.1354362 1.98123442,14.2949021 2.17779228,14.2949021 L2.53387537,14.2949021 C2.73043323,14.2949021 2.88995846,14.1354362 2.88995846,13.938819 C2.88995846,13.7422611 2.73043323,13.5827359 2.53387537,13.5827359" id="Fill-5" fill="#EC3225"></path>
            <path d="M2.53387537,16.4314006 L2.17779228,16.4314006 C1.98123442,16.4314006 1.8217092,16.5909258 1.8217092,16.7874837 C1.8217092,16.9841009 1.98123442,17.1435668 2.17779228,17.1435668 L2.53387537,17.1435668 C2.73043323,17.1435668 2.88995846,16.9841009 2.88995846,16.7874837 C2.88995846,16.5909258 2.73043323,16.4314006 2.53387537,16.4314006" id="Fill-7" fill="#EC3225"></path>
            <path d="M2.53387537,19.2800653 L2.17779228,19.2800653 C1.98123442,19.2800653 1.8217092,19.4395905 1.8217092,19.6361484 C1.8217092,19.8327656 1.98123442,19.9922315 2.17779228,19.9922315 L2.53387537,19.9922315 C2.73043323,19.9922315 2.88995846,19.8327656 2.88995846,19.6361484 C2.88995846,19.4395905 2.73043323,19.2800653 2.53387537,19.2800653" id="Fill-9" fill="#EC3225"></path>
            <path d="M18.9136677,20.7043976 L17.8171098,20.7043976 C18.2307003,20.4432107 18.600908,20.1183442 18.9136677,19.7418457 L18.9136677,20.7043976 Z M1.10951335,18.5678991 L11.0800772,18.5678991 C11.4495727,19.4486706 12.0808487,20.1946053 12.8886231,20.7043976 L1.10951335,20.7043976 L1.10951335,18.5678991 Z M1.10951335,12.8705697 L12.8886231,12.8705697 C12.0808487,13.3804214 11.4495727,14.1263561 11.0800772,15.0070682 L1.10951335,15.0070682 L1.10951335,12.8705697 Z M3.95817804,12.1584036 L5.0264273,12.1584036 L5.0264273,9.30973887 L3.95817804,9.30973887 L3.95817804,12.1584036 Z M0.753430267,8.5975727 L1.46559644,8.5975727 L1.46559644,7.17324036 L0.753430267,7.17324036 L0.753430267,8.5975727 Z M2.17776261,7.27324036 L2.88992878,7.4512819 L2.88992878,8.3195905 L2.17776261,8.49763205 L2.17776261,7.27324036 Z M3.60209496,8.5975727 L5.0264273,8.5975727 L5.0264273,7.17324036 L3.60209496,7.17324036 L3.60209496,8.5975727 Z M6.58684273,7.52932344 L7.2990089,8.95366158 L7.24708012,8.95366158 C6.89354896,8.95490208 6.57022552,8.75496142 6.41325223,8.43828487 C6.35301484,8.31781009 6.2295727,8.24148961 6.09467656,8.24148961 L5.73859347,8.24148961 L5.73859347,7.52932344 L6.58684273,7.52932344 Z M6.39764392,4.61003561 C6.20156083,4.34730564 6.09544807,4.02861128 6.09466779,3.7007181 C6.09289614,3.17775074 6.36251039,2.69134125 6.80684273,2.4155549 L6.80684273,3.17223145 C6.80684273,3.76214243 7.28518101,4.24048071 7.87509199,4.24048071 C8.46506231,4.24048071 8.94334125,3.76214243 8.94334125,3.17223145 L8.94334125,2.4155549 C9.38773294,2.69134125 9.65734718,3.17775074 9.65551677,3.7007181 C9.65479525,4.02861128 9.54862315,4.34730564 9.35259941,4.61003561 L8.65841543,5.53513947 C8.61236202,5.59686053 8.58725816,5.67199407 8.58725816,5.74890801 L8.58725816,12.1584036 L7.16292582,12.1584036 L7.16292582,9.66332938 C7.19081899,9.66463501 7.21877151,9.66582196 7.24708012,9.66582196 L7.87509199,9.66582196 C7.99841543,9.66582196 8.11325223,9.6018457 8.17805935,9.49680119 C8.24274777,9.39211276 8.24886053,9.2608368 8.19360831,9.15045104 L7.16292582,7.0891454 L7.16292582,5.74890801 C7.16292582,5.67199407 7.13794065,5.59686053 7.09176855,5.53513947 L6.39764392,4.61003561 Z M5.73859347,8.95365579 L5.89206528,8.95365579 C6.03610089,9.16416024 6.22749555,9.33810682 6.45075964,9.46143027 L6.45075964,12.1584036 L5.73859347,12.1584036 L5.73859347,8.95365579 Z M11.6142018,8.71496142 C11.5479703,8.67668249 11.4841128,8.63395252 11.4231632,8.58742433 C10.9340237,8.2134184 10.6725994,7.61347774 10.732184,7.0008368 C10.7915312,6.38789911 11.1635193,5.84926409 11.71527,5.57650445 C12.2673175,5.30380415 12.9209674,5.33561424 13.4439941,5.66065875 C13.9669614,5.98534718 14.2848249,6.55751335 14.2845877,7.17324036 C14.2830445,7.80890801 13.9441128,8.39608902 13.3941424,8.71508012 C13.2841128,8.77864095 13.2163383,8.89614837 13.2163383,9.02321068 L13.2163383,12.1584036 L11.7920059,12.1584036 L11.7920059,9.02321068 C11.7920059,8.89614837 11.7242908,8.77864095 11.6142018,8.71496142 L11.6142018,8.71496142 Z M16.065003,12.1584036 L17.4893353,12.1584036 L17.4893353,10.7340712 L16.065003,10.7340712 L16.065003,12.1584036 Z M15.7089199,9.30973887 L17.8454184,9.30973887 C18.0419763,9.30973887 18.2015015,9.46926409 18.2015015,9.66582196 C18.2015015,9.86243917 18.0419763,10.021905 17.8454184,10.021905 L15.7089199,10.021905 C15.512362,10.021905 15.3528368,9.86243917 15.3528368,9.66582196 C15.3528368,9.46926409 15.512362,9.30973887 15.7089199,9.30973887 L15.7089199,9.30973887 Z M16.4027478,4.21199407 L16.2029258,3.6124095 L17.3514718,3.6124095 L17.1516499,4.21199407 C17.1394837,4.24831454 17.1332522,4.28629674 17.1332522,4.32457567 L17.1332522,8.5975727 L16.4210861,8.5975727 L16.4210861,4.32457567 C16.4210861,4.28629674 16.4149139,4.24831454 16.4027478,4.21199407 L16.4027478,4.21199407 Z M17.2113531,2.18807715 L17.3893947,2.90024332 L16.165003,2.90024332 L16.3430445,2.18807715 L17.2113531,2.18807715 Z M18.9136677,13.833181 C18.600908,13.4566231 18.2307003,13.131816 17.8171098,12.8705697 L18.9136677,12.8705697 L18.9136677,13.833181 Z M1.10951335,15.7192344 L10.8485638,15.7192344 C10.6823323,16.421727 10.6823323,17.1532997 10.8485638,17.8557329 L1.10951335,17.8557329 L1.10951335,15.7192344 Z M11.4359228,16.7874837 C11.4359228,15.20327 12.3903442,13.7749021 13.8538457,13.1686706 C15.3175846,12.5625579 17.002273,12.8976914 18.122451,14.0178694 C19.2426291,15.1380475 19.577822,16.8227953 18.9717092,18.2865341 C18.3654777,19.7499763 16.9371098,20.7043976 15.3528368,20.7043976 C13.1905816,20.7018457 11.4384748,18.9497982 11.4359228,16.7874837 L11.4359228,16.7874837 Z M19.9819206,16.7874837 C19.9826884,16.1763858 19.8614421,15.5714006 19.6258338,15.0076024 L19.6258338,12.5144866 C19.6258338,12.3179288 19.466368,12.1584036 19.2697507,12.1584036 L18.2015015,12.1584036 L18.2015015,10.6729436 C18.6918872,10.4992344 18.9858338,9.99786944 18.8978813,9.48528783 C18.8098101,8.9724095 18.3657151,8.59781009 17.8454184,8.5975727 L17.8454184,4.38261721 L18.1831632,3.36896736 C18.2048249,3.30475371 18.2073769,3.23567359 18.190819,3.17009496 L17.8347359,1.74576261 C17.795092,1.58718694 17.6527774,1.47591098 17.4893353,1.47591098 L16.065003,1.47591098 C15.9015608,1.47591098 15.7593056,1.58718694 15.7196617,1.74576261 L15.3635786,3.17009496 C15.3470208,3.23567359 15.3495727,3.30475371 15.3712344,3.36896736 L15.7089199,4.38261721 L15.7089199,8.5975727 C15.1886825,8.59781009 14.7445282,8.9724095 14.6565163,9.48528783 C14.5685638,9.99786944 14.8625104,10.4992344 15.3528368,10.6729436 L15.3528368,12.1584036 L13.9285045,12.1584036 L13.9285045,9.21822552 C14.6439941,8.72000593 15.0471395,7.88421958 14.9916499,7.0144273 C14.936457,6.14445697 14.4304036,5.36647478 13.6577626,4.96303264 C12.8850623,4.55964985 11.9575252,4.5891454 11.212184,5.04113353 C10.4666647,5.49300297 10.0113531,6.30160831 10.0115905,7.17324036 C10.0090386,7.95009496 10.3714125,8.68309199 10.9903442,9.15276558 C11.019543,9.17525816 11.049454,9.19715727 11.0798398,9.21822552 L11.0798398,12.1584036 L9.29942433,12.1584036 L9.29942433,5.86760237 L9.92209496,5.03721662 C10.2105816,4.65122255 10.366724,4.18243917 10.3676736,3.7007181 C10.3705223,2.85620772 9.89289614,2.08350742 9.13651632,1.70843323 L8.74660534,1.51347774 C8.63616024,1.45834421 8.50494362,1.46439763 8.40025519,1.52908605 C8.29515134,1.59389318 8.23117507,1.70867062 8.23117507,1.83199407 L8.23117507,3.17223145 C8.23117507,3.36896736 8.0717092,3.52831454 7.87509199,3.52831454 C7.67853412,3.52831454 7.5190089,3.36896736 7.5190089,3.17223145 L7.5190089,1.83199407 C7.5190089,1.70867062 7.45509199,1.59389318 7.34998813,1.52908605 C7.2452997,1.46439763 7.11402374,1.45834421 7.00363798,1.51347774 L6.61378635,1.70843323 C5.85728783,2.08350742 5.37978042,2.85620772 5.38251039,3.7007181 C5.38351929,4.18243917 5.53966172,4.65122255 5.82808902,5.03721662 L6.45075964,5.86760237 L6.45075964,6.81715727 L5.73859347,6.81715727 C5.73859347,6.62059941 5.5791276,6.46107418 5.38251039,6.46107418 L3.24601187,6.46107418 C3.08672404,6.46131157 2.94678338,6.56730564 2.90357864,6.7207181 L1.90797033,6.47181602 L1.90838576,6.47223145 C1.88007715,6.4649911 1.85093769,6.46107418 1.82167953,6.46107418 L0.397347181,6.46107418 C0.200789318,6.46107418 0.041264095,6.62059941 0.041264095,6.81715727 L0.041264095,8.95365579 C0.041264095,9.150273 0.200789318,9.30973887 0.397347181,9.30973887 C0.397347181,9.30973887 1.80820772,9.30878932 1.82167953,9.30724629 C1.82524036,9.3070089 2.90357864,9.05009496 2.90357864,9.05009496 C2.94678338,9.20356677 3.08672404,9.30956083 3.24601187,9.30973887 L3.24601187,12.1584036 L0.753430267,12.1584036 C0.556872404,12.1584036 0.397347181,12.3179288 0.397347181,12.5144866 L0.397347181,21.0604807 C0.397347181,21.2570979 0.556872404,21.4165638 0.753430267,21.4165638 L19.2697507,21.4165638 C19.466368,21.4165638 19.6258338,21.2570979 19.6258338,21.0604807 L19.6258338,18.5868902 C19.6258338,18.5809555 19.6253591,18.5753175 19.6248843,18.5695015 C19.8612047,18.0053472 19.9826884,17.3993531 19.9819206,16.7874837 L19.9819206,16.7874837 Z" id="Fill-11" fill="#072845"></path>
            <path d="M17.1332522,18.5678991 L16.4210861,18.5678991 L16.4210861,17.4996499 C16.4210861,17.303092 16.2615608,17.1435668 16.065003,17.1435668 L14.6406706,17.1435668 C14.4441128,17.1435668 14.2845875,17.303092 14.2845875,17.4996499 L14.2845875,18.5678991 L13.5724214,18.5678991 L13.5724214,16.4314006 L17.1332522,16.4314006 L17.1332522,18.5678991 Z M14.9967537,18.5678991 L15.7089199,18.5678991 L15.7089199,17.8557329 L14.9967537,17.8557329 L14.9967537,18.5678991 Z M15.3528368,14.7584036 L16.5057745,15.7192344 L14.1999585,15.7192344 L15.3528368,14.7584036 Z M17.8423917,16.0311039 C17.8405519,16.0162671 17.8377626,16.001905 17.8341424,15.987543 C17.8334303,15.9845163 17.8326588,15.981727 17.8318279,15.9788783 C17.8275549,15.963092 17.8219763,15.9478991 17.8157448,15.9330623 C17.8150326,15.9315786 17.8142018,15.930273 17.813727,15.9285519 C17.8073769,15.9149614 17.8001958,15.9016677 17.7923027,15.888908 C17.7909377,15.8863561 17.789632,15.8838042 17.787911,15.8814896 C17.7794243,15.8681365 17.7699288,15.8556142 17.7594837,15.8435668 C17.7574065,15.8410148 17.755092,15.8387003 17.7527181,15.8361484 C17.7423323,15.824457 17.7308783,15.8134184 17.7188309,15.8031513 C17.7183561,15.8026766 17.718,15.8020831 17.7175252,15.8016083 L17.7160415,15.8005994 L17.7158042,15.8005994 L15.5810267,14.0214303 C15.4488012,13.9112226 15.2569318,13.9112226 15.1249436,14.0214303 L12.9901068,15.8005994 L12.9896914,15.8005994 L12.9884451,15.8016083 C12.9877329,15.8020831 12.9876142,15.8026766 12.9869021,15.8031513 C12.975092,15.8134184 12.963638,15.824457 12.9529555,15.8361484 C12.9506409,15.8387003 12.9485638,15.8410148 12.9462493,15.8435668 C12.9360415,15.8556142 12.926546,15.8681365 12.917822,15.8814896 C12.9163383,15.8838042 12.9150326,15.8863561 12.9134303,15.888908 C12.9055371,15.9016677 12.8985935,15.9149614 12.8922433,15.9285519 C12.8915312,15.9300356 12.8909377,15.9313412 12.8901662,15.9330623 C12.8837567,15.9478991 12.8784154,15.963092 12.873905,15.9788783 C12.8730742,15.981727 12.8725401,15.9845163 12.8718279,15.987543 C12.8682077,16.001905 12.8653591,16.0162671 12.8633412,16.0311039 C12.8633412,16.0328843 12.8628071,16.0344866 12.8625697,16.0364451 C12.8612641,16.0493234 12.8602552,16.0623205 12.8602552,16.0753175 L12.8602552,18.9239822 C12.8602552,19.1205994 13.0197804,19.2800653 13.2163383,19.2800653 L17.4893353,19.2800653 C17.6859525,19.2800653 17.8454184,19.1205994 17.8454184,18.9239822 L17.8454184,16.0753175 C17.8454184,16.0623205 17.8447062,16.0493234 17.8431039,16.0364451 C17.8428665,16.0344866 17.8426291,16.0328843 17.8423917,16.0311039 L17.8423917,16.0311039 Z" id="Fill-13" fill="#EC3225"></path>
            <path d="M12.3115252,6.83990504 L12.6968071,6.83990504 L12.8892107,7.17325816 L12.6968071,7.50661128 L12.3115252,7.50661128 L12.119181,7.17325816 L12.3115252,6.83990504 Z M12.1061246,8.21877807 L12.9022077,8.21877807 C13.0295668,8.21901484 13.1470148,8.15112166 13.2107537,8.04073591 L13.6087953,7.3512997 C13.6724154,7.24121068 13.6724154,7.10530564 13.6087953,6.99521662 L13.2107537,6.30578042 C13.1470148,6.19539466 13.0295668,6.12750148 12.9022077,6.12773825 L12.1061246,6.12773825 C11.9788843,6.12750148 11.8613175,6.19539466 11.797638,6.30578042 L11.3995964,6.99521662 C11.3360356,7.10530564 11.3360356,7.24121068 11.3995964,7.3512997 L11.797638,8.04073591 C11.8613175,8.15112166 11.9788843,8.21901484 12.1061246,8.21877807 L12.1061246,8.21877807 Z" id="Fill-15" fill="#072845"></path>
        </g>
    </g>
</svg>